<ttFont>
    <TTGlyph name=".notdef" xMin="0" yMin="0" xMax="500" yMax="700">
      <contour>
        <pt x="0" y="700" on="1"/>
        <pt x="500" y="700" on="1"/>
        <pt x="500" y="0" on="1"/>
        <pt x="0" y="0" on="1"/>
      </contour>
      <contour>
        <pt x="50" y="650" on="1"/>
        <pt x="50" y="50" on="1"/>
        <pt x="450" y="50" on="1"/>
        <pt x="450" y="650" on="1"/>
      </contour>
      <contour>
        <pt x="229" y="278" on="1"/>
        <pt x="229" y="307" on="0"/>
        <pt x="256" y="345" on="0"/>
        <pt x="283" y="367" on="1"/>
        <pt x="311" y="390" on="0"/>
        <pt x="339" y="431" on="0"/>
        <pt x="339" y="465" on="1"/>
        <pt x="339" y="496" on="0"/>
        <pt x="301" y="552" on="0"/>
        <pt x="250" y="552" on="1"/>
        <pt x="192" y="552" on="0"/>
        <pt x="152" y="485" on="0"/>
        <pt x="152" y="452" on="1"/>
        <pt x="152" y="424" on="1"/>
        <pt x="103" y="424" on="1"/>
        <pt x="99" y="438" on="0"/>
        <pt x="99" y="455" on="1"/>
        <pt x="99" y="478" on="0"/>
        <pt x="120" y="544" on="0"/>
        <pt x="187" y="602" on="0"/>
        <pt x="250" y="602" on="1"/>
        <pt x="313" y="602" on="0"/>
        <pt x="376" y="546" on="0"/>
        <pt x="393" y="486" on="0"/>
        <pt x="393" y="467" on="1"/>
        <pt x="393" y="422" on="0"/>
        <pt x="356" y="364" on="0"/>
        <pt x="326" y="338" on="1"/>
        <pt x="304" y="320" on="0"/>
        <pt x="282" y="290" on="0"/>
        <pt x="282" y="268" on="1"/>
        <pt x="282" y="215" on="1"/>
        <pt x="229" y="215" on="1"/>
      </contour>
      <contour>
        <pt x="225" y="169" on="1"/>
        <pt x="285" y="169" on="1"/>
        <pt x="285" y="99" on="1"/>
        <pt x="225" y="99" on="1"/>
      </contour>
    </TTGlyph>
    <TTGlyph name="A" xMin="11" yMin="0" xMax="484" yMax="688">
      <contour>
        <pt x="334" y="156" on="1"/>
        <pt x="158" y="156" on="1"/>
        <pt x="126" y="0" on="1"/>
        <pt x="11" y="0" on="1"/>
        <pt x="165" y="688" on="1"/>
        <pt x="330" y="688" on="1"/>
        <pt x="484" y="0" on="1"/>
        <pt x="367" y="0" on="1"/>
      </contour>
      <contour>
        <pt x="243" y="575" on="1"/>
        <pt x="179" y="258" on="1"/>
        <pt x="312" y="258" on="1"/>
        <pt x="249" y="575" on="1"/>
      </contour>
    </TTGlyph>
    <TTGlyph name="A.ss01" xMin="55" yMin="0" xMax="454" yMax="696">
      <contour>
        <pt x="340" y="211" on="1"/>
        <pt x="169" y="211" on="1"/>
        <pt x="169" y="0" on="1"/>
        <pt x="55" y="0" on="1"/>
        <pt x="55" y="385" on="1"/>
        <pt x="55" y="520" on="0"/>
        <pt x="78" y="642" on="0"/>
        <pt x="161" y="696" on="0"/>
        <pt x="254" y="696" on="1"/>
        <pt x="347" y="696" on="0"/>
        <pt x="430" y="642" on="0"/>
        <pt x="454" y="520" on="0"/>
        <pt x="454" y="385" on="1"/>
        <pt x="454" y="0" on="1"/>
        <pt x="340" y="0" on="1"/>
      </contour>
      <contour>
        <pt x="340" y="507" on="0"/>
        <pt x="330" y="571" on="0"/>
        <pt x="296" y="593" on="0"/>
        <pt x="254" y="593" on="1"/>
        <pt x="212" y="593" on="0"/>
        <pt x="178" y="571" on="0"/>
        <pt x="169" y="508" on="0"/>
        <pt x="169" y="428" on="1"/>
        <pt x="169" y="316" on="1"/>
        <pt x="340" y="316" on="1"/>
        <pt x="340" y="428" on="1"/>
      </contour>
    </TTGlyph>
    <TTGlyph name="AE" xMin="-9" yMin="0" xMax="637" yMax="688">
      <contour>
        <pt x="323" y="156" on="1"/>
        <pt x="148" y="156" on="1"/>
        <pt x="103" y="0" on="1"/>
        <pt x="-9" y="0" on="1"/>
        <pt x="194" y="688" on="1"/>
        <pt x="637" y="688" on="1"/>
        <pt x="637" y="585" on="1"/>
        <pt x="377" y="585" on="1"/>
        <pt x="403" y="398" on="1"/>
        <pt x="609" y="398" on="1"/>
        <pt x="609" y="295" on="1"/>
        <pt x="419" y="295" on="1"/>
        <pt x="447" y="102" on="1"/>
        <pt x="637" y="102" on="1"/>
        <pt x="637" y="0" on="1"/>
        <pt x="344" y="0" on="1"/>
      </contour>
      <contour>
        <pt x="262" y="575" on="1"/>
        <pt x="175" y="258" on="1"/>
        <pt x="310" y="258" on="1"/>
        <pt x="268" y="575" on="1"/>
      </contour>
    </TTGlyph>
    <TTGlyph name="AEacute" xMin="-9" yMin="0" xMax="637" yMax="888">
      <component glyphName="AE" x="0" y="0" flags="0x0"/>
      <component glyphName="acutecomb.case" x="451" y="0" flags="0x0"/>
    </TTGlyph>
    <TTGlyph name="Aacute" xMin="11" yMin="0" xMax="484" yMax="894">
      <component glyphName="A" x="0" y="0" flags="0x0"/>
      <component glyphName="acute" x="186" y="151" flags="0x4"/>
    </TTGlyph>
    <TTGlyph name="Aacute.ss01" xMin="55" yMin="0" xMax="454" yMax="893">
      <component glyphName="A.ss01" x="0" y="0" flags="0x0"/>
      <component glyphName="acute" x="201" y="150" flags="0x4"/>
    </TTGlyph>
    <TTGlyph name="Abreve" xMin="11" yMin="0" xMax="484" yMax="888">
      <component glyphName="A" x="0" y="0" flags="0x0"/>
      <component glyphName="uni0306.case" x="378" y="0" flags="0x0"/>
    </TTGlyph>
    <TTGlyph name="Abreve.ss01" xMin="55" yMin="0" xMax="454" yMax="888">
      <component glyphName="A.ss01" x="0" y="0" flags="0x0"/>
      <component glyphName="uni0306.case" x="384" y="0" flags="0x0"/>
    </TTGlyph>
    <TTGlyph name="Acircumflex" xMin="11" yMin="0" xMax="484" yMax="883">
      <component glyphName="A" x="0" y="0" flags="0x0"/>
      <component glyphName="circumflex" x="110" y="140" flags="0x4"/>
    </TTGlyph>
    <TTGlyph name="Acircumflex.ss01" xMin="55" yMin="0" xMax="454" yMax="882">
      <component glyphName="A.ss01" x="0" y="0" flags="0x0"/>
      <component glyphName="circumflex" x="118" y="139" flags="0x4"/>
    </TTGlyph>
    <TTGlyph name="Adieresis" xMin="11" yMin="0" xMax="484" yMax="875">
      <component glyphName="A" x="0" y="0" flags="0x0"/>
      <component glyphName="dieresis" x="101" y="145" flags="0x4"/>
    </TTGlyph>
    <TTGlyph name="Adieresis.ss01" xMin="55" yMin="0" xMax="454" yMax="869">
      <component glyphName="A.ss01" x="0" y="0" flags="0x0"/>
      <component glyphName="dieresis" x="111" y="139" flags="0x4"/>
    </TTGlyph>
    <TTGlyph name="Agrave" xMin="11" yMin="0" xMax="484" yMax="894">
      <component glyphName="A" x="0" y="0" flags="0x0"/>
      <component glyphName="grave" x="135" y="151" flags="0x4"/>
    </TTGlyph>
    <TTGlyph name="Agrave.ss01" xMin="55" yMin="0" xMax="454" yMax="893">
      <component glyphName="A.ss01" x="0" y="0" flags="0x0"/>
      <component glyphName="grave" x="136" y="150" flags="0x4"/>
    </TTGlyph>
    <TTGlyph name="Amacron" xMin="11" yMin="0" xMax="484" yMax="888">
      <component glyphName="A" x="0" y="0" flags="0x0"/>
      <component glyphName="uni0304.case" x="399" y="0" flags="0x0"/>
    </TTGlyph>
    <TTGlyph name="Amacron.ss01" xMin="55" yMin="0" xMax="454" yMax="888">
      <component glyphName="A.ss01" x="0" y="0" flags="0x0"/>
      <component glyphName="uni0304.case" x="405" y="0" flags="0x0"/>
    </TTGlyph>
    <TTGlyph name="Aogonek" xMin="11" yMin="-196" xMax="484" yMax="688">
      <contour>
        <pt x="399" y="-131" on="0"/>
        <pt x="441" y="-131" on="1"/>
        <pt x="451" y="-131" on="0"/>
        <pt x="454" y="-130" on="1"/>
        <pt x="454" y="-193" on="1"/>
        <pt x="428" y="-196" on="0"/>
        <pt x="408" y="-196" on="1"/>
        <pt x="357" y="-196" on="0"/>
        <pt x="312" y="-150" on="0"/>
        <pt x="312" y="-113" on="1"/>
        <pt x="312" y="-85" on="0"/>
        <pt x="342" y="-24" on="0"/>
        <pt x="367" y="2" on="1"/>
        <pt x="334" y="156" on="1"/>
        <pt x="158" y="156" on="1"/>
        <pt x="126" y="0" on="1"/>
        <pt x="11" y="0" on="1"/>
        <pt x="165" y="688" on="1"/>
        <pt x="330" y="688" on="1"/>
        <pt x="484" y="0" on="1"/>
        <pt x="448" y="0" on="1"/>
        <pt x="429" y="-19" on="0"/>
        <pt x="399" y="-70" on="0"/>
        <pt x="399" y="-92" on="1"/>
      </contour>
      <contour>
        <pt x="312" y="258" on="1"/>
        <pt x="249" y="575" on="1"/>
        <pt x="243" y="575" on="1"/>
        <pt x="179" y="258" on="1"/>
      </contour>
    </TTGlyph>
    <TTGlyph name="Aogonek.ss01" xMin="55" yMin="-196" xMax="454" yMax="696">
      <contour>
        <pt x="401" y="-18" on="0"/>
        <pt x="371" y="-70" on="0"/>
        <pt x="371" y="-92" on="1"/>
        <pt x="371" y="-131" on="0"/>
        <pt x="412" y="-131" on="1"/>
        <pt x="422" y="-131" on="0"/>
        <pt x="426" y="-130" on="1"/>
        <pt x="426" y="-193" on="1"/>
        <pt x="401" y="-196" on="0"/>
        <pt x="380" y="-196" on="1"/>
        <pt x="284" y="-196" on="0"/>
        <pt x="284" y="-113" on="1"/>
        <pt x="284" y="-85" on="0"/>
        <pt x="315" y="-24" on="0"/>
        <pt x="340" y="3" on="1"/>
        <pt x="340" y="211" on="1"/>
        <pt x="169" y="211" on="1"/>
        <pt x="169" y="0" on="1"/>
        <pt x="55" y="0" on="1"/>
        <pt x="55" y="385" on="1"/>
        <pt x="55" y="520" on="0"/>
        <pt x="78" y="642" on="0"/>
        <pt x="161" y="696" on="0"/>
        <pt x="254" y="696" on="1"/>
        <pt x="347" y="696" on="0"/>
        <pt x="430" y="642" on="0"/>
        <pt x="454" y="520" on="0"/>
        <pt x="454" y="385" on="1"/>
        <pt x="454" y="0" on="1"/>
        <pt x="420" y="0" on="1"/>
      </contour>
      <contour>
        <pt x="340" y="316" on="1"/>
        <pt x="340" y="428" on="1"/>
        <pt x="340" y="507" on="0"/>
        <pt x="330" y="571" on="0"/>
        <pt x="296" y="593" on="0"/>
        <pt x="254" y="593" on="1"/>
        <pt x="212" y="593" on="0"/>
        <pt x="178" y="571" on="0"/>
        <pt x="169" y="508" on="0"/>
        <pt x="169" y="428" on="1"/>
        <pt x="169" y="316" on="1"/>
      </contour>
    </TTGlyph>
    <TTGlyph name="Aring" xMin="11" yMin="0" xMax="484" yMax="885">
      <contour>
        <pt x="484" y="0" on="1"/>
        <pt x="367" y="0" on="1"/>
        <pt x="334" y="156" on="1"/>
        <pt x="158" y="156" on="1"/>
        <pt x="126" y="0" on="1"/>
        <pt x="11" y="0" on="1"/>
        <pt x="165" y="685" on="1"/>
        <pt x="141" y="696" on="0"/>
        <pt x="128" y="737" on="0"/>
        <pt x="128" y="779" on="1"/>
        <pt x="128" y="821" on="0"/>
        <pt x="141" y="863" on="0"/>
        <pt x="191" y="885" on="0"/>
        <pt x="246" y="885" on="1"/>
        <pt x="302" y="885" on="0"/>
        <pt x="353" y="863" on="0"/>
        <pt x="366" y="821" on="0"/>
        <pt x="366" y="779" on="1"/>
        <pt x="366" y="738" on="0"/>
        <pt x="353" y="697" on="0"/>
        <pt x="330" y="686" on="1"/>
      </contour>
      <contour>
        <pt x="223" y="829" on="0"/>
        <pt x="204" y="820" on="0"/>
        <pt x="199" y="801" on="0"/>
        <pt x="199" y="779" on="1"/>
        <pt x="199" y="757" on="0"/>
        <pt x="204" y="738" on="0"/>
        <pt x="223" y="730" on="0"/>
        <pt x="246" y="730" on="1"/>
        <pt x="270" y="730" on="0"/>
        <pt x="291" y="738" on="0"/>
        <pt x="296" y="757" on="0"/>
        <pt x="296" y="779" on="1"/>
        <pt x="296" y="801" on="0"/>
        <pt x="291" y="820" on="0"/>
        <pt x="270" y="829" on="0"/>
        <pt x="246" y="829" on="1"/>
      </contour>
      <contour>
        <pt x="312" y="258" on="1"/>
        <pt x="249" y="575" on="1"/>
        <pt x="243" y="575" on="1"/>
        <pt x="179" y="258" on="1"/>
      </contour>
    </TTGlyph>
    <TTGlyph name="Aring.ss01" xMin="55" yMin="0" xMax="454" yMax="943">
      <component glyphName="A.ss01" x="0" y="0" flags="0x0"/>
      <component glyphName="ring" x="132" y="123" flags="0x4"/>
    </TTGlyph>
    <TTGlyph name="Aringacute" xMin="11" yMin="0" xMax="484" yMax="1085">
      <component glyphName="Aring" x="0" y="0" flags="0x0"/>
      <component glyphName="acutecomb.case" x="360" y="197" flags="0x4"/>
    </TTGlyph>
    <TTGlyph name="Aringacute.ss01" xMin="55" yMin="0" xMax="454" yMax="1105">
      <component glyphName="A.ss01" x="0" y="0" flags="0x0"/>
      <component glyphName="uni030A.case" x="379" y="0" flags="0x0"/>
      <component glyphName="acutecomb.case" x="370" y="217" flags="0x4"/>
    </TTGlyph>
    <TTGlyph name="Atilde" xMin="11" yMin="0" xMax="484" yMax="885">
      <component glyphName="A" x="0" y="0" flags="0x0"/>
      <component glyphName="tilde" x="92" y="142" flags="0x4"/>
    </TTGlyph>
    <TTGlyph name="Atilde.ss01" xMin="55" yMin="0" xMax="454" yMax="885">
      <component glyphName="A.ss01" x="0" y="0" flags="0x0"/>
      <component glyphName="tilde" x="100" y="142" flags="0x4"/>
    </TTGlyph>
    <TTGlyph name="B" xMin="59" yMin="0" xMax="451" yMax="688">
      <contour>
        <pt x="59" y="688" on="1"/>
        <pt x="284" y="688" on="1"/>
        <pt x="366" y="688" on="0"/>
        <pt x="445" y="602" on="0"/>
        <pt x="445" y="515" on="1"/>
        <pt x="445" y="443" on="0"/>
        <pt x="399" y="365" on="0"/>
        <pt x="350" y="353" on="1"/>
        <pt x="350" y="349" on="1"/>
        <pt x="405" y="336" on="0"/>
        <pt x="451" y="259" on="0"/>
        <pt x="451" y="183" on="1"/>
        <pt x="451" y="94" on="0"/>
        <pt x="375" y="0" on="0"/>
        <pt x="283" y="0" on="1"/>
        <pt x="59" y="0" on="1"/>
      </contour>
      <contour>
        <pt x="296" y="400" on="0"/>
        <pt x="330" y="439" on="0"/>
        <pt x="330" y="492" on="1"/>
        <pt x="330" y="531" on="0"/>
        <pt x="318" y="570" on="0"/>
        <pt x="286" y="585" on="0"/>
        <pt x="253" y="585" on="1"/>
        <pt x="173" y="585" on="1"/>
        <pt x="173" y="400" on="1"/>
        <pt x="253" y="400" on="1"/>
      </contour>
      <contour>
        <pt x="290" y="102" on="0"/>
        <pt x="323" y="118" on="0"/>
        <pt x="335" y="158" on="0"/>
        <pt x="335" y="198" on="1"/>
        <pt x="335" y="238" on="0"/>
        <pt x="321" y="280" on="0"/>
        <pt x="289" y="296" on="0"/>
        <pt x="257" y="296" on="1"/>
        <pt x="173" y="296" on="1"/>
        <pt x="173" y="102" on="1"/>
        <pt x="257" y="102" on="1"/>
      </contour>
    </TTGlyph>
    <TTGlyph name="C" xMin="45" yMin="-8" xMax="366" yMax="696">
      <contour>
        <pt x="346" y="1" on="0"/>
        <pt x="281" y="-8" on="0"/>
        <pt x="252" y="-8" on="1"/>
        <pt x="159" y="-8" on="0"/>
        <pt x="73" y="51" on="0"/>
        <pt x="45" y="194" on="0"/>
        <pt x="45" y="344" on="1"/>
        <pt x="45" y="492" on="0"/>
        <pt x="74" y="636" on="0"/>
        <pt x="160" y="696" on="0"/>
        <pt x="252" y="696" on="1"/>
        <pt x="283" y="696" on="0"/>
        <pt x="347" y="687" on="0"/>
        <pt x="364" y="680" on="1"/>
        <pt x="364" y="585" on="1"/>
        <pt x="311" y="593" on="0"/>
        <pt x="274" y="593" on="1"/>
        <pt x="217" y="593" on="0"/>
        <pt x="172" y="563" on="0"/>
        <pt x="159" y="467" on="0"/>
        <pt x="159" y="344" on="1"/>
        <pt x="159" y="221" on="0"/>
        <pt x="172" y="125" on="0"/>
        <pt x="217" y="95" on="0"/>
        <pt x="274" y="95" on="1"/>
        <pt x="324" y="95" on="0"/>
        <pt x="366" y="103" on="1"/>
        <pt x="366" y="8" on="1"/>
      </contour>
    </TTGlyph>
    <TTGlyph name="Cacute" xMin="45" yMin="-8" xMax="366" yMax="888">
      <component glyphName="C" x="0" y="0" flags="0x0"/>
      <component glyphName="acutecomb.case" x="312" y="0" flags="0x0"/>
    </TTGlyph>
    <TTGlyph name="Cacute.loclPLK" xMin="45" yMin="-8" xMax="366" yMax="888">
      <component glyphName="C" x="0" y="0" flags="0x0"/>
      <component glyphName="acute.case.loclPLK" x="137" y="0" flags="0x0"/>
    </TTGlyph>
    <TTGlyph name="Ccaron" xMin="45" yMin="-8" xMax="366" yMax="888">
      <component glyphName="C" x="0" y="0" flags="0x0"/>
      <component glyphName="uni030C.case" x="336" y="0" flags="0x0"/>
    </TTGlyph>
    <TTGlyph name="Ccedilla" xMin="45" yMin="-190" xMax="366" yMax="696">
      <contour>
        <pt x="324" y="95" on="0"/>
        <pt x="366" y="103" on="1"/>
        <pt x="366" y="8" on="1"/>
        <pt x="346" y="1" on="0"/>
        <pt x="281" y="-8" on="0"/>
        <pt x="252" y="-8" on="1"/>
        <pt x="235" y="-8" on="1"/>
        <pt x="200" y="-190" on="1"/>
        <pt x="102" y="-190" on="1"/>
        <pt x="102" y="-185" on="1"/>
        <pt x="163" y="1" on="1"/>
        <pt x="113" y="14" on="0"/>
        <pt x="62" y="89" on="0"/>
        <pt x="45" y="223" on="0"/>
        <pt x="45" y="344" on="1"/>
        <pt x="45" y="492" on="0"/>
        <pt x="74" y="636" on="0"/>
        <pt x="160" y="696" on="0"/>
        <pt x="252" y="696" on="1"/>
        <pt x="283" y="696" on="0"/>
        <pt x="347" y="687" on="0"/>
        <pt x="364" y="680" on="1"/>
        <pt x="364" y="585" on="1"/>
        <pt x="311" y="593" on="0"/>
        <pt x="274" y="593" on="1"/>
        <pt x="217" y="593" on="0"/>
        <pt x="172" y="563" on="0"/>
        <pt x="159" y="467" on="0"/>
        <pt x="159" y="344" on="1"/>
        <pt x="159" y="221" on="0"/>
        <pt x="172" y="125" on="0"/>
        <pt x="217" y="95" on="0"/>
        <pt x="274" y="95" on="1"/>
      </contour>
    </TTGlyph>
    <TTGlyph name="Ccircumflex" xMin="45" yMin="-8" xMax="366" yMax="888">
      <component glyphName="C" x="0" y="0" flags="0x0"/>
      <component glyphName="uni0302.case" x="335" y="0" flags="0x0"/>
    </TTGlyph>
    <TTGlyph name="Cdotaccent" xMin="45" yMin="-8" xMax="366" yMax="875">
      <component glyphName="C" x="0" y="0" flags="0x0"/>
      <component glyphName="uni0307.case" x="255" y="0" flags="0x0"/>
    </TTGlyph>
    <TTGlyph name="D" xMin="59" yMin="0" xMax="450" yMax="688">
      <contour>
        <pt x="59" y="688" on="1"/>
        <pt x="236" y="688" on="1"/>
        <pt x="340" y="688" on="0"/>
        <pt x="427" y="631" on="0"/>
        <pt x="450" y="499" on="0"/>
        <pt x="450" y="344" on="1"/>
        <pt x="450" y="189" on="0"/>
        <pt x="427" y="57" on="0"/>
        <pt x="340" y="0" on="0"/>
        <pt x="236" y="0" on="1"/>
        <pt x="59" y="0" on="1"/>
      </contour>
      <contour>
        <pt x="233" y="103" on="1"/>
        <pt x="286" y="103" on="0"/>
        <pt x="324" y="127" on="0"/>
        <pt x="336" y="218" on="0"/>
        <pt x="336" y="344" on="1"/>
        <pt x="336" y="469" on="0"/>
        <pt x="324" y="561" on="0"/>
        <pt x="286" y="585" on="0"/>
        <pt x="233" y="585" on="1"/>
        <pt x="173" y="585" on="1"/>
        <pt x="173" y="103" on="1"/>
      </contour>
    </TTGlyph>
    <TTGlyph name="Dcaron" xMin="59" yMin="0" xMax="450" yMax="888">
      <component glyphName="D" x="0" y="0" flags="0x0"/>
      <component glyphName="uni030C.case" x="386" y="0" flags="0x0"/>
    </TTGlyph>
    <TTGlyph name="Dcroat" xMin="8" yMin="0" xMax="450" yMax="688">
      <component glyphName="Eth" x="0" y="0" flags="0x0"/>
    </TTGlyph>
    <TTGlyph name="E" xMin="59" yMin="0" xMax="387" yMax="688">
      <contour>
        <pt x="59" y="688" on="1"/>
        <pt x="387" y="688" on="1"/>
        <pt x="387" y="585" on="1"/>
        <pt x="173" y="585" on="1"/>
        <pt x="173" y="399" on="1"/>
        <pt x="358" y="399" on="1"/>
        <pt x="358" y="296" on="1"/>
        <pt x="173" y="296" on="1"/>
        <pt x="173" y="103" on="1"/>
        <pt x="387" y="103" on="1"/>
        <pt x="387" y="0" on="1"/>
        <pt x="59" y="0" on="1"/>
      </contour>
    </TTGlyph>
    <TTGlyph name="Eacute" xMin="59" yMin="0" xMax="387" yMax="894">
      <component glyphName="E" x="0" y="0" flags="0x0"/>
      <component glyphName="acute" x="177" y="151" flags="0x4"/>
    </TTGlyph>
    <TTGlyph name="Ebreve" xMin="59" yMin="0" xMax="387" yMax="888">
      <component glyphName="E" x="0" y="0" flags="0x0"/>
      <component glyphName="uni0306.case" x="353" y="0" flags="0x0"/>
    </TTGlyph>
    <TTGlyph name="Ecaron" xMin="59" yMin="0" xMax="387" yMax="888">
      <component glyphName="E" x="0" y="0" flags="0x0"/>
      <component glyphName="uni030C.case" x="361" y="0" flags="0x0"/>
    </TTGlyph>
    <TTGlyph name="Ecircumflex" xMin="59" yMin="0" xMax="387" yMax="883">
      <component glyphName="E" x="0" y="0" flags="0x0"/>
      <component glyphName="circumflex" x="83" y="140" flags="0x4"/>
    </TTGlyph>
    <TTGlyph name="Edieresis" xMin="59" yMin="0" xMax="387" yMax="875">
      <component glyphName="E" x="0" y="0" flags="0x0"/>
      <component glyphName="dieresis" x="75" y="145" flags="0x4"/>
    </TTGlyph>
    <TTGlyph name="Edotaccent" xMin="59" yMin="0" xMax="387" yMax="875">
      <component glyphName="E" x="0" y="0" flags="0x0"/>
      <component glyphName="uni0307.case" x="280" y="0" flags="0x0"/>
    </TTGlyph>
    <TTGlyph name="Egrave" xMin="59" yMin="0" xMax="387" yMax="894">
      <component glyphName="E" x="0" y="0" flags="0x0"/>
      <component glyphName="grave" x="109" y="151" flags="0x4"/>
    </TTGlyph>
    <TTGlyph name="Emacron" xMin="59" yMin="0" xMax="387" yMax="888">
      <component glyphName="E" x="0" y="0" flags="0x0"/>
      <component glyphName="uni0304.case" x="374" y="0" flags="0x0"/>
    </TTGlyph>
    <TTGlyph name="Eng" xMin="59" yMin="-193" xMax="465" yMax="688">
      <contour>
        <pt x="465" y="688" on="1"/>
        <pt x="465" y="-16" on="1"/>
        <pt x="465" y="-98" on="0"/>
        <pt x="436" y="-171" on="0"/>
        <pt x="367" y="-193" on="0"/>
        <pt x="292" y="-193" on="1"/>
        <pt x="292" y="-107" on="1"/>
        <pt x="321" y="-107" on="0"/>
        <pt x="348" y="-97" on="0"/>
        <pt x="355" y="-77" on="0"/>
        <pt x="355" y="-55" on="1"/>
        <pt x="355" y="10" on="1"/>
        <pt x="173" y="425" on="1"/>
        <pt x="169" y="425" on="1"/>
        <pt x="169" y="0" on="1"/>
        <pt x="59" y="0" on="1"/>
        <pt x="59" y="688" on="1"/>
        <pt x="173" y="688" on="1"/>
        <pt x="351" y="284" on="1"/>
        <pt x="355" y="284" on="1"/>
        <pt x="355" y="688" on="1"/>
      </contour>
    </TTGlyph>
    <TTGlyph name="Eogonek" xMin="59" yMin="-196" xMax="387" yMax="688">
      <contour>
        <pt x="285" y="-196" on="0"/>
        <pt x="239" y="-151" on="0"/>
        <pt x="239" y="-117" on="1"/>
        <pt x="239" y="-59" on="0"/>
        <pt x="302" y="0" on="1"/>
        <pt x="59" y="0" on="1"/>
        <pt x="59" y="688" on="1"/>
        <pt x="387" y="688" on="1"/>
        <pt x="387" y="585" on="1"/>
        <pt x="173" y="585" on="1"/>
        <pt x="173" y="399" on="1"/>
        <pt x="358" y="399" on="1"/>
        <pt x="358" y="296" on="1"/>
        <pt x="173" y="296" on="1"/>
        <pt x="173" y="103" on="1"/>
        <pt x="387" y="103" on="1"/>
        <pt x="387" y="0" on="1"/>
        <pt x="364" y="-16" on="0"/>
        <pt x="326" y="-70" on="0"/>
        <pt x="326" y="-95" on="1"/>
        <pt x="326" y="-111" on="0"/>
        <pt x="346" y="-131" on="0"/>
        <pt x="366" y="-131" on="1"/>
        <pt x="376" y="-131" on="0"/>
        <pt x="381" y="-130" on="1"/>
        <pt x="381" y="-193" on="1"/>
        <pt x="355" y="-196" on="0"/>
        <pt x="336" y="-196" on="1"/>
      </contour>
    </TTGlyph>
    <TTGlyph name="Eth" xMin="8" yMin="0" xMax="450" yMax="688">
      <contour>
        <pt x="59" y="298" on="1"/>
        <pt x="8" y="298" on="1"/>
        <pt x="8" y="398" on="1"/>
        <pt x="59" y="398" on="1"/>
        <pt x="59" y="688" on="1"/>
        <pt x="236" y="688" on="1"/>
        <pt x="340" y="688" on="0"/>
        <pt x="427" y="631" on="0"/>
        <pt x="450" y="499" on="0"/>
        <pt x="450" y="344" on="1"/>
        <pt x="450" y="189" on="0"/>
        <pt x="427" y="57" on="0"/>
        <pt x="340" y="0" on="0"/>
        <pt x="236" y="0" on="1"/>
        <pt x="59" y="0" on="1"/>
      </contour>
      <contour>
        <pt x="286" y="103" on="0"/>
        <pt x="324" y="127" on="0"/>
        <pt x="336" y="218" on="0"/>
        <pt x="336" y="344" on="1"/>
        <pt x="336" y="469" on="0"/>
        <pt x="324" y="561" on="0"/>
        <pt x="286" y="585" on="0"/>
        <pt x="233" y="585" on="1"/>
        <pt x="173" y="585" on="1"/>
        <pt x="173" y="398" on="1"/>
        <pt x="246" y="398" on="1"/>
        <pt x="246" y="298" on="1"/>
        <pt x="173" y="298" on="1"/>
        <pt x="173" y="103" on="1"/>
        <pt x="233" y="103" on="1"/>
      </contour>
    </TTGlyph>
    <TTGlyph name="Euro" xMin="26" yMin="-8" xMax="405" yMax="696">
      <contour>
        <pt x="210" y="-8" on="0"/>
        <pt x="127" y="34" on="0"/>
        <pt x="91" y="137" on="0"/>
        <pt x="86" y="236" on="1"/>
        <pt x="26" y="236" on="1"/>
        <pt x="26" y="301" on="1"/>
        <pt x="84" y="301" on="1"/>
        <pt x="84" y="389" on="1"/>
        <pt x="26" y="389" on="1"/>
        <pt x="26" y="454" on="1"/>
        <pt x="87" y="454" on="1"/>
        <pt x="92" y="550" on="0"/>
        <pt x="129" y="652" on="0"/>
        <pt x="212" y="696" on="0"/>
        <pt x="290" y="696" on="1"/>
        <pt x="322" y="696" on="0"/>
        <pt x="385" y="687" on="0"/>
        <pt x="403" y="680" on="1"/>
        <pt x="403" y="585" on="1"/>
        <pt x="349" y="593" on="0"/>
        <pt x="313" y="593" on="1"/>
        <pt x="267" y="593" on="0"/>
        <pt x="223" y="575" on="0"/>
        <pt x="204" y="517" on="0"/>
        <pt x="201" y="454" on="1"/>
        <pt x="368" y="454" on="1"/>
        <pt x="368" y="389" on="1"/>
        <pt x="200" y="389" on="1"/>
        <pt x="200" y="301" on="1"/>
        <pt x="368" y="301" on="1"/>
        <pt x="368" y="236" on="1"/>
        <pt x="201" y="236" on="1"/>
        <pt x="204" y="172" on="0"/>
        <pt x="223" y="113" on="0"/>
        <pt x="267" y="95" on="0"/>
        <pt x="313" y="95" on="1"/>
        <pt x="363" y="95" on="0"/>
        <pt x="405" y="103" on="1"/>
        <pt x="405" y="7" on="1"/>
        <pt x="383" y="0" on="0"/>
        <pt x="318" y="-8" on="0"/>
        <pt x="290" y="-8" on="1"/>
      </contour>
    </TTGlyph>
    <TTGlyph name="F" xMin="59" yMin="0" xMax="371" yMax="688">
      <contour>
        <pt x="59" y="688" on="1"/>
        <pt x="371" y="688" on="1"/>
        <pt x="371" y="585" on="1"/>
        <pt x="173" y="585" on="1"/>
        <pt x="173" y="383" on="1"/>
        <pt x="349" y="383" on="1"/>
        <pt x="349" y="280" on="1"/>
        <pt x="173" y="280" on="1"/>
        <pt x="173" y="0" on="1"/>
        <pt x="59" y="0" on="1"/>
      </contour>
    </TTGlyph>
    <TTGlyph name="G" xMin="45" yMin="-8" xMax="433" yMax="696">
      <contour>
        <pt x="249" y="289" on="1"/>
        <pt x="249" y="391" on="1"/>
        <pt x="433" y="391" on="1"/>
        <pt x="433" y="12" on="1"/>
        <pt x="401" y="3" on="0"/>
        <pt x="306" y="-8" on="0"/>
        <pt x="263" y="-8" on="1"/>
        <pt x="170" y="-8" on="0"/>
        <pt x="79" y="49" on="0"/>
        <pt x="45" y="195" on="0"/>
        <pt x="45" y="344" on="1"/>
        <pt x="45" y="493" on="0"/>
        <pt x="81" y="639" on="0"/>
        <pt x="175" y="696" on="0"/>
        <pt x="271" y="696" on="1"/>
        <pt x="309" y="696" on="0"/>
        <pt x="399" y="685" on="0"/>
        <pt x="431" y="676" on="1"/>
        <pt x="431" y="580" on="1"/>
        <pt x="399" y="585" on="0"/>
        <pt x="326" y="593" on="0"/>
        <pt x="307" y="593" on="1"/>
        <pt x="235" y="593" on="0"/>
        <pt x="180" y="568" on="0"/>
        <pt x="159" y="469" on="0"/>
        <pt x="159" y="344" on="1"/>
        <pt x="159" y="228" on="0"/>
        <pt x="173" y="128" on="0"/>
        <pt x="215" y="92" on="0"/>
        <pt x="264" y="92" on="1"/>
        <pt x="291" y="92" on="0"/>
        <pt x="323" y="97" on="1"/>
        <pt x="323" y="289" on="1"/>
      </contour>
    </TTGlyph>
    <TTGlyph name="G.ss01" xMin="45" yMin="-8" xMax="454" yMax="696">
      <contour>
        <pt x="165" y="-8" on="0"/>
        <pt x="76" y="49" on="0"/>
        <pt x="45" y="192" on="0"/>
        <pt x="45" y="344" on="1"/>
        <pt x="45" y="492" on="0"/>
        <pt x="82" y="638" on="0"/>
        <pt x="178" y="696" on="0"/>
        <pt x="277" y="696" on="1"/>
        <pt x="314" y="696" on="0"/>
        <pt x="405" y="685" on="0"/>
        <pt x="437" y="676" on="1"/>
        <pt x="437" y="580" on="1"/>
        <pt x="406" y="585" on="0"/>
        <pt x="331" y="593" on="0"/>
        <pt x="309" y="593" on="1"/>
        <pt x="236" y="593" on="0"/>
        <pt x="179" y="566" on="0"/>
        <pt x="159" y="468" on="0"/>
        <pt x="159" y="344" on="1"/>
        <pt x="159" y="223" on="0"/>
        <pt x="173" y="124" on="0"/>
        <pt x="211" y="95" on="0"/>
        <pt x="257" y="95" on="1"/>
        <pt x="299" y="95" on="0"/>
        <pt x="331" y="113" on="0"/>
        <pt x="340" y="175" on="0"/>
        <pt x="340" y="258" on="1"/>
        <pt x="340" y="297" on="1"/>
        <pt x="262" y="297" on="1"/>
        <pt x="262" y="398" on="1"/>
        <pt x="454" y="398" on="1"/>
        <pt x="454" y="278" on="1"/>
        <pt x="454" y="153" on="0"/>
        <pt x="435" y="44" on="0"/>
        <pt x="355" y="-8" on="0"/>
        <pt x="262" y="-8" on="1"/>
      </contour>
    </TTGlyph>
    <TTGlyph name="G_tilde.loclGUA" xMin="45" yMin="-8" xMax="433" yMax="888">
      <component glyphName="G" x="0" y="0" flags="0x0"/>
      <component glyphName="tildecomb.case" x="399" y="0" flags="0x0"/>
    </TTGlyph>
    <TTGlyph name="Gbreve" xMin="45" yMin="-8" xMax="433" yMax="888">
      <component glyphName="G" x="0" y="0" flags="0x0"/>
      <component glyphName="uni0306.case" x="373" y="0" flags="0x0"/>
    </TTGlyph>
    <TTGlyph name="Gbreve.ss01" xMin="45" yMin="-8" xMax="454" yMax="888">
      <component glyphName="G.ss01" x="0" y="0" flags="0x0"/>
      <component glyphName="uni0306.case" x="378" y="0" flags="0x0"/>
    </TTGlyph>
    <TTGlyph name="Gcaron" xMin="45" yMin="-8" xMax="433" yMax="888">
      <component glyphName="G" x="0" y="0" flags="0x0"/>
      <component glyphName="uni030C.case" x="381" y="0" flags="0x0"/>
    </TTGlyph>
    <TTGlyph name="Gcaron.ss01" xMin="45" yMin="-8" xMax="454" yMax="888">
      <component glyphName="G.ss01" x="0" y="0" flags="0x0"/>
      <component glyphName="uni030C.case" x="386" y="0" flags="0x0"/>
    </TTGlyph>
    <TTGlyph name="Gcircumflex" xMin="45" yMin="-8" xMax="433" yMax="888">
      <component glyphName="G" x="0" y="0" flags="0x0"/>
      <component glyphName="uni0302.case" x="380" y="0" flags="0x0"/>
    </TTGlyph>
    <TTGlyph name="Gcircumflex.ss01" xMin="45" yMin="-8" xMax="454" yMax="888">
      <component glyphName="G.ss01" x="0" y="0" flags="0x0"/>
      <component glyphName="uni0302.case" x="385" y="0" flags="0x0"/>
    </TTGlyph>
    <TTGlyph name="Gcommaaccent" xMin="45" yMin="-288" xMax="433" yMax="696">
      <component glyphName="G" x="0" y="0" flags="0x0"/>
      <component glyphName="uni0326" x="354" y="0" flags="0x0"/>
    </TTGlyph>
    <TTGlyph name="Gcommaaccent.ss01" xMin="45" yMin="-288" xMax="454" yMax="696">
      <component glyphName="G.ss01" x="0" y="0" flags="0x0"/>
      <component glyphName="uni0326" x="359" y="0" flags="0x0"/>
    </TTGlyph>
    <TTGlyph name="Gdotaccent" xMin="45" yMin="-8" xMax="433" yMax="875">
      <component glyphName="G" x="0" y="0" flags="0x0"/>
      <component glyphName="uni0307.case" x="300" y="0" flags="0x0"/>
    </TTGlyph>
    <TTGlyph name="Gdotaccent.ss01" xMin="45" yMin="-8" xMax="454" yMax="875">
      <component glyphName="G.ss01" x="0" y="0" flags="0x0"/>
      <component glyphName="uni0307.case" x="305" y="0" flags="0x0"/>
    </TTGlyph>
    <TTGlyph name="Gtilde.loclGUA.ss01" xMin="45" yMin="-8" xMax="454" yMax="888">
      <component glyphName="G.ss01" x="0" y="0" flags="0x0"/>
      <component glyphName="tildecomb.case" x="404" y="0" flags="0x0"/>
    </TTGlyph>
    <TTGlyph name="H" xMin="59" yMin="0" xMax="463" yMax="688">
      <contour>
        <pt x="349" y="293" on="1"/>
        <pt x="173" y="293" on="1"/>
        <pt x="173" y="0" on="1"/>
        <pt x="59" y="0" on="1"/>
        <pt x="59" y="688" on="1"/>
        <pt x="173" y="688" on="1"/>
        <pt x="173" y="400" on="1"/>
        <pt x="349" y="400" on="1"/>
        <pt x="349" y="688" on="1"/>
        <pt x="463" y="688" on="1"/>
        <pt x="463" y="0" on="1"/>
        <pt x="349" y="0" on="1"/>
      </contour>
    </TTGlyph>
    <TTGlyph name="Hbar" xMin="59" yMin="0" xMax="463" yMax="688">
      <contour>
        <pt x="463" y="688" on="1"/>
        <pt x="463" y="0" on="1"/>
        <pt x="349" y="0" on="1"/>
        <pt x="349" y="253" on="1"/>
        <pt x="173" y="253" on="1"/>
        <pt x="173" y="0" on="1"/>
        <pt x="59" y="0" on="1"/>
        <pt x="59" y="688" on="1"/>
        <pt x="173" y="688" on="1"/>
        <pt x="173" y="573" on="1"/>
        <pt x="349" y="573" on="1"/>
        <pt x="349" y="688" on="1"/>
      </contour>
      <contour>
        <pt x="349" y="361" on="1"/>
        <pt x="349" y="473" on="1"/>
        <pt x="173" y="473" on="1"/>
        <pt x="173" y="361" on="1"/>
      </contour>
    </TTGlyph>
    <TTGlyph name="Hcircumflex" xMin="59" yMin="0" xMax="463" yMax="888">
      <component glyphName="H" x="0" y="0" flags="0x0"/>
      <component glyphName="uni0302.case" x="398" y="0" flags="0x0"/>
    </TTGlyph>
    <TTGlyph name="I" xMin="60" yMin="0" xMax="175" yMax="688">
      <contour>
        <pt x="60" y="688" on="1"/>
        <pt x="175" y="688" on="1"/>
        <pt x="175" y="0" on="1"/>
        <pt x="60" y="0" on="1"/>
      </contour>
    </TTGlyph>
    <TTGlyph name="IJ" xMin="60" yMin="0" xMax="460" yMax="688">
      <component glyphName="I" x="0" y="0" flags="0x0"/>
      <component glyphName="J" x="235" y="0" flags="0x0"/>
    </TTGlyph>
    <TTGlyph name="Iacute" xMin="60" yMin="0" xMax="226" yMax="894">
      <component glyphName="I" x="0" y="0" flags="0x0"/>
      <component glyphName="acute" x="57" y="151" flags="0x4"/>
    </TTGlyph>
    <TTGlyph name="Iacute_J.loclNLD" xMin="60" yMin="0" xMax="511" yMax="888">
      <component glyphName="I" x="0" y="0" flags="0x0"/>
      <component glyphName="acutecomb.case" x="232" y="0" flags="0x0"/>
      <component glyphName="J" x="235" y="0" flags="0x0"/>
      <component glyphName="acutecomb.case" x="517" y="0" flags="0x0"/>
    </TTGlyph>
    <TTGlyph name="Ibreve" xMin="-7" yMin="0" xMax="242" yMax="888">
      <component glyphName="I" x="0" y="0" flags="0x0"/>
      <component glyphName="uni0306.case" x="248" y="0" flags="0x0"/>
    </TTGlyph>
    <TTGlyph name="Icircumflex" xMin="-14" yMin="0" xMax="249" yMax="883">
      <component glyphName="I" x="0" y="0" flags="0x0"/>
      <component glyphName="circumflex" x="-20" y="140" flags="0x4"/>
    </TTGlyph>
    <TTGlyph name="Idieresis" xMin="-18" yMin="0" xMax="253" yMax="875">
      <component glyphName="I" x="0" y="0" flags="0x0"/>
      <component glyphName="dieresis" x="-29" y="145" flags="0x4"/>
    </TTGlyph>
    <TTGlyph name="Idotaccent" xMin="60" yMin="0" xMax="175" yMax="875">
      <component glyphName="I" x="0" y="0" flags="0x0"/>
      <component glyphName="uni0307.case" x="175" y="0" flags="0x0"/>
    </TTGlyph>
    <TTGlyph name="Igrave" xMin="11" yMin="0" xMax="175" yMax="894">
      <component glyphName="I" x="0" y="0" flags="0x0"/>
      <component glyphName="grave" x="5" y="151" flags="0x4"/>
    </TTGlyph>
    <TTGlyph name="Imacron" xMin="18" yMin="0" xMax="217" yMax="888">
      <component glyphName="I" x="0" y="0" flags="0x0"/>
      <component glyphName="uni0304.case" x="269" y="0" flags="0x0"/>
    </TTGlyph>
    <TTGlyph name="Iogonek" xMin="34" yMin="-196" xMax="176" yMax="688">
      <contour>
        <pt x="34" y="-196" on="0"/>
        <pt x="34" y="-113" on="1"/>
        <pt x="34" y="-86" on="0"/>
        <pt x="65" y="-26" on="0"/>
        <pt x="90" y="0" on="1"/>
        <pt x="60" y="0" on="1"/>
        <pt x="60" y="688" on="1"/>
        <pt x="175" y="688" on="1"/>
        <pt x="175" y="0" on="1"/>
        <pt x="155" y="-15" on="0"/>
        <pt x="121" y="-69" on="0"/>
        <pt x="121" y="-92" on="1"/>
        <pt x="121" y="-110" on="0"/>
        <pt x="139" y="-131" on="0"/>
        <pt x="162" y="-131" on="1"/>
        <pt x="171" y="-131" on="0"/>
        <pt x="176" y="-130" on="1"/>
        <pt x="176" y="-193" on="1"/>
        <pt x="149" y="-196" on="0"/>
        <pt x="129" y="-196" on="1"/>
      </contour>
    </TTGlyph>
    <TTGlyph name="Itilde" xMin="-33" yMin="0" xMax="268" yMax="888">
      <component glyphName="I" x="0" y="0" flags="0x0"/>
      <component glyphName="tildecomb.case" x="274" y="0" flags="0x0"/>
    </TTGlyph>
    <TTGlyph name="J" xMin="13" yMin="0" xMax="225" yMax="688">
      <contour>
        <pt x="65" y="98" on="0"/>
        <pt x="102" y="114" on="0"/>
        <pt x="111" y="166" on="0"/>
        <pt x="111" y="241" on="1"/>
        <pt x="111" y="688" on="1"/>
        <pt x="225" y="688" on="1"/>
        <pt x="225" y="291" on="1"/>
        <pt x="225" y="141" on="0"/>
        <pt x="203" y="32" on="0"/>
        <pt x="123" y="1" on="0"/>
        <pt x="13" y="0" on="1"/>
        <pt x="13" y="97" on="1"/>
      </contour>
    </TTGlyph>
    <TTGlyph name="Jcircumflex" xMin="13" yMin="0" xMax="299" yMax="888">
      <component glyphName="J" x="0" y="0" flags="0x0"/>
      <component glyphName="uni0302.case" x="305" y="0" flags="0x0"/>
    </TTGlyph>
    <TTGlyph name="K" xMin="59" yMin="0" xMax="474" yMax="688">
      <contour>
        <pt x="226" y="297" on="1"/>
        <pt x="173" y="297" on="1"/>
        <pt x="173" y="0" on="1"/>
        <pt x="59" y="0" on="1"/>
        <pt x="59" y="688" on="1"/>
        <pt x="173" y="688" on="1"/>
        <pt x="173" y="400" on="1"/>
        <pt x="226" y="400" on="1"/>
        <pt x="354" y="688" on="1"/>
        <pt x="471" y="688" on="1"/>
        <pt x="320" y="359" on="1"/>
        <pt x="474" y="0" on="1"/>
        <pt x="350" y="0" on="1"/>
      </contour>
    </TTGlyph>
    <TTGlyph name="Kcommaaccent" xMin="59" yMin="-288" xMax="474" yMax="688">
      <component glyphName="K" x="0" y="0" flags="0x0"/>
      <component glyphName="uni0326" x="354" y="0" flags="0x0"/>
    </TTGlyph>
    <TTGlyph name="L" xMin="59" yMin="0" xMax="363" yMax="688">
      <contour>
        <pt x="59" y="688" on="1"/>
        <pt x="173" y="688" on="1"/>
        <pt x="173" y="106" on="1"/>
        <pt x="363" y="106" on="1"/>
        <pt x="363" y="0" on="1"/>
        <pt x="59" y="0" on="1"/>
      </contour>
    </TTGlyph>
    <TTGlyph name="Lacute" xMin="59" yMin="0" xMax="363" yMax="888">
      <component glyphName="L" x="0" y="0" flags="0x0"/>
      <component glyphName="acutecomb.case" x="230" y="0" flags="0x0"/>
    </TTGlyph>
    <TTGlyph name="Lcaron" xMin="59" yMin="0" xMax="378" yMax="688">
      <component glyphName="L" x="0" y="0" flags="0x0"/>
      <component glyphName="caron.loclCSY" x="227" y="0" flags="0x0"/>
    </TTGlyph>
    <TTGlyph name="Lcommaaccent" xMin="59" yMin="-288" xMax="363" yMax="688">
      <component glyphName="L" x="0" y="0" flags="0x0"/>
      <component glyphName="uni0326" x="312" y="0" flags="0x0"/>
    </TTGlyph>
    <TTGlyph name="Ldot" xMin="59" yMin="0" xMax="382" yMax="688">
      <component glyphName="L" x="0" y="0" flags="0x0"/>
      <component glyphName="periodcentered" x="209" y="54" flags="0x4"/>
    </TTGlyph>
    <TTGlyph name="Lslash" xMin="14" yMin="0" xMax="363" yMax="688">
      <contour>
        <pt x="363" y="106" on="1"/>
        <pt x="363" y="0" on="1"/>
        <pt x="59" y="0" on="1"/>
        <pt x="59" y="266" on="1"/>
        <pt x="14" y="249" on="1"/>
        <pt x="14" y="344" on="1"/>
        <pt x="59" y="361" on="1"/>
        <pt x="59" y="688" on="1"/>
        <pt x="173" y="688" on="1"/>
        <pt x="173" y="404" on="1"/>
        <pt x="290" y="448" on="1"/>
        <pt x="290" y="352" on="1"/>
        <pt x="173" y="308" on="1"/>
        <pt x="173" y="106" on="1"/>
      </contour>
    </TTGlyph>
    <TTGlyph name="M" xMin="59" yMin="0" xMax="631" yMax="688">
      <contour>
        <pt x="520" y="525" on="1"/>
        <pt x="515" y="525" on="1"/>
        <pt x="399" y="0" on="1"/>
        <pt x="288" y="0" on="1"/>
        <pt x="173" y="525" on="1"/>
        <pt x="167" y="525" on="1"/>
        <pt x="167" y="0" on="1"/>
        <pt x="59" y="0" on="1"/>
        <pt x="59" y="688" on="1"/>
        <pt x="234" y="688" on="1"/>
        <pt x="343" y="183" on="1"/>
        <pt x="349" y="183" on="1"/>
        <pt x="458" y="688" on="1"/>
        <pt x="631" y="688" on="1"/>
        <pt x="631" y="0" on="1"/>
        <pt x="520" y="0" on="1"/>
      </contour>
    </TTGlyph>
    <TTGlyph name="N" xMin="59" yMin="0" xMax="465" yMax="688">
      <contour>
        <pt x="173" y="425" on="1"/>
        <pt x="169" y="425" on="1"/>
        <pt x="169" y="0" on="1"/>
        <pt x="59" y="0" on="1"/>
        <pt x="59" y="688" on="1"/>
        <pt x="173" y="688" on="1"/>
        <pt x="351" y="284" on="1"/>
        <pt x="355" y="284" on="1"/>
        <pt x="355" y="688" on="1"/>
        <pt x="465" y="688" on="1"/>
        <pt x="465" y="0" on="1"/>
        <pt x="359" y="0" on="1"/>
      </contour>
    </TTGlyph>
    <TTGlyph name="Nacute" xMin="59" yMin="0" xMax="465" yMax="888">
      <component glyphName="N" x="0" y="0" flags="0x0"/>
      <component glyphName="acutecomb.case" x="376" y="0" flags="0x0"/>
    </TTGlyph>
    <TTGlyph name="Nacute.loclPLK" xMin="59" yMin="0" xMax="465" yMax="888">
      <component glyphName="N" x="0" y="0" flags="0x0"/>
      <component glyphName="acute.case.loclPLK" x="201" y="0" flags="0x0"/>
    </TTGlyph>
    <TTGlyph name="Ncaron" xMin="59" yMin="0" xMax="465" yMax="888">
      <component glyphName="N" x="0" y="0" flags="0x0"/>
      <component glyphName="uni030C.case" x="400" y="0" flags="0x0"/>
    </TTGlyph>
    <TTGlyph name="Ncommaaccent" xMin="59" yMin="-288" xMax="465" yMax="688">
      <component glyphName="N" x="0" y="0" flags="0x0"/>
      <component glyphName="uni0326" x="373" y="0" flags="0x0"/>
    </TTGlyph>
    <TTGlyph name="Ntilde" xMin="59" yMin="0" xMax="465" yMax="885">
      <component glyphName="N" x="0" y="0" flags="0x0"/>
      <component glyphName="tilde" x="106" y="142" flags="0x4"/>
    </TTGlyph>
    <TTGlyph name="O" xMin="45" yMin="-8" xMax="464" yMax="696">
      <contour>
        <pt x="153" y="-8" on="0"/>
        <pt x="67" y="51" on="0"/>
        <pt x="45" y="186" on="0"/>
        <pt x="45" y="344" on="1"/>
        <pt x="45" y="502" on="0"/>
        <pt x="67" y="637" on="0"/>
        <pt x="153" y="696" on="0"/>
        <pt x="254" y="696" on="1"/>
        <pt x="355" y="696" on="0"/>
        <pt x="441" y="637" on="0"/>
        <pt x="464" y="501" on="0"/>
        <pt x="464" y="344" on="1"/>
        <pt x="464" y="187" on="0"/>
        <pt x="441" y="51" on="0"/>
        <pt x="355" y="-8" on="0"/>
        <pt x="254" y="-8" on="1"/>
      </contour>
      <contour>
        <pt x="303" y="95" on="0"/>
        <pt x="339" y="120" on="0"/>
        <pt x="350" y="215" on="0"/>
        <pt x="350" y="344" on="1"/>
        <pt x="350" y="473" on="0"/>
        <pt x="339" y="568" on="0"/>
        <pt x="303" y="593" on="0"/>
        <pt x="254" y="593" on="1"/>
        <pt x="205" y="593" on="0"/>
        <pt x="170" y="568" on="0"/>
        <pt x="159" y="474" on="0"/>
        <pt x="159" y="344" on="1"/>
        <pt x="159" y="214" on="0"/>
        <pt x="170" y="120" on="0"/>
        <pt x="205" y="95" on="0"/>
        <pt x="254" y="95" on="1"/>
      </contour>
    </TTGlyph>
    <TTGlyph name="OE" xMin="44" yMin="0" xMax="684" yMax="688">
      <contour>
        <pt x="153" y="0" on="0"/>
        <pt x="67" y="57" on="0"/>
        <pt x="44" y="190" on="0"/>
        <pt x="44" y="344" on="1"/>
        <pt x="44" y="498" on="0"/>
        <pt x="67" y="630" on="0"/>
        <pt x="153" y="688" on="0"/>
        <pt x="254" y="688" on="1"/>
        <pt x="684" y="688" on="1"/>
        <pt x="684" y="585" on="1"/>
        <pt x="494" y="585" on="1"/>
        <pt x="457" y="585" on="0"/>
        <pt x="438" y="591" on="1"/>
        <pt x="462" y="531" on="0"/>
        <pt x="464" y="398" on="1"/>
        <pt x="655" y="398" on="1"/>
        <pt x="655" y="295" on="1"/>
        <pt x="464" y="295" on="1"/>
        <pt x="463" y="223" on="0"/>
        <pt x="451" y="128" on="0"/>
        <pt x="437" y="96" on="1"/>
        <pt x="467" y="102" on="0"/>
        <pt x="494" y="102" on="1"/>
        <pt x="684" y="102" on="1"/>
        <pt x="684" y="0" on="1"/>
        <pt x="254" y="0" on="1"/>
      </contour>
      <contour>
        <pt x="303" y="102" on="0"/>
        <pt x="338" y="126" on="0"/>
        <pt x="349" y="218" on="0"/>
        <pt x="349" y="344" on="1"/>
        <pt x="349" y="469" on="0"/>
        <pt x="338" y="561" on="0"/>
        <pt x="303" y="585" on="0"/>
        <pt x="254" y="585" on="1"/>
        <pt x="205" y="585" on="0"/>
        <pt x="170" y="561" on="0"/>
        <pt x="159" y="470" on="0"/>
        <pt x="159" y="344" on="1"/>
        <pt x="159" y="218" on="0"/>
        <pt x="170" y="126" on="0"/>
        <pt x="205" y="102" on="0"/>
        <pt x="254" y="102" on="1"/>
      </contour>
    </TTGlyph>
    <TTGlyph name="Oacute" xMin="45" yMin="-8" xMax="464" yMax="894">
      <component glyphName="O" x="0" y="0" flags="0x0"/>
      <component glyphName="acute" x="196" y="151" flags="0x4"/>
    </TTGlyph>
    <TTGlyph name="Oacute.loclPLK" xMin="45" yMin="-8" xMax="464" yMax="888">
      <component glyphName="O" x="0" y="0" flags="0x0"/>
      <component glyphName="acute.case.loclPLK" x="194" y="0" flags="0x0"/>
    </TTGlyph>
    <TTGlyph name="Obreve" xMin="45" yMin="-8" xMax="464" yMax="888">
      <component glyphName="O" x="0" y="0" flags="0x0"/>
      <component glyphName="uni0306.case" x="385" y="0" flags="0x0"/>
    </TTGlyph>
    <TTGlyph name="Ocircumflex" xMin="45" yMin="-8" xMax="464" yMax="883">
      <component glyphName="O" x="0" y="0" flags="0x0"/>
      <component glyphName="circumflex" x="116" y="140" flags="0x4"/>
    </TTGlyph>
    <TTGlyph name="Odieresis" xMin="45" yMin="-8" xMax="464" yMax="875">
      <component glyphName="O" x="0" y="0" flags="0x0"/>
      <component glyphName="dieresis" x="108" y="145" flags="0x4"/>
    </TTGlyph>
    <TTGlyph name="Ograve" xMin="45" yMin="-8" xMax="464" yMax="894">
      <component glyphName="O" x="0" y="0" flags="0x0"/>
      <component glyphName="grave" x="132" y="151" flags="0x4"/>
    </TTGlyph>
    <TTGlyph name="Ohorn" xMin="45" yMin="-8" xMax="528" yMax="785">
      <contour>
        <pt x="528" y="785" on="1"/>
        <pt x="528" y="747" on="1"/>
        <pt x="528" y="706" on="0"/>
        <pt x="514" y="663" on="0"/>
        <pt x="471" y="641" on="0"/>
        <pt x="426" y="639" on="1"/>
        <pt x="451" y="604" on="0"/>
        <pt x="464" y="477" on="0"/>
        <pt x="464" y="344" on="1"/>
        <pt x="464" y="187" on="0"/>
        <pt x="441" y="51" on="0"/>
        <pt x="355" y="-8" on="0"/>
        <pt x="254" y="-8" on="1"/>
        <pt x="153" y="-8" on="0"/>
        <pt x="67" y="51" on="0"/>
        <pt x="45" y="186" on="0"/>
        <pt x="45" y="344" on="1"/>
        <pt x="45" y="502" on="0"/>
        <pt x="67" y="637" on="0"/>
        <pt x="153" y="696" on="0"/>
        <pt x="254" y="696" on="1"/>
        <pt x="313" y="696" on="0"/>
        <pt x="346" y="688" on="1"/>
        <pt x="387" y="688" on="1"/>
        <pt x="430" y="688" on="0"/>
        <pt x="457" y="702" on="0"/>
        <pt x="457" y="724" on="1"/>
        <pt x="457" y="785" on="1"/>
      </contour>
      <contour>
        <pt x="303" y="95" on="0"/>
        <pt x="339" y="120" on="0"/>
        <pt x="350" y="215" on="0"/>
        <pt x="350" y="344" on="1"/>
        <pt x="350" y="473" on="0"/>
        <pt x="339" y="568" on="0"/>
        <pt x="303" y="593" on="0"/>
        <pt x="254" y="593" on="1"/>
        <pt x="205" y="593" on="0"/>
        <pt x="170" y="568" on="0"/>
        <pt x="159" y="474" on="0"/>
        <pt x="159" y="344" on="1"/>
        <pt x="159" y="214" on="0"/>
        <pt x="170" y="120" on="0"/>
        <pt x="205" y="95" on="0"/>
        <pt x="254" y="95" on="1"/>
      </contour>
    </TTGlyph>
    <TTGlyph name="Ohungarumlaut" xMin="45" yMin="-8" xMax="464" yMax="878">
      <component glyphName="O" x="0" y="0" flags="0x0"/>
      <component glyphName="uni030B.case" x="438" y="0" flags="0x0"/>
    </TTGlyph>
    <TTGlyph name="Omacron" xMin="45" yMin="-8" xMax="464" yMax="888">
      <component glyphName="O" x="0" y="0" flags="0x0"/>
      <component glyphName="uni0304.case" x="406" y="0" flags="0x0"/>
    </TTGlyph>
    <TTGlyph name="Oslash" xMin="45" yMin="-55" xMax="464" yMax="743">
      <contour>
        <pt x="423" y="643" on="1"/>
        <pt x="449" y="608" on="0"/>
        <pt x="464" y="477" on="0"/>
        <pt x="464" y="344" on="1"/>
        <pt x="464" y="187" on="0"/>
        <pt x="441" y="51" on="0"/>
        <pt x="355" y="-8" on="0"/>
        <pt x="254" y="-8" on="1"/>
        <pt x="196" y="-8" on="0"/>
        <pt x="164" y="0" on="1"/>
        <pt x="142" y="-55" on="1"/>
        <pt x="45" y="-55" on="1"/>
        <pt x="85" y="45" on="1"/>
        <pt x="59" y="80" on="0"/>
        <pt x="45" y="209" on="0"/>
        <pt x="45" y="344" on="1"/>
        <pt x="45" y="502" on="0"/>
        <pt x="67" y="637" on="0"/>
        <pt x="153" y="696" on="0"/>
        <pt x="254" y="696" on="1"/>
        <pt x="312" y="696" on="0"/>
        <pt x="345" y="688" on="1"/>
        <pt x="367" y="743" on="1"/>
        <pt x="464" y="743" on="1"/>
      </contour>
      <contour>
        <pt x="303" y="95" on="0"/>
        <pt x="339" y="120" on="0"/>
        <pt x="350" y="215" on="0"/>
        <pt x="350" y="344" on="1"/>
        <pt x="350" y="473" on="0"/>
        <pt x="339" y="568" on="0"/>
        <pt x="303" y="593" on="0"/>
        <pt x="254" y="593" on="1"/>
        <pt x="205" y="593" on="0"/>
        <pt x="170" y="568" on="0"/>
        <pt x="159" y="474" on="0"/>
        <pt x="159" y="344" on="1"/>
        <pt x="159" y="214" on="0"/>
        <pt x="170" y="120" on="0"/>
        <pt x="205" y="95" on="0"/>
        <pt x="254" y="95" on="1"/>
      </contour>
    </TTGlyph>
    <TTGlyph name="Oslash.bold" xMin="45" yMin="-55" xMax="464" yMax="743">
      <contour>
        <pt x="423" y="642" on="1"/>
        <pt x="449" y="607" on="0"/>
        <pt x="464" y="477" on="0"/>
        <pt x="464" y="344" on="1"/>
        <pt x="464" y="187" on="0"/>
        <pt x="441" y="51" on="0"/>
        <pt x="355" y="-8" on="0"/>
        <pt x="254" y="-8" on="1"/>
        <pt x="197" y="-8" on="0"/>
        <pt x="164" y="0" on="1"/>
        <pt x="142" y="-55" on="1"/>
        <pt x="45" y="-55" on="1"/>
        <pt x="85" y="45" on="1"/>
        <pt x="59" y="79" on="0"/>
        <pt x="45" y="208" on="0"/>
        <pt x="45" y="344" on="1"/>
        <pt x="45" y="502" on="0"/>
        <pt x="67" y="637" on="0"/>
        <pt x="153" y="696" on="0"/>
        <pt x="254" y="696" on="1"/>
        <pt x="312" y="696" on="0"/>
        <pt x="345" y="688" on="1"/>
        <pt x="367" y="743" on="1"/>
        <pt x="464" y="743" on="1"/>
      </contour>
      <contour>
        <pt x="159" y="261" on="0"/>
        <pt x="160" y="230" on="1"/>
        <pt x="305" y="589" on="1"/>
        <pt x="292" y="593" on="0"/>
        <pt x="254" y="593" on="1"/>
        <pt x="205" y="593" on="0"/>
        <pt x="170" y="568" on="0"/>
        <pt x="159" y="474" on="0"/>
        <pt x="159" y="344" on="1"/>
      </contour>
      <contour>
        <pt x="350" y="427" on="0"/>
        <pt x="349" y="458" on="1"/>
        <pt x="204" y="99" on="1"/>
        <pt x="217" y="95" on="0"/>
        <pt x="254" y="95" on="1"/>
        <pt x="303" y="95" on="0"/>
        <pt x="339" y="120" on="0"/>
        <pt x="350" y="215" on="0"/>
        <pt x="350" y="344" on="1"/>
      </contour>
    </TTGlyph>
    <TTGlyph name="Oslashacute" xMin="45" yMin="-55" xMax="464" yMax="888">
      <component glyphName="Oslash" x="0" y="0" flags="0x0"/>
      <component glyphName="acutecomb.case" x="365" y="0" flags="0x0"/>
    </TTGlyph>
    <TTGlyph name="Otilde" xMin="45" yMin="-8" xMax="464" yMax="885">
      <component glyphName="O" x="0" y="0" flags="0x0"/>
      <component glyphName="tilde" x="99" y="142" flags="0x4"/>
    </TTGlyph>
    <TTGlyph name="P" xMin="59" yMin="0" xMax="444" yMax="688">
      <contour>
        <pt x="59" y="688" on="1"/>
        <pt x="275" y="688" on="1"/>
        <pt x="346" y="688" on="0"/>
        <pt x="419" y="635" on="0"/>
        <pt x="444" y="539" on="0"/>
        <pt x="444" y="460" on="1"/>
        <pt x="444" y="384" on="0"/>
        <pt x="420" y="287" on="0"/>
        <pt x="345" y="231" on="0"/>
        <pt x="273" y="231" on="1"/>
        <pt x="173" y="231" on="1"/>
        <pt x="173" y="0" on="1"/>
        <pt x="59" y="0" on="1"/>
      </contour>
      <contour>
        <pt x="246" y="334" on="1"/>
        <pt x="285" y="334" on="0"/>
        <pt x="319" y="354" on="0"/>
        <pt x="329" y="404" on="0"/>
        <pt x="329" y="460" on="1"/>
        <pt x="329" y="515" on="0"/>
        <pt x="319" y="565" on="0"/>
        <pt x="285" y="585" on="0"/>
        <pt x="247" y="585" on="1"/>
        <pt x="173" y="585" on="1"/>
        <pt x="173" y="334" on="1"/>
      </contour>
    </TTGlyph>
    <TTGlyph name="Q" xMin="45" yMin="-115" xMax="494" yMax="696">
      <contour>
        <pt x="310" y="-5" on="1"/>
        <pt x="285" y="-8" on="0"/>
        <pt x="254" y="-8" on="1"/>
        <pt x="153" y="-8" on="0"/>
        <pt x="67" y="51" on="0"/>
        <pt x="45" y="186" on="0"/>
        <pt x="45" y="344" on="1"/>
        <pt x="45" y="502" on="0"/>
        <pt x="67" y="637" on="0"/>
        <pt x="153" y="696" on="0"/>
        <pt x="254" y="696" on="1"/>
        <pt x="355" y="696" on="0"/>
        <pt x="441" y="637" on="0"/>
        <pt x="464" y="501" on="0"/>
        <pt x="464" y="344" on="1"/>
        <pt x="464" y="246" on="0"/>
        <pt x="457" y="135" on="0"/>
        <pt x="433" y="55" on="0"/>
        <pt x="408" y="32" on="1"/>
        <pt x="494" y="-111" on="1"/>
        <pt x="494" y="-115" on="1"/>
        <pt x="372" y="-115" on="1"/>
      </contour>
      <contour>
        <pt x="303" y="95" on="0"/>
        <pt x="339" y="120" on="0"/>
        <pt x="350" y="215" on="0"/>
        <pt x="350" y="344" on="1"/>
        <pt x="350" y="473" on="0"/>
        <pt x="339" y="568" on="0"/>
        <pt x="303" y="593" on="0"/>
        <pt x="254" y="593" on="1"/>
        <pt x="205" y="593" on="0"/>
        <pt x="170" y="568" on="0"/>
        <pt x="159" y="474" on="0"/>
        <pt x="159" y="344" on="1"/>
        <pt x="159" y="214" on="0"/>
        <pt x="170" y="120" on="0"/>
        <pt x="205" y="95" on="0"/>
        <pt x="254" y="95" on="1"/>
      </contour>
    </TTGlyph>
    <TTGlyph name="Q.bold" xMin="45" yMin="-115" xMax="494" yMax="696">
      <contour>
        <pt x="494" y="-111" on="1"/>
        <pt x="494" y="-115" on="1"/>
        <pt x="372" y="-115" on="1"/>
        <pt x="310" y="-5" on="1"/>
        <pt x="285" y="-8" on="0"/>
        <pt x="254" y="-8" on="1"/>
        <pt x="153" y="-8" on="0"/>
        <pt x="67" y="51" on="0"/>
        <pt x="45" y="186" on="0"/>
        <pt x="45" y="344" on="1"/>
        <pt x="45" y="502" on="0"/>
        <pt x="67" y="637" on="0"/>
        <pt x="153" y="696" on="0"/>
        <pt x="254" y="696" on="1"/>
        <pt x="355" y="696" on="0"/>
        <pt x="441" y="637" on="0"/>
        <pt x="464" y="501" on="0"/>
        <pt x="464" y="344" on="1"/>
        <pt x="464" y="201" on="0"/>
        <pt x="444" y="65" on="0"/>
        <pt x="408" y="32" on="1"/>
      </contour>
      <contour>
        <pt x="185" y="218" on="1"/>
        <pt x="297" y="218" on="1"/>
        <pt x="341" y="145" on="1"/>
        <pt x="347" y="170" on="0"/>
        <pt x="350" y="258" on="0"/>
        <pt x="350" y="344" on="1"/>
        <pt x="350" y="473" on="0"/>
        <pt x="339" y="568" on="0"/>
        <pt x="303" y="593" on="0"/>
        <pt x="254" y="593" on="1"/>
        <pt x="205" y="593" on="0"/>
        <pt x="170" y="568" on="0"/>
        <pt x="159" y="474" on="0"/>
        <pt x="159" y="344" on="1"/>
        <pt x="159" y="214" on="0"/>
        <pt x="170" y="120" on="0"/>
        <pt x="205" y="95" on="0"/>
        <pt x="254" y="95" on="1"/>
      </contour>
    </TTGlyph>
    <TTGlyph name="R" xMin="59" yMin="0" xMax="465" yMax="688">
      <contour>
        <pt x="345" y="0" on="1"/>
        <pt x="271" y="251" on="1"/>
        <pt x="173" y="251" on="1"/>
        <pt x="173" y="0" on="1"/>
        <pt x="59" y="0" on="1"/>
        <pt x="59" y="688" on="1"/>
        <pt x="281" y="688" on="1"/>
        <pt x="353" y="688" on="0"/>
        <pt x="426" y="638" on="0"/>
        <pt x="451" y="546" on="0"/>
        <pt x="451" y="470" on="1"/>
        <pt x="451" y="396" on="0"/>
        <pt x="422" y="298" on="0"/>
        <pt x="378" y="275" on="1"/>
        <pt x="465" y="0" on="1"/>
      </contour>
      <contour>
        <pt x="292" y="354" on="0"/>
        <pt x="326" y="373" on="0"/>
        <pt x="337" y="420" on="0"/>
        <pt x="337" y="470" on="1"/>
        <pt x="337" y="520" on="0"/>
        <pt x="326" y="566" on="0"/>
        <pt x="292" y="585" on="0"/>
        <pt x="254" y="585" on="1"/>
        <pt x="173" y="585" on="1"/>
        <pt x="173" y="354" on="1"/>
        <pt x="254" y="354" on="1"/>
      </contour>
    </TTGlyph>
    <TTGlyph name="R.ss01" xMin="59" yMin="0" xMax="454" yMax="688">
      <contour>
        <pt x="454" y="0" on="1"/>
        <pt x="341" y="0" on="1"/>
        <pt x="331" y="146" on="1"/>
        <pt x="328" y="190" on="0"/>
        <pt x="319" y="230" on="0"/>
        <pt x="287" y="255" on="0"/>
        <pt x="252" y="255" on="1"/>
        <pt x="173" y="255" on="1"/>
        <pt x="173" y="0" on="1"/>
        <pt x="59" y="0" on="1"/>
        <pt x="59" y="688" on="1"/>
        <pt x="288" y="688" on="1"/>
        <pt x="377" y="688" on="0"/>
        <pt x="450" y="596" on="0"/>
        <pt x="450" y="500" on="1"/>
        <pt x="450" y="412" on="0"/>
        <pt x="407" y="334" on="0"/>
        <pt x="360" y="319" on="1"/>
        <pt x="360" y="315" on="1"/>
        <pt x="403" y="302" on="0"/>
        <pt x="441" y="239" on="0"/>
        <pt x="445" y="167" on="1"/>
      </contour>
      <contour>
        <pt x="291" y="356" on="0"/>
        <pt x="323" y="376" on="0"/>
        <pt x="334" y="423" on="0"/>
        <pt x="334" y="470" on="1"/>
        <pt x="334" y="520" on="0"/>
        <pt x="325" y="565" on="0"/>
        <pt x="293" y="585" on="0"/>
        <pt x="257" y="585" on="1"/>
        <pt x="173" y="585" on="1"/>
        <pt x="173" y="356" on="1"/>
        <pt x="256" y="356" on="1"/>
      </contour>
    </TTGlyph>
    <TTGlyph name="Racute" xMin="59" yMin="0" xMax="465" yMax="888">
      <component glyphName="R" x="0" y="0" flags="0x0"/>
      <component glyphName="acutecomb.case" x="359" y="0" flags="0x0"/>
    </TTGlyph>
    <TTGlyph name="Racute.ss01" xMin="59" yMin="0" xMax="454" yMax="888">
      <component glyphName="R.ss01" x="0" y="0" flags="0x0"/>
      <component glyphName="acutecomb.case" x="362" y="0" flags="0x0"/>
    </TTGlyph>
    <TTGlyph name="Rcaron" xMin="59" yMin="0" xMax="465" yMax="888">
      <component glyphName="R" x="0" y="0" flags="0x0"/>
      <component glyphName="uni030C.case" x="383" y="0" flags="0x0"/>
    </TTGlyph>
    <TTGlyph name="Rcaron.ss01" xMin="59" yMin="0" xMax="454" yMax="888">
      <component glyphName="R.ss01" x="0" y="0" flags="0x0"/>
      <component glyphName="uni030C.case" x="386" y="0" flags="0x0"/>
    </TTGlyph>
    <TTGlyph name="Rcommaaccent" xMin="59" yMin="-288" xMax="465" yMax="688">
      <component glyphName="R" x="0" y="0" flags="0x0"/>
      <component glyphName="uni0326" x="356" y="0" flags="0x0"/>
    </TTGlyph>
    <TTGlyph name="Rcommaaccent.ss01" xMin="59" yMin="-288" xMax="454" yMax="688">
      <component glyphName="R.ss01" x="0" y="0" flags="0x0"/>
      <component glyphName="uni0326" x="359" y="0" flags="0x0"/>
    </TTGlyph>
    <TTGlyph name="S" xMin="33" yMin="-8" xMax="408" yMax="696">
      <contour>
        <pt x="180" y="-8" on="0"/>
        <pt x="82" y="0" on="0"/>
        <pt x="46" y="7" on="1"/>
        <pt x="46" y="104" on="1"/>
        <pt x="131" y="95" on="0"/>
        <pt x="189" y="95" on="1"/>
        <pt x="259" y="95" on="0"/>
        <pt x="278" y="117" on="1"/>
        <pt x="288" y="127" on="0"/>
        <pt x="294" y="162" on="0"/>
        <pt x="294" y="192" on="1"/>
        <pt x="294" y="234" on="0"/>
        <pt x="284" y="270" on="0"/>
        <pt x="255" y="287" on="0"/>
        <pt x="219" y="293" on="1"/>
        <pt x="120" y="310" on="1"/>
        <pt x="70" y="318" on="0"/>
        <pt x="33" y="408" on="0"/>
        <pt x="33" y="493" on="1"/>
        <pt x="33" y="573" on="0"/>
        <pt x="79" y="662" on="0"/>
        <pt x="163" y="696" on="0"/>
        <pt x="228" y="696" on="1"/>
        <pt x="270" y="696" on="0"/>
        <pt x="357" y="685" on="0"/>
        <pt x="383" y="678" on="1"/>
        <pt x="383" y="583" on="1"/>
        <pt x="331" y="593" on="0"/>
        <pt x="261" y="593" on="1"/>
        <pt x="221" y="593" on="0"/>
        <pt x="177" y="585" on="0"/>
        <pt x="166" y="575" on="1"/>
        <pt x="154" y="565" on="0"/>
        <pt x="147" y="531" on="0"/>
        <pt x="147" y="497" on="1"/>
        <pt x="147" y="461" on="0"/>
        <pt x="155" y="430" on="0"/>
        <pt x="176" y="416" on="0"/>
        <pt x="201" y="412" on="1"/>
        <pt x="294" y="396" on="1"/>
        <pt x="333" y="390" on="0"/>
        <pt x="382" y="356" on="0"/>
        <pt x="395" y="316" on="1"/>
        <pt x="408" y="275" on="0"/>
        <pt x="408" y="207" on="1"/>
        <pt x="408" y="118" on="0"/>
        <pt x="366" y="25" on="0"/>
        <pt x="287" y="-8" on="0"/>
        <pt x="221" y="-8" on="1"/>
      </contour>
    </TTGlyph>
    <TTGlyph name="Sacute" xMin="33" yMin="-8" xMax="408" yMax="888">
      <component glyphName="S" x="0" y="0" flags="0x0"/>
      <component glyphName="acutecomb.case" x="335" y="0" flags="0x0"/>
    </TTGlyph>
    <TTGlyph name="Sacute.loclPLK" xMin="33" yMin="-8" xMax="408" yMax="888">
      <component glyphName="S" x="0" y="0" flags="0x0"/>
      <component glyphName="acute.case.loclPLK" x="160" y="0" flags="0x0"/>
    </TTGlyph>
    <TTGlyph name="Scaron" xMin="33" yMin="-8" xMax="408" yMax="883">
      <component glyphName="S" x="0" y="0" flags="0x0"/>
      <component glyphName="caron" x="89" y="140" flags="0x4"/>
    </TTGlyph>
    <TTGlyph name="Scedilla" xMin="33" yMin="-190" xMax="408" yMax="696">
      <contour>
        <pt x="408" y="128" on="0"/>
        <pt x="374" y="37" on="0"/>
        <pt x="310" y="-3" on="0"/>
        <pt x="258" y="-7" on="1"/>
        <pt x="223" y="-190" on="1"/>
        <pt x="125" y="-190" on="1"/>
        <pt x="125" y="-185" on="1"/>
        <pt x="183" y="-7" on="1"/>
        <pt x="104" y="-4" on="0"/>
        <pt x="46" y="7" on="1"/>
        <pt x="46" y="104" on="1"/>
        <pt x="131" y="95" on="0"/>
        <pt x="189" y="95" on="1"/>
        <pt x="259" y="95" on="0"/>
        <pt x="278" y="117" on="1"/>
        <pt x="288" y="127" on="0"/>
        <pt x="294" y="162" on="0"/>
        <pt x="294" y="192" on="1"/>
        <pt x="294" y="234" on="0"/>
        <pt x="284" y="270" on="0"/>
        <pt x="255" y="287" on="0"/>
        <pt x="219" y="293" on="1"/>
        <pt x="120" y="310" on="1"/>
        <pt x="70" y="318" on="0"/>
        <pt x="33" y="408" on="0"/>
        <pt x="33" y="493" on="1"/>
        <pt x="33" y="573" on="0"/>
        <pt x="79" y="662" on="0"/>
        <pt x="163" y="696" on="0"/>
        <pt x="228" y="696" on="1"/>
        <pt x="270" y="696" on="0"/>
        <pt x="357" y="685" on="0"/>
        <pt x="383" y="678" on="1"/>
        <pt x="383" y="583" on="1"/>
        <pt x="331" y="593" on="0"/>
        <pt x="261" y="593" on="1"/>
        <pt x="221" y="593" on="0"/>
        <pt x="177" y="585" on="0"/>
        <pt x="166" y="575" on="1"/>
        <pt x="154" y="565" on="0"/>
        <pt x="147" y="531" on="0"/>
        <pt x="147" y="497" on="1"/>
        <pt x="147" y="461" on="0"/>
        <pt x="155" y="430" on="0"/>
        <pt x="176" y="416" on="0"/>
        <pt x="201" y="412" on="1"/>
        <pt x="294" y="396" on="1"/>
        <pt x="333" y="390" on="0"/>
        <pt x="382" y="356" on="0"/>
        <pt x="395" y="316" on="1"/>
        <pt x="408" y="275" on="0"/>
        <pt x="408" y="207" on="1"/>
      </contour>
    </TTGlyph>
    <TTGlyph name="Scircumflex" xMin="33" yMin="-8" xMax="408" yMax="888">
      <component glyphName="S" x="0" y="0" flags="0x0"/>
      <component glyphName="uni0302.case" x="358" y="0" flags="0x0"/>
    </TTGlyph>
    <TTGlyph name="Scommaaccent" xMin="33" yMin="-288" xMax="408" yMax="696">
      <component glyphName="S" x="0" y="0" flags="0x0"/>
      <component glyphName="uni0326" x="332" y="0" flags="0x0"/>
    </TTGlyph>
    <TTGlyph name="T" xMin="12" yMin="0" xMax="401" yMax="688">
      <contour>
        <pt x="150" y="582" on="1"/>
        <pt x="12" y="582" on="1"/>
        <pt x="12" y="688" on="1"/>
        <pt x="401" y="688" on="1"/>
        <pt x="401" y="582" on="1"/>
        <pt x="264" y="582" on="1"/>
        <pt x="264" y="0" on="1"/>
        <pt x="150" y="0" on="1"/>
      </contour>
    </TTGlyph>
    <TTGlyph name="Tbar" xMin="12" yMin="0" xMax="401" yMax="688">
      <contour>
        <pt x="264" y="582" on="1"/>
        <pt x="264" y="390" on="1"/>
        <pt x="383" y="390" on="1"/>
        <pt x="383" y="297" on="1"/>
        <pt x="264" y="297" on="1"/>
        <pt x="264" y="0" on="1"/>
        <pt x="150" y="0" on="1"/>
        <pt x="150" y="297" on="1"/>
        <pt x="30" y="297" on="1"/>
        <pt x="30" y="390" on="1"/>
        <pt x="150" y="390" on="1"/>
        <pt x="150" y="582" on="1"/>
        <pt x="12" y="582" on="1"/>
        <pt x="12" y="688" on="1"/>
        <pt x="401" y="688" on="1"/>
        <pt x="401" y="582" on="1"/>
      </contour>
    </TTGlyph>
    <TTGlyph name="Tcaron" xMin="12" yMin="0" xMax="401" yMax="888">
      <component glyphName="T" x="0" y="0" flags="0x0"/>
      <component glyphName="uni030C.case" x="345" y="0" flags="0x0"/>
    </TTGlyph>
    <TTGlyph name="Thorn" xMin="59" yMin="0" xMax="444" yMax="688">
      <contour>
        <pt x="59" y="688" on="1"/>
        <pt x="173" y="688" on="1"/>
        <pt x="173" y="579" on="1"/>
        <pt x="275" y="579" on="1"/>
        <pt x="346" y="579" on="0"/>
        <pt x="420" y="526" on="0"/>
        <pt x="444" y="430" on="0"/>
        <pt x="444" y="351" on="1"/>
        <pt x="444" y="275" on="0"/>
        <pt x="420" y="179" on="0"/>
        <pt x="346" y="122" on="0"/>
        <pt x="274" y="122" on="1"/>
        <pt x="173" y="122" on="1"/>
        <pt x="173" y="0" on="1"/>
        <pt x="59" y="0" on="1"/>
      </contour>
      <contour>
        <pt x="246" y="225" on="1"/>
        <pt x="284" y="225" on="0"/>
        <pt x="319" y="246" on="0"/>
        <pt x="329" y="296" on="0"/>
        <pt x="329" y="351" on="1"/>
        <pt x="329" y="407" on="0"/>
        <pt x="319" y="456" on="0"/>
        <pt x="286" y="476" on="0"/>
        <pt x="247" y="476" on="1"/>
        <pt x="173" y="476" on="1"/>
        <pt x="173" y="225" on="1"/>
      </contour>
    </TTGlyph>
    <TTGlyph name="U" xMin="55" yMin="-8" xMax="454" yMax="688">
      <contour>
        <pt x="454" y="688" on="1"/>
        <pt x="454" y="303" on="1"/>
        <pt x="454" y="168" on="0"/>
        <pt x="430" y="45" on="0"/>
        <pt x="348" y="-8" on="0"/>
        <pt x="254" y="-8" on="1"/>
        <pt x="160" y="-8" on="0"/>
        <pt x="78" y="45" on="0"/>
        <pt x="55" y="168" on="0"/>
        <pt x="55" y="303" on="1"/>
        <pt x="55" y="688" on="1"/>
        <pt x="169" y="688" on="1"/>
        <pt x="169" y="260" on="1"/>
        <pt x="169" y="180" on="0"/>
        <pt x="178" y="117" on="0"/>
        <pt x="212" y="95" on="0"/>
        <pt x="254" y="95" on="1"/>
        <pt x="297" y="95" on="0"/>
        <pt x="331" y="117" on="0"/>
        <pt x="340" y="180" on="0"/>
        <pt x="340" y="260" on="1"/>
        <pt x="340" y="688" on="1"/>
      </contour>
    </TTGlyph>
    <TTGlyph name="Uacute" xMin="55" yMin="-8" xMax="454" yMax="894">
      <component glyphName="U" x="0" y="0" flags="0x0"/>
      <component glyphName="acute" x="202" y="151" flags="0x4"/>
    </TTGlyph>
    <TTGlyph name="Ubreve" xMin="55" yMin="-8" xMax="454" yMax="888">
      <component glyphName="U" x="0" y="0" flags="0x0"/>
      <component glyphName="uni0306.case" x="384" y="0" flags="0x0"/>
    </TTGlyph>
    <TTGlyph name="Ucircumflex" xMin="55" yMin="-8" xMax="454" yMax="883">
      <component glyphName="U" x="0" y="0" flags="0x0"/>
      <component glyphName="circumflex" x="117" y="140" flags="0x4"/>
    </TTGlyph>
    <TTGlyph name="Udieresis" xMin="55" yMin="-8" xMax="454" yMax="875">
      <component glyphName="U" x="0" y="0" flags="0x0"/>
      <component glyphName="dieresis" x="107" y="145" flags="0x4"/>
    </TTGlyph>
    <TTGlyph name="Ugrave" xMin="55" yMin="-8" xMax="454" yMax="894">
      <component glyphName="U" x="0" y="0" flags="0x0"/>
      <component glyphName="grave" x="136" y="151" flags="0x4"/>
    </TTGlyph>
    <TTGlyph name="Uhorn" xMin="55" yMin="-8" xMax="539" yMax="785">
      <contour>
        <pt x="539" y="785" on="1"/>
        <pt x="539" y="747" on="1"/>
        <pt x="539" y="708" on="0"/>
        <pt x="527" y="667" on="0"/>
        <pt x="491" y="644" on="0"/>
        <pt x="454" y="640" on="1"/>
        <pt x="454" y="303" on="1"/>
        <pt x="454" y="168" on="0"/>
        <pt x="430" y="45" on="0"/>
        <pt x="348" y="-8" on="0"/>
        <pt x="254" y="-8" on="1"/>
        <pt x="160" y="-8" on="0"/>
        <pt x="78" y="45" on="0"/>
        <pt x="55" y="168" on="0"/>
        <pt x="55" y="303" on="1"/>
        <pt x="55" y="688" on="1"/>
        <pt x="169" y="688" on="1"/>
        <pt x="169" y="260" on="1"/>
        <pt x="169" y="180" on="0"/>
        <pt x="178" y="117" on="0"/>
        <pt x="212" y="95" on="0"/>
        <pt x="254" y="95" on="1"/>
        <pt x="297" y="95" on="0"/>
        <pt x="331" y="117" on="0"/>
        <pt x="340" y="180" on="0"/>
        <pt x="340" y="260" on="1"/>
        <pt x="340" y="688" on="1"/>
        <pt x="398" y="688" on="1"/>
        <pt x="441" y="688" on="0"/>
        <pt x="468" y="702" on="0"/>
        <pt x="468" y="724" on="1"/>
        <pt x="468" y="785" on="1"/>
      </contour>
    </TTGlyph>
    <TTGlyph name="Uhungarumlaut" xMin="55" yMin="-8" xMax="454" yMax="878">
      <component glyphName="U" x="0" y="0" flags="0x0"/>
      <component glyphName="uni030B.case" x="437" y="0" flags="0x0"/>
    </TTGlyph>
    <TTGlyph name="Umacron" xMin="55" yMin="-8" xMax="454" yMax="888">
      <component glyphName="U" x="0" y="0" flags="0x0"/>
      <component glyphName="uni0304.case" x="405" y="0" flags="0x0"/>
    </TTGlyph>
    <TTGlyph name="Uogonek" xMin="55" yMin="-196" xMax="454" yMax="688">
      <contour>
        <pt x="454" y="688" on="1"/>
        <pt x="454" y="303" on="1"/>
        <pt x="454" y="213" on="0"/>
        <pt x="446" y="111" on="0"/>
        <pt x="421" y="41" on="0"/>
        <pt x="394" y="22" on="1"/>
        <pt x="356" y="-6" on="0"/>
        <pt x="317" y="-61" on="0"/>
        <pt x="317" y="-92" on="1"/>
        <pt x="317" y="-131" on="0"/>
        <pt x="359" y="-131" on="1"/>
        <pt x="370" y="-131" on="0"/>
        <pt x="372" y="-130" on="1"/>
        <pt x="372" y="-193" on="1"/>
        <pt x="346" y="-196" on="0"/>
        <pt x="326" y="-196" on="1"/>
        <pt x="275" y="-196" on="0"/>
        <pt x="230" y="-150" on="0"/>
        <pt x="230" y="-113" on="1"/>
        <pt x="230" y="-64" on="0"/>
        <pt x="280" y="-7" on="1"/>
        <pt x="271" y="-8" on="0"/>
        <pt x="254" y="-8" on="1"/>
        <pt x="160" y="-8" on="0"/>
        <pt x="78" y="45" on="0"/>
        <pt x="55" y="168" on="0"/>
        <pt x="55" y="303" on="1"/>
        <pt x="55" y="688" on="1"/>
        <pt x="169" y="688" on="1"/>
        <pt x="169" y="260" on="1"/>
        <pt x="169" y="180" on="0"/>
        <pt x="178" y="117" on="0"/>
        <pt x="212" y="95" on="0"/>
        <pt x="254" y="95" on="1"/>
        <pt x="297" y="95" on="0"/>
        <pt x="331" y="117" on="0"/>
        <pt x="340" y="180" on="0"/>
        <pt x="340" y="260" on="1"/>
        <pt x="340" y="688" on="1"/>
      </contour>
    </TTGlyph>
    <TTGlyph name="Uring" xMin="55" yMin="-8" xMax="454" yMax="935">
      <component glyphName="U" x="0" y="0" flags="0x0"/>
      <component glyphName="uni030A.case" x="379" y="0" flags="0x0"/>
    </TTGlyph>
    <TTGlyph name="Utilde" xMin="55" yMin="-8" xMax="454" yMax="888">
      <component glyphName="U" x="0" y="0" flags="0x0"/>
      <component glyphName="tildecomb.case" x="410" y="0" flags="0x0"/>
    </TTGlyph>
    <TTGlyph name="V" xMin="11" yMin="0" xMax="464" yMax="688">
      <contour>
        <pt x="11" y="688" on="1"/>
        <pt x="128" y="688" on="1"/>
        <pt x="236" y="126" on="1"/>
        <pt x="243" y="126" on="1"/>
        <pt x="350" y="688" on="1"/>
        <pt x="464" y="688" on="1"/>
        <pt x="320" y="0" on="1"/>
        <pt x="155" y="0" on="1"/>
      </contour>
    </TTGlyph>
    <TTGlyph name="W" xMin="18" yMin="0" xMax="718" yMax="688">
      <contour>
        <pt x="371" y="509" on="1"/>
        <pt x="365" y="509" on="1"/>
        <pt x="283" y="0" on="1"/>
        <pt x="127" y="0" on="1"/>
        <pt x="18" y="688" on="1"/>
        <pt x="135" y="688" on="1"/>
        <pt x="207" y="133" on="1"/>
        <pt x="214" y="133" on="1"/>
        <pt x="302" y="688" on="1"/>
        <pt x="439" y="688" on="1"/>
        <pt x="528" y="133" on="1"/>
        <pt x="534" y="133" on="1"/>
        <pt x="605" y="688" on="1"/>
        <pt x="718" y="688" on="1"/>
        <pt x="609" y="0" on="1"/>
        <pt x="453" y="0" on="1"/>
      </contour>
    </TTGlyph>
    <TTGlyph name="Wacute" xMin="18" yMin="0" xMax="718" yMax="888">
      <component glyphName="W" x="0" y="0" flags="0x0"/>
      <component glyphName="acutecomb.case" x="483" y="0" flags="0x0"/>
    </TTGlyph>
    <TTGlyph name="Wcircumflex" xMin="18" yMin="0" xMax="718" yMax="888">
      <component glyphName="W" x="0" y="0" flags="0x0"/>
      <component glyphName="uni0302.case" x="506" y="0" flags="0x0"/>
    </TTGlyph>
    <TTGlyph name="Wdieresis" xMin="18" yMin="0" xMax="718" yMax="875">
      <component glyphName="W" x="0" y="0" flags="0x0"/>
      <component glyphName="uni0308.case" x="514" y="0" flags="0x0"/>
    </TTGlyph>
    <TTGlyph name="Wgrave" xMin="18" yMin="0" xMax="718" yMax="888">
      <component glyphName="W" x="0" y="0" flags="0x0"/>
      <component glyphName="gravecomb.case" x="425" y="0" flags="0x0"/>
    </TTGlyph>
    <TTGlyph name="X" xMin="14" yMin="0" xMax="480" yMax="688">
      <contour>
        <pt x="248" y="259" on="1"/>
        <pt x="241" y="259" on="1"/>
        <pt x="136" y="0" on="1"/>
        <pt x="14" y="0" on="1"/>
        <pt x="170" y="346" on="1"/>
        <pt x="16" y="688" on="1"/>
        <pt x="141" y="688" on="1"/>
        <pt x="245" y="437" on="1"/>
        <pt x="252" y="437" on="1"/>
        <pt x="357" y="688" on="1"/>
        <pt x="477" y="688" on="1"/>
        <pt x="326" y="349" on="1"/>
        <pt x="480" y="0" on="1"/>
        <pt x="355" y="0" on="1"/>
      </contour>
    </TTGlyph>
    <TTGlyph name="Y" xMin="2" yMin="0" xMax="450" yMax="688">
      <contour>
        <pt x="169" y="244" on="1"/>
        <pt x="2" y="688" on="1"/>
        <pt x="119" y="688" on="1"/>
        <pt x="225" y="383" on="1"/>
        <pt x="233" y="383" on="1"/>
        <pt x="337" y="688" on="1"/>
        <pt x="450" y="688" on="1"/>
        <pt x="283" y="244" on="1"/>
        <pt x="283" y="0" on="1"/>
        <pt x="169" y="0" on="1"/>
      </contour>
    </TTGlyph>
    <TTGlyph name="Y.loclGUA" xMin="28" yMin="0" xMax="428" yMax="688">
      <contour>
        <pt x="428" y="688" on="1"/>
        <pt x="428" y="503" on="1"/>
        <pt x="428" y="382" on="0"/>
        <pt x="411" y="263" on="0"/>
        <pt x="350" y="202" on="0"/>
        <pt x="283" y="195" on="1"/>
        <pt x="283" y="0" on="1"/>
        <pt x="169" y="0" on="1"/>
        <pt x="169" y="195" on="1"/>
        <pt x="104" y="203" on="0"/>
        <pt x="45" y="265" on="0"/>
        <pt x="28" y="383" on="0"/>
        <pt x="28" y="503" on="1"/>
        <pt x="28" y="688" on="1"/>
        <pt x="142" y="688" on="1"/>
        <pt x="142" y="461" on="1"/>
        <pt x="142" y="381" on="0"/>
        <pt x="152" y="317" on="0"/>
        <pt x="186" y="295" on="0"/>
        <pt x="228" y="295" on="1"/>
        <pt x="271" y="295" on="0"/>
        <pt x="305" y="317" on="0"/>
        <pt x="314" y="381" on="0"/>
        <pt x="314" y="461" on="1"/>
        <pt x="314" y="688" on="1"/>
      </contour>
    </TTGlyph>
    <TTGlyph name="Yacute" xMin="2" yMin="0" xMax="450" yMax="894">
      <component glyphName="Y" x="0" y="0" flags="0x0"/>
      <component glyphName="acute" x="176" y="151" flags="0x4"/>
    </TTGlyph>
    <TTGlyph name="Yacute.loclGUA" xMin="28" yMin="0" xMax="428" yMax="888">
      <component glyphName="Y.loclGUA" x="0" y="0" flags="0x0"/>
      <component glyphName="acutecomb.case" x="342" y="0" flags="0x0"/>
    </TTGlyph>
    <TTGlyph name="Ycircumflex" xMin="2" yMin="0" xMax="450" yMax="888">
      <component glyphName="Y" x="0" y="0" flags="0x0"/>
      <component glyphName="uni0302.case" x="363" y="0" flags="0x0"/>
    </TTGlyph>
    <TTGlyph name="Ycircumflex.loclGUA" xMin="28" yMin="0" xMax="428" yMax="888">
      <component glyphName="Y.loclGUA" x="0" y="0" flags="0x0"/>
      <component glyphName="uni0302.case" x="365" y="0" flags="0x0"/>
    </TTGlyph>
    <TTGlyph name="Ydieresis" xMin="2" yMin="0" xMax="450" yMax="875">
      <component glyphName="Y" x="0" y="0" flags="0x0"/>
      <component glyphName="dieresis" x="83" y="145" flags="0x4"/>
    </TTGlyph>
    <TTGlyph name="Ydieresis.loclGUA" xMin="28" yMin="0" xMax="428" yMax="875">
      <component glyphName="Y.loclGUA" x="0" y="0" flags="0x0"/>
      <component glyphName="uni0308.case" x="373" y="0" flags="0x0"/>
    </TTGlyph>
    <TTGlyph name="Ygrave" xMin="2" yMin="0" xMax="450" yMax="888">
      <component glyphName="Y" x="0" y="0" flags="0x0"/>
      <component glyphName="gravecomb.case" x="282" y="0" flags="0x0"/>
    </TTGlyph>
    <TTGlyph name="Ygrave.loclGUA" xMin="28" yMin="0" xMax="428" yMax="888">
      <component glyphName="Y.loclGUA" x="0" y="0" flags="0x0"/>
      <component glyphName="gravecomb.case" x="284" y="0" flags="0x0"/>
    </TTGlyph>
    <TTGlyph name="Z" xMin="30" yMin="0" xMax="402" yMax="688">
      <contour>
        <pt x="30" y="97" on="1"/>
        <pt x="270" y="585" on="1"/>
        <pt x="38" y="585" on="1"/>
        <pt x="38" y="688" on="1"/>
        <pt x="400" y="688" on="1"/>
        <pt x="400" y="591" on="1"/>
        <pt x="159" y="102" on="1"/>
        <pt x="402" y="102" on="1"/>
        <pt x="402" y="0" on="1"/>
        <pt x="30" y="0" on="1"/>
      </contour>
    </TTGlyph>
    <TTGlyph name="Zacute" xMin="30" yMin="0" xMax="402" yMax="888">
      <component glyphName="Z" x="0" y="0" flags="0x0"/>
      <component glyphName="acutecomb.case" x="330" y="0" flags="0x0"/>
    </TTGlyph>
    <TTGlyph name="Zacute.loclPLK" xMin="30" yMin="0" xMax="402" yMax="888">
      <component glyphName="Z" x="0" y="0" flags="0x0"/>
      <component glyphName="acute.case.loclPLK" x="155" y="0" flags="0x0"/>
    </TTGlyph>
    <TTGlyph name="Zcaron" xMin="30" yMin="0" xMax="402" yMax="883">
      <component glyphName="Z" x="0" y="0" flags="0x0"/>
      <component glyphName="caron" x="89" y="140" flags="0x4"/>
    </TTGlyph>
    <TTGlyph name="Zdotaccent" xMin="30" yMin="0" xMax="402" yMax="875">
      <component glyphName="Z" x="0" y="0" flags="0x0"/>
      <component glyphName="uni0307.case" x="273" y="0" flags="0x0"/>
    </TTGlyph>
    <TTGlyph name="a" xMin="29" yMin="-8" xMax="371" yMax="518">
      <contour>
        <pt x="84" y="-8" on="0"/>
        <pt x="29" y="64" on="0"/>
        <pt x="29" y="144" on="1"/>
        <pt x="29" y="203" on="0"/>
        <pt x="53" y="271" on="0"/>
        <pt x="108" y="301" on="0"/>
        <pt x="157" y="301" on="1"/>
        <pt x="195" y="301" on="0"/>
        <pt x="263" y="297" on="1"/>
        <pt x="263" y="322" on="1"/>
        <pt x="263" y="371" on="0"/>
        <pt x="248" y="413" on="0"/>
        <pt x="211" y="425" on="0"/>
        <pt x="168" y="425" on="1"/>
        <pt x="125" y="425" on="0"/>
        <pt x="53" y="417" on="1"/>
        <pt x="53" y="502" on="1"/>
        <pt x="123" y="518" on="0"/>
        <pt x="199" y="518" on="1"/>
        <pt x="271" y="518" on="0"/>
        <pt x="344" y="480" on="0"/>
        <pt x="371" y="395" on="0"/>
        <pt x="371" y="316" on="1"/>
        <pt x="371" y="0" on="1"/>
        <pt x="271" y="0" on="1"/>
        <pt x="267" y="63" on="1"/>
        <pt x="261" y="63" on="1"/>
        <pt x="237" y="-8" on="0"/>
        <pt x="147" y="-8" on="1"/>
      </contour>
      <contour>
        <pt x="213" y="90" on="0"/>
        <pt x="239" y="98" on="0"/>
        <pt x="249" y="110" on="1"/>
        <pt x="263" y="129" on="0"/>
        <pt x="263" y="194" on="1"/>
        <pt x="263" y="221" on="1"/>
        <pt x="188" y="221" on="1"/>
        <pt x="166" y="221" on="0"/>
        <pt x="145" y="211" on="0"/>
        <pt x="136" y="183" on="0"/>
        <pt x="136" y="154" on="1"/>
        <pt x="136" y="115" on="0"/>
        <pt x="158" y="90" on="0"/>
        <pt x="194" y="90" on="1"/>
      </contour>
    </TTGlyph>
    <TTGlyph name="aacute" xMin="29" yMin="-8" xMax="371" yMax="743">
      <component glyphName="a" x="0" y="0" flags="0x0"/>
      <component glyphName="acute" x="154" y="0" flags="0x0"/>
    </TTGlyph>
    <TTGlyph name="abreve" xMin="29" yMin="-8" xMax="371" yMax="743">
      <component glyphName="a" x="0" y="0" flags="0x0"/>
      <component glyphName="uni0306" x="342" y="0" flags="0x0"/>
    </TTGlyph>
    <TTGlyph name="acircumflex" xMin="29" yMin="-8" xMax="371" yMax="743">
      <component glyphName="a" x="0" y="0" flags="0x0"/>
      <component glyphName="circumflex" x="73" y="0" flags="0x0"/>
    </TTGlyph>
    <TTGlyph name="acute" xMin="6" yMin="599" xMax="169" yMax="743">
      <contour>
        <pt x="6" y="604" on="1"/>
        <pt x="59" y="743" on="1"/>
        <pt x="169" y="743" on="1"/>
        <pt x="169" y="738" on="1"/>
        <pt x="92" y="599" on="1"/>
        <pt x="6" y="599" on="1"/>
      </contour>
    </TTGlyph>
    <TTGlyph name="acute.case.loclPLK" xMin="6" yMin="744" xMax="140" yMax="888">
      <contour>
        <pt x="6" y="749" on="1"/>
        <pt x="30" y="888" on="1"/>
        <pt x="140" y="888" on="1"/>
        <pt x="140" y="883" on="1"/>
        <pt x="92" y="744" on="1"/>
        <pt x="6" y="744" on="1"/>
      </contour>
    </TTGlyph>
    <TTGlyph name="acute.loclPLK" xMin="6" yMin="599" xMax="140" yMax="743">
      <contour>
        <pt x="6" y="604" on="1"/>
        <pt x="30" y="743" on="1"/>
        <pt x="140" y="743" on="1"/>
        <pt x="140" y="738" on="1"/>
        <pt x="92" y="599" on="1"/>
        <pt x="6" y="599" on="1"/>
      </contour>
    </TTGlyph>
    <TTGlyph name="acutecomb" xMin="-169" yMin="599" xMax="-6" yMax="743">
      <contour>
        <pt x="-169" y="604" on="1"/>
        <pt x="-116" y="743" on="1"/>
        <pt x="-6" y="743" on="1"/>
        <pt x="-6" y="738" on="1"/>
        <pt x="-83" y="599" on="1"/>
        <pt x="-169" y="599" on="1"/>
      </contour>
    </TTGlyph>
    <TTGlyph name="acutecomb.case" xMin="-169" yMin="744" xMax="-6" yMax="888">
      <contour>
        <pt x="-169" y="749" on="1"/>
        <pt x="-116" y="888" on="1"/>
        <pt x="-6" y="888" on="1"/>
        <pt x="-6" y="883" on="1"/>
        <pt x="-83" y="744" on="1"/>
        <pt x="-169" y="744" on="1"/>
      </contour>
    </TTGlyph>
    <TTGlyph name="adieresis" xMin="29" yMin="-8" xMax="371" yMax="722">
      <component glyphName="a" x="0" y="0" flags="0x0"/>
      <component glyphName="dieresis" x="65" y="-8" flags="0x4"/>
    </TTGlyph>
    <TTGlyph name="ae" xMin="29" yMin="-8" xMax="608" yMax="518">
      <contour>
        <pt x="608" y="218" on="1"/>
        <pt x="370" y="218" on="1"/>
        <pt x="370" y="154" on="0"/>
        <pt x="382" y="103" on="0"/>
        <pt x="422" y="85" on="0"/>
        <pt x="472" y="85" on="1"/>
        <pt x="520" y="85" on="0"/>
        <pt x="595" y="93" on="1"/>
        <pt x="595" y="7" on="1"/>
        <pt x="569" y="0" on="0"/>
        <pt x="488" y="-8" on="0"/>
        <pt x="450" y="-8" on="1"/>
        <pt x="395" y="-8" on="0"/>
        <pt x="329" y="15" on="0"/>
        <pt x="310" y="41" on="1"/>
        <pt x="286" y="13" on="0"/>
        <pt x="214" y="-7" on="0"/>
        <pt x="170" y="-7" on="1"/>
        <pt x="92" y="-7" on="0"/>
        <pt x="29" y="64" on="0"/>
        <pt x="29" y="144" on="1"/>
        <pt x="29" y="203" on="0"/>
        <pt x="52" y="270" on="0"/>
        <pt x="108" y="300" on="0"/>
        <pt x="157" y="300" on="1"/>
        <pt x="204" y="300" on="0"/>
        <pt x="262" y="298" on="1"/>
        <pt x="262" y="322" on="1"/>
        <pt x="262" y="371" on="0"/>
        <pt x="248" y="413" on="0"/>
        <pt x="210" y="425" on="0"/>
        <pt x="166" y="425" on="1"/>
        <pt x="126" y="425" on="0"/>
        <pt x="52" y="416" on="1"/>
        <pt x="52" y="502" on="1"/>
        <pt x="136" y="518" on="0"/>
        <pt x="198" y="518" on="1"/>
        <pt x="282" y="518" on="0"/>
        <pt x="319" y="480" on="1"/>
        <pt x="359" y="518" on="0"/>
        <pt x="441" y="518" on="1"/>
        <pt x="521" y="518" on="0"/>
        <pt x="591" y="467" on="0"/>
        <pt x="608" y="365" on="0"/>
        <pt x="608" y="254" on="1"/>
      </contour>
      <contour>
        <pt x="408" y="425" on="0"/>
        <pt x="380" y="408" on="0"/>
        <pt x="371" y="357" on="0"/>
        <pt x="370" y="299" on="1"/>
        <pt x="504" y="299" on="1"/>
        <pt x="504" y="357" on="0"/>
        <pt x="494" y="408" on="0"/>
        <pt x="468" y="425" on="0"/>
        <pt x="440" y="425" on="1"/>
      </contour>
      <contour>
        <pt x="262" y="219" on="1"/>
        <pt x="184" y="219" on="1"/>
        <pt x="162" y="219" on="0"/>
        <pt x="141" y="209" on="0"/>
        <pt x="132" y="182" on="0"/>
        <pt x="132" y="153" on="1"/>
        <pt x="132" y="112" on="0"/>
        <pt x="154" y="85" on="0"/>
        <pt x="191" y="85" on="1"/>
        <pt x="216" y="85" on="0"/>
        <pt x="246" y="99" on="0"/>
        <pt x="253" y="119" on="1"/>
        <pt x="262" y="141" on="0"/>
        <pt x="262" y="191" on="1"/>
      </contour>
    </TTGlyph>
    <TTGlyph name="aeacute" xMin="29" yMin="-8" xMax="608" yMax="743">
      <component glyphName="ae" x="0" y="0" flags="0x0"/>
      <component glyphName="acutecomb" x="442" y="0" flags="0x0"/>
    </TTGlyph>
    <TTGlyph name="agrave" xMin="29" yMin="-8" xMax="371" yMax="743">
      <component glyphName="a" x="0" y="0" flags="0x0"/>
      <component glyphName="grave" x="96" y="0" flags="0x0"/>
    </TTGlyph>
    <TTGlyph name="amacron" xMin="29" yMin="-8" xMax="371" yMax="743">
      <component glyphName="a" x="0" y="0" flags="0x0"/>
      <component glyphName="uni0304" x="363" y="0" flags="0x0"/>
    </TTGlyph>
    <TTGlyph name="ampersand" xMin="45" yMin="-8" xMax="523" yMax="696">
      <contour>
        <pt x="523" y="395" on="1"/>
        <pt x="523" y="299" on="1"/>
        <pt x="442" y="299" on="1"/>
        <pt x="442" y="9" on="1"/>
        <pt x="403" y="2" on="0"/>
        <pt x="304" y="-8" on="0"/>
        <pt x="265" y="-8" on="1"/>
        <pt x="179" y="-8" on="0"/>
        <pt x="83" y="32" on="0"/>
        <pt x="45" y="114" on="0"/>
        <pt x="45" y="182" on="1"/>
        <pt x="45" y="262" on="0"/>
        <pt x="91" y="334" on="0"/>
        <pt x="142" y="349" on="1"/>
        <pt x="142" y="353" on="1"/>
        <pt x="95" y="366" on="0"/>
        <pt x="50" y="442" on="0"/>
        <pt x="50" y="516" on="1"/>
        <pt x="50" y="611" on="0"/>
        <pt x="150" y="696" on="0"/>
        <pt x="269" y="696" on="1"/>
        <pt x="306" y="696" on="0"/>
        <pt x="402" y="685" on="0"/>
        <pt x="441" y="677" on="1"/>
        <pt x="441" y="590" on="1"/>
        <pt x="373" y="600" on="0"/>
        <pt x="302" y="600" on="1"/>
        <pt x="238" y="600" on="0"/>
        <pt x="180" y="584" on="0"/>
        <pt x="160" y="542" on="0"/>
        <pt x="160" y="497" on="1"/>
        <pt x="160" y="458" on="0"/>
        <pt x="172" y="415" on="0"/>
        <pt x="206" y="395" on="0"/>
        <pt x="241" y="395" on="1"/>
        <pt x="278" y="395" on="1"/>
        <pt x="278" y="299" on="1"/>
        <pt x="241" y="299" on="1"/>
        <pt x="204" y="299" on="0"/>
        <pt x="168" y="280" on="0"/>
        <pt x="155" y="236" on="0"/>
        <pt x="155" y="192" on="1"/>
        <pt x="155" y="145" on="0"/>
        <pt x="179" y="100" on="0"/>
        <pt x="230" y="86" on="0"/>
        <pt x="280" y="86" on="1"/>
        <pt x="307" y="86" on="0"/>
        <pt x="335" y="89" on="1"/>
        <pt x="335" y="395" on="1"/>
      </contour>
    </TTGlyph>
    <TTGlyph name="aogonek" xMin="29" yMin="-196" xMax="373" yMax="518">
      <contour>
        <pt x="370" y="-131" on="0"/>
        <pt x="373" y="-130" on="1"/>
        <pt x="373" y="-193" on="1"/>
        <pt x="347" y="-196" on="0"/>
        <pt x="328" y="-196" on="1"/>
        <pt x="276" y="-196" on="0"/>
        <pt x="231" y="-151" on="0"/>
        <pt x="231" y="-116" on="1"/>
        <pt x="231" y="-85" on="0"/>
        <pt x="262" y="-25" on="0"/>
        <pt x="288" y="0" on="1"/>
        <pt x="271" y="0" on="1"/>
        <pt x="267" y="63" on="1"/>
        <pt x="261" y="63" on="1"/>
        <pt x="237" y="-8" on="0"/>
        <pt x="147" y="-8" on="1"/>
        <pt x="84" y="-8" on="0"/>
        <pt x="29" y="64" on="0"/>
        <pt x="29" y="144" on="1"/>
        <pt x="29" y="203" on="0"/>
        <pt x="53" y="271" on="0"/>
        <pt x="108" y="301" on="0"/>
        <pt x="157" y="301" on="1"/>
        <pt x="195" y="301" on="0"/>
        <pt x="263" y="297" on="1"/>
        <pt x="263" y="322" on="1"/>
        <pt x="263" y="371" on="0"/>
        <pt x="248" y="413" on="0"/>
        <pt x="211" y="425" on="0"/>
        <pt x="168" y="425" on="1"/>
        <pt x="146" y="425" on="0"/>
        <pt x="53" y="417" on="1"/>
        <pt x="53" y="502" on="1"/>
        <pt x="123" y="518" on="0"/>
        <pt x="199" y="518" on="1"/>
        <pt x="271" y="518" on="0"/>
        <pt x="344" y="480" on="0"/>
        <pt x="371" y="395" on="0"/>
        <pt x="371" y="316" on="1"/>
        <pt x="371" y="0" on="1"/>
        <pt x="351" y="-16" on="0"/>
        <pt x="318" y="-69" on="0"/>
        <pt x="318" y="-94" on="1"/>
        <pt x="318" y="-131" on="0"/>
        <pt x="360" y="-131" on="1"/>
      </contour>
      <contour>
        <pt x="263" y="221" on="1"/>
        <pt x="188" y="221" on="1"/>
        <pt x="166" y="221" on="0"/>
        <pt x="145" y="211" on="0"/>
        <pt x="136" y="183" on="0"/>
        <pt x="136" y="154" on="1"/>
        <pt x="136" y="115" on="0"/>
        <pt x="158" y="90" on="0"/>
        <pt x="194" y="90" on="1"/>
        <pt x="213" y="90" on="0"/>
        <pt x="239" y="98" on="0"/>
        <pt x="249" y="110" on="1"/>
        <pt x="263" y="129" on="0"/>
        <pt x="263" y="194" on="1"/>
      </contour>
    </TTGlyph>
    <TTGlyph name="approxequal" xMin="55" yMin="100" xMax="397" yMax="405">
      <contour>
        <pt x="55" y="318" on="0"/>
        <pt x="64" y="368" on="0"/>
        <pt x="98" y="395" on="0"/>
        <pt x="135" y="395" on="1"/>
        <pt x="174" y="395" on="0"/>
        <pt x="240" y="375" on="1"/>
        <pt x="286" y="362" on="0"/>
        <pt x="307" y="362" on="1"/>
        <pt x="325" y="362" on="0"/>
        <pt x="333" y="378" on="0"/>
        <pt x="333" y="405" on="1"/>
        <pt x="397" y="405" on="1"/>
        <pt x="397" y="358" on="0"/>
        <pt x="388" y="309" on="0"/>
        <pt x="355" y="282" on="0"/>
        <pt x="318" y="282" on="1"/>
        <pt x="295" y="282" on="0"/>
        <pt x="247" y="292" on="0"/>
        <pt x="213" y="301" on="1"/>
        <pt x="204" y="303" on="0"/>
        <pt x="160" y="314" on="0"/>
        <pt x="145" y="314" on="1"/>
        <pt x="128" y="314" on="0"/>
        <pt x="120" y="297" on="0"/>
        <pt x="120" y="271" on="1"/>
        <pt x="55" y="271" on="1"/>
      </contour>
      <contour>
        <pt x="55" y="148" on="0"/>
        <pt x="64" y="198" on="0"/>
        <pt x="98" y="225" on="0"/>
        <pt x="135" y="225" on="1"/>
        <pt x="174" y="225" on="0"/>
        <pt x="240" y="205" on="1"/>
        <pt x="247" y="203" on="0"/>
        <pt x="292" y="192" on="0"/>
        <pt x="307" y="192" on="1"/>
        <pt x="325" y="192" on="0"/>
        <pt x="333" y="209" on="0"/>
        <pt x="333" y="235" on="1"/>
        <pt x="397" y="235" on="1"/>
        <pt x="397" y="188" on="0"/>
        <pt x="388" y="138" on="0"/>
        <pt x="355" y="111" on="0"/>
        <pt x="318" y="111" on="1"/>
        <pt x="279" y="111" on="0"/>
        <pt x="213" y="131" on="1"/>
        <pt x="165" y="144" on="0"/>
        <pt x="145" y="144" on="1"/>
        <pt x="128" y="144" on="0"/>
        <pt x="120" y="127" on="0"/>
        <pt x="120" y="100" on="1"/>
        <pt x="55" y="100" on="1"/>
      </contour>
    </TTGlyph>
    <TTGlyph name="aring" xMin="29" yMin="-8" xMax="371" yMax="796">
      <component glyphName="a" x="0" y="0" flags="0x0"/>
      <component glyphName="ring" x="85" y="-24" flags="0x4"/>
    </TTGlyph>
    <TTGlyph name="aringacute" xMin="29" yMin="-8" xMax="371" yMax="993">
      <component glyphName="a" x="0" y="0" flags="0x0"/>
      <component glyphName="uni030A" x="337" y="0" flags="0x0"/>
      <component glyphName="acutecomb" x="332" y="250" flags="0x4"/>
    </TTGlyph>
    <TTGlyph name="arrowboth" xMin="55" yMin="163" xMax="828" yMax="446">
      <contour>
        <pt x="55" y="304" on="1"/>
        <pt x="339" y="446" on="1"/>
        <pt x="307" y="350" on="1"/>
        <pt x="576" y="350" on="1"/>
        <pt x="544" y="446" on="1"/>
        <pt x="828" y="304" on="1"/>
        <pt x="544" y="163" on="1"/>
        <pt x="576" y="258" on="1"/>
        <pt x="307" y="258" on="1"/>
        <pt x="339" y="163" on="1"/>
      </contour>
    </TTGlyph>
    <TTGlyph name="arrowdown" xMin="56" yMin="-85" xMax="339" yMax="688">
      <contour>
        <pt x="56" y="199" on="1"/>
        <pt x="152" y="167" on="1"/>
        <pt x="152" y="688" on="1"/>
        <pt x="244" y="688" on="1"/>
        <pt x="244" y="167" on="1"/>
        <pt x="339" y="199" on="1"/>
        <pt x="198" y="-85" on="1"/>
      </contour>
    </TTGlyph>
    <TTGlyph name="arrowdown.ss01" xMin="30" yMin="171" xMax="315" yMax="456">
      <contour>
        <pt x="30" y="456" on="1"/>
        <pt x="315" y="456" on="1"/>
        <pt x="173" y="171" on="1"/>
      </contour>
    </TTGlyph>
    <TTGlyph name="arrowleft" xMin="55" yMin="163" xMax="828" yMax="446">
      <contour>
        <pt x="339" y="163" on="1"/>
        <pt x="55" y="304" on="1"/>
        <pt x="339" y="446" on="1"/>
        <pt x="306" y="350" on="1"/>
        <pt x="828" y="350" on="1"/>
        <pt x="828" y="258" on="1"/>
        <pt x="306" y="258" on="1"/>
      </contour>
    </TTGlyph>
    <TTGlyph name="arrowleft.ss01" xMin="30" yMin="201" xMax="315" yMax="486">
      <contour>
        <pt x="30" y="343" on="1"/>
        <pt x="315" y="486" on="1"/>
        <pt x="315" y="201" on="1"/>
      </contour>
    </TTGlyph>
    <TTGlyph name="arrowright" xMin="55" yMin="163" xMax="828" yMax="446">
      <contour>
        <pt x="576" y="258" on="1"/>
        <pt x="55" y="258" on="1"/>
        <pt x="55" y="350" on="1"/>
        <pt x="576" y="350" on="1"/>
        <pt x="544" y="446" on="1"/>
        <pt x="828" y="304" on="1"/>
        <pt x="544" y="163" on="1"/>
      </contour>
    </TTGlyph>
    <TTGlyph name="arrowright.ss01" xMin="48" yMin="201" xMax="333" yMax="486">
      <contour>
        <pt x="48" y="486" on="1"/>
        <pt x="333" y="343" on="1"/>
        <pt x="48" y="201" on="1"/>
      </contour>
    </TTGlyph>
    <TTGlyph name="arrowup" xMin="56" yMin="-82" xMax="339" yMax="691">
      <contour>
        <pt x="152" y="439" on="1"/>
        <pt x="56" y="407" on="1"/>
        <pt x="198" y="691" on="1"/>
        <pt x="339" y="407" on="1"/>
        <pt x="244" y="439" on="1"/>
        <pt x="244" y="-82" on="1"/>
        <pt x="152" y="-82" on="1"/>
      </contour>
    </TTGlyph>
    <TTGlyph name="arrowup.ss01" xMin="30" yMin="231" xMax="315" yMax="516">
      <contour>
        <pt x="173" y="516" on="1"/>
        <pt x="315" y="231" on="1"/>
        <pt x="30" y="231" on="1"/>
      </contour>
    </TTGlyph>
    <TTGlyph name="arrowupdn" xMin="56" yMin="-85" xMax="339" yMax="696">
      <contour>
        <pt x="56" y="199" on="1"/>
        <pt x="152" y="167" on="1"/>
        <pt x="152" y="444" on="1"/>
        <pt x="56" y="412" on="1"/>
        <pt x="198" y="696" on="1"/>
        <pt x="339" y="412" on="1"/>
        <pt x="244" y="444" on="1"/>
        <pt x="244" y="167" on="1"/>
        <pt x="339" y="199" on="1"/>
        <pt x="198" y="-85" on="1"/>
      </contour>
    </TTGlyph>
    <TTGlyph name="arrowupdnbse" xMin="55" yMin="-202" xMax="340" yMax="696">
      <contour>
        <pt x="56" y="199" on="1"/>
        <pt x="152" y="167" on="1"/>
        <pt x="152" y="444" on="1"/>
        <pt x="56" y="412" on="1"/>
        <pt x="198" y="696" on="1"/>
        <pt x="339" y="412" on="1"/>
        <pt x="244" y="444" on="1"/>
        <pt x="244" y="167" on="1"/>
        <pt x="339" y="199" on="1"/>
        <pt x="198" y="-85" on="1"/>
      </contour>
      <contour>
        <pt x="55" y="-119" on="1"/>
        <pt x="340" y="-119" on="1"/>
        <pt x="340" y="-202" on="1"/>
        <pt x="55" y="-202" on="1"/>
      </contour>
    </TTGlyph>
    <TTGlyph name="asciicircum" xMin="23" yMin="476" xMax="372" yMax="750">
      <contour>
        <pt x="198" y="666" on="1"/>
        <pt x="117" y="476" on="1"/>
        <pt x="23" y="476" on="1"/>
        <pt x="150" y="750" on="1"/>
        <pt x="246" y="750" on="1"/>
        <pt x="372" y="476" on="1"/>
        <pt x="278" y="476" on="1"/>
      </contour>
    </TTGlyph>
    <TTGlyph name="asciitilde" xMin="55" yMin="236" xMax="397" yMax="370">
      <contour>
        <pt x="397" y="323" on="0"/>
        <pt x="388" y="274" on="0"/>
        <pt x="355" y="247" on="0"/>
        <pt x="318" y="247" on="1"/>
        <pt x="295" y="247" on="0"/>
        <pt x="247" y="257" on="0"/>
        <pt x="213" y="266" on="1"/>
        <pt x="208" y="267" on="0"/>
        <pt x="162" y="280" on="0"/>
        <pt x="145" y="280" on="1"/>
        <pt x="128" y="280" on="0"/>
        <pt x="120" y="262" on="0"/>
        <pt x="120" y="236" on="1"/>
        <pt x="55" y="236" on="1"/>
        <pt x="55" y="283" on="0"/>
        <pt x="64" y="332" on="0"/>
        <pt x="98" y="359" on="0"/>
        <pt x="135" y="359" on="1"/>
        <pt x="175" y="359" on="0"/>
        <pt x="239" y="341" on="1"/>
        <pt x="258" y="336" on="0"/>
        <pt x="295" y="327" on="0"/>
        <pt x="307" y="327" on="1"/>
        <pt x="325" y="327" on="0"/>
        <pt x="333" y="344" on="0"/>
        <pt x="333" y="370" on="1"/>
        <pt x="397" y="370" on="1"/>
      </contour>
    </TTGlyph>
    <TTGlyph name="asterisk" xMin="45" yMin="361" xMax="361" yMax="688">
      <contour>
        <pt x="237" y="361" on="1"/>
        <pt x="169" y="361" on="1"/>
        <pt x="179" y="482" on="1"/>
        <pt x="79" y="413" on="1"/>
        <pt x="45" y="473" on="1"/>
        <pt x="154" y="524" on="1"/>
        <pt x="45" y="576" on="1"/>
        <pt x="79" y="636" on="1"/>
        <pt x="179" y="566" on="1"/>
        <pt x="169" y="688" on="1"/>
        <pt x="237" y="688" on="1"/>
        <pt x="227" y="566" on="1"/>
        <pt x="327" y="636" on="1"/>
        <pt x="361" y="576" on="1"/>
        <pt x="251" y="524" on="1"/>
        <pt x="361" y="473" on="1"/>
        <pt x="327" y="413" on="1"/>
        <pt x="227" y="482" on="1"/>
      </contour>
    </TTGlyph>
    <TTGlyph name="asterisk.ss02" xMin="35" yMin="-14" xMax="782" yMax="705">
      <contour>
        <pt x="269" y="262" on="1"/>
        <pt x="35" y="436" on="1"/>
        <pt x="322" y="436" on="1"/>
        <pt x="409" y="705" on="1"/>
        <pt x="494" y="436" on="1"/>
        <pt x="782" y="436" on="1"/>
        <pt x="550" y="262" on="1"/>
        <pt x="640" y="-14" on="1"/>
        <pt x="409" y="156" on="1"/>
        <pt x="178" y="-14" on="1"/>
      </contour>
    </TTGlyph>
    <TTGlyph name="at" xMin="57" yMin="-108" xMax="642" yMax="696">
      <contour>
        <pt x="201" y="-108" on="0"/>
        <pt x="86" y="-54" on="0"/>
        <pt x="57" y="96" on="0"/>
        <pt x="57" y="294" on="1"/>
        <pt x="57" y="492" on="0"/>
        <pt x="86" y="642" on="0"/>
        <pt x="201" y="696" on="0"/>
        <pt x="349" y="696" on="1"/>
        <pt x="497" y="696" on="0"/>
        <pt x="613" y="643" on="0"/>
        <pt x="642" y="492" on="0"/>
        <pt x="642" y="294" on="1"/>
        <pt x="642" y="188" on="0"/>
        <pt x="621" y="97" on="0"/>
        <pt x="580" y="75" on="0"/>
        <pt x="533" y="75" on="1"/>
        <pt x="405" y="75" on="1"/>
        <pt x="400" y="126" on="1"/>
        <pt x="395" y="126" on="1"/>
        <pt x="375" y="68" on="0"/>
        <pt x="303" y="68" on="1"/>
        <pt x="250" y="68" on="0"/>
        <pt x="204" y="129" on="0"/>
        <pt x="204" y="198" on="1"/>
        <pt x="204" y="273" on="0"/>
        <pt x="249" y="331" on="0"/>
        <pt x="309" y="331" on="1"/>
        <pt x="337" y="331" on="0"/>
        <pt x="399" y="327" on="1"/>
        <pt x="399" y="350" on="1"/>
        <pt x="399" y="392" on="0"/>
        <pt x="388" y="426" on="0"/>
        <pt x="357" y="436" on="0"/>
        <pt x="320" y="436" on="1"/>
        <pt x="297" y="436" on="0"/>
        <pt x="242" y="432" on="0"/>
        <pt x="225" y="430" on="1"/>
        <pt x="225" y="504" on="1"/>
        <pt x="286" y="518" on="0"/>
        <pt x="348" y="518" on="1"/>
        <pt x="409" y="518" on="0"/>
        <pt x="471" y="485" on="0"/>
        <pt x="493" y="413" on="0"/>
        <pt x="493" y="345" on="1"/>
        <pt x="493" y="127" on="1"/>
        <pt x="540" y="127" on="1"/>
        <pt x="561" y="127" on="0"/>
        <pt x="579" y="143" on="0"/>
        <pt x="586" y="211" on="0"/>
        <pt x="586" y="294" on="1"/>
        <pt x="586" y="444" on="0"/>
        <pt x="575" y="570" on="0"/>
        <pt x="529" y="630" on="0"/>
        <pt x="474" y="639" on="1"/>
        <pt x="442" y="643" on="0"/>
        <pt x="348" y="643" on="1"/>
        <pt x="257" y="643" on="0"/>
        <pt x="226" y="639" on="1"/>
        <pt x="170" y="631" on="0"/>
        <pt x="123" y="571" on="0"/>
        <pt x="112" y="445" on="0"/>
        <pt x="112" y="294" on="1"/>
        <pt x="112" y="127" on="0"/>
        <pt x="127" y="1" on="0"/>
        <pt x="189" y="-50" on="0"/>
        <pt x="268" y="-54" on="1"/>
        <pt x="291" y="-55" on="0"/>
        <pt x="349" y="-55" on="1"/>
        <pt x="462" y="-55" on="0"/>
        <pt x="493" y="-52" on="1"/>
        <pt x="493" y="-106" on="1"/>
        <pt x="457" y="-108" on="0"/>
        <pt x="349" y="-108" on="1"/>
      </contour>
      <contour>
        <pt x="365" y="151" on="0"/>
        <pt x="390" y="166" on="0"/>
        <pt x="399" y="202" on="0"/>
        <pt x="399" y="237" on="1"/>
        <pt x="399" y="265" on="1"/>
        <pt x="335" y="265" on="1"/>
        <pt x="317" y="265" on="0"/>
        <pt x="300" y="257" on="0"/>
        <pt x="294" y="232" on="0"/>
        <pt x="294" y="206" on="1"/>
        <pt x="294" y="173" on="0"/>
        <pt x="312" y="151" on="0"/>
        <pt x="341" y="151" on="1"/>
      </contour>
    </TTGlyph>
    <TTGlyph name="atilde" xMin="29" yMin="-8" xMax="371" yMax="743">
      <component glyphName="a" x="0" y="0" flags="0x0"/>
      <component glyphName="tilde" x="55" y="0" flags="0x0"/>
    </TTGlyph>
    <TTGlyph name="b" xMin="53" yMin="-8" xMax="405" yMax="743">
      <contour>
        <pt x="184" y="-8" on="0"/>
        <pt x="163" y="63" on="1"/>
        <pt x="156" y="63" on="1"/>
        <pt x="152" y="0" on="1"/>
        <pt x="53" y="0" on="1"/>
        <pt x="53" y="743" on="1"/>
        <pt x="161" y="743" on="1"/>
        <pt x="161" y="455" on="1"/>
        <pt x="167" y="455" on="1"/>
        <pt x="191" y="518" on="0"/>
        <pt x="275" y="518" on="1"/>
        <pt x="327" y="518" on="0"/>
        <pt x="382" y="469" on="0"/>
        <pt x="405" y="357" on="0"/>
        <pt x="405" y="254" on="1"/>
        <pt x="405" y="149" on="0"/>
        <pt x="381" y="37" on="0"/>
        <pt x="325" y="-8" on="0"/>
        <pt x="273" y="-8" on="1"/>
      </contour>
      <contour>
        <pt x="261" y="92" on="0"/>
        <pt x="288" y="111" on="0"/>
        <pt x="297" y="174" on="0"/>
        <pt x="297" y="255" on="1"/>
        <pt x="297" y="335" on="0"/>
        <pt x="288" y="399" on="0"/>
        <pt x="261" y="418" on="0"/>
        <pt x="227" y="418" on="1"/>
        <pt x="203" y="418" on="0"/>
        <pt x="177" y="403" on="0"/>
        <pt x="170" y="383" on="1"/>
        <pt x="161" y="352" on="0"/>
        <pt x="161" y="255" on="1"/>
        <pt x="161" y="163" on="0"/>
        <pt x="168" y="134" on="1"/>
        <pt x="174" y="110" on="0"/>
        <pt x="201" y="92" on="0"/>
        <pt x="227" y="92" on="1"/>
      </contour>
    </TTGlyph>
    <TTGlyph name="backslash" xMin="14" yMin="-55" xMax="299" yMax="743">
      <contour>
        <pt x="14" y="743" on="1"/>
        <pt x="111" y="743" on="1"/>
        <pt x="299" y="-55" on="1"/>
        <pt x="202" y="-55" on="1"/>
      </contour>
    </TTGlyph>
    <TTGlyph name="bar" xMin="66" yMin="-161" xMax="166" yMax="743">
      <contour>
        <pt x="66" y="743" on="1"/>
        <pt x="166" y="743" on="1"/>
        <pt x="166" y="-161" on="1"/>
        <pt x="66" y="-161" on="1"/>
      </contour>
    </TTGlyph>
    <TTGlyph name="bar.ss02" xMin="-1" yMin="0" xMax="499" yMax="696">
      <contour>
        <pt x="-1" y="696" on="1"/>
        <pt x="499" y="696" on="1"/>
        <pt x="499" y="0" on="1"/>
        <pt x="-1" y="0" on="1"/>
      </contour>
    </TTGlyph>
    <TTGlyph name="braceleft" xMin="21" yMin="-150" xMax="275" yMax="743">
      <contour>
        <pt x="155" y="-125" on="0"/>
        <pt x="97" y="-25" on="0"/>
        <pt x="97" y="28" on="1"/>
        <pt x="97" y="149" on="1"/>
        <pt x="97" y="199" on="0"/>
        <pt x="65" y="265" on="0"/>
        <pt x="21" y="268" on="1"/>
        <pt x="21" y="322" on="1"/>
        <pt x="65" y="325" on="0"/>
        <pt x="97" y="391" on="0"/>
        <pt x="97" y="442" on="1"/>
        <pt x="97" y="564" on="1"/>
        <pt x="97" y="616" on="0"/>
        <pt x="156" y="717" on="0"/>
        <pt x="201" y="743" on="1"/>
        <pt x="275" y="743" on="1"/>
        <pt x="231" y="688" on="0"/>
        <pt x="201" y="607" on="0"/>
        <pt x="201" y="559" on="1"/>
        <pt x="201" y="445" on="1"/>
        <pt x="201" y="322" on="0"/>
        <pt x="109" y="300" on="1"/>
        <pt x="109" y="293" on="1"/>
        <pt x="201" y="271" on="0"/>
        <pt x="201" y="146" on="1"/>
        <pt x="201" y="33" on="1"/>
        <pt x="201" y="-15" on="0"/>
        <pt x="231" y="-94" on="0"/>
        <pt x="275" y="-150" on="1"/>
        <pt x="201" y="-150" on="1"/>
      </contour>
    </TTGlyph>
    <TTGlyph name="braceright" xMin="20" yMin="-150" xMax="273" yMax="743">
      <contour>
        <pt x="63" y="-95" on="0"/>
        <pt x="93" y="-15" on="0"/>
        <pt x="93" y="33" on="1"/>
        <pt x="93" y="146" on="1"/>
        <pt x="93" y="271" on="0"/>
        <pt x="185" y="293" on="1"/>
        <pt x="185" y="300" on="1"/>
        <pt x="93" y="322" on="0"/>
        <pt x="93" y="445" on="1"/>
        <pt x="93" y="559" on="1"/>
        <pt x="93" y="606" on="0"/>
        <pt x="64" y="683" on="0"/>
        <pt x="20" y="743" on="1"/>
        <pt x="93" y="743" on="1"/>
        <pt x="138" y="717" on="0"/>
        <pt x="197" y="616" on="0"/>
        <pt x="197" y="564" on="1"/>
        <pt x="197" y="442" on="1"/>
        <pt x="197" y="391" on="0"/>
        <pt x="229" y="325" on="0"/>
        <pt x="273" y="322" on="1"/>
        <pt x="273" y="268" on="1"/>
        <pt x="229" y="265" on="0"/>
        <pt x="197" y="200" on="0"/>
        <pt x="197" y="149" on="1"/>
        <pt x="197" y="28" on="1"/>
        <pt x="197" y="-25" on="0"/>
        <pt x="139" y="-125" on="0"/>
        <pt x="93" y="-150" on="1"/>
        <pt x="20" y="-150" on="1"/>
      </contour>
    </TTGlyph>
    <TTGlyph name="bracketleft" xMin="59" yMin="-150" xMax="252" yMax="743">
      <contour>
        <pt x="59" y="743" on="1"/>
        <pt x="252" y="743" on="1"/>
        <pt x="252" y="669" on="1"/>
        <pt x="163" y="665" on="1"/>
        <pt x="163" y="-72" on="1"/>
        <pt x="252" y="-76" on="1"/>
        <pt x="252" y="-150" on="1"/>
        <pt x="59" y="-150" on="1"/>
      </contour>
    </TTGlyph>
    <TTGlyph name="bracketleft.ss02" xMin="45" yMin="0" xMax="397" yMax="696">
      <contour>
        <pt x="45" y="0" on="1"/>
        <pt x="45" y="348" on="1"/>
        <pt x="45" y="449" on="0"/>
        <pt x="135" y="608" on="0"/>
        <pt x="295" y="696" on="0"/>
        <pt x="397" y="696" on="1"/>
        <pt x="397" y="0" on="1"/>
      </contour>
    </TTGlyph>
    <TTGlyph name="bracketright" xMin="32" yMin="-150" xMax="225" yMax="743">
      <contour>
        <pt x="32" y="-76" on="1"/>
        <pt x="120" y="-72" on="1"/>
        <pt x="120" y="665" on="1"/>
        <pt x="32" y="669" on="1"/>
        <pt x="32" y="743" on="1"/>
        <pt x="225" y="743" on="1"/>
        <pt x="225" y="-150" on="1"/>
        <pt x="32" y="-150" on="1"/>
      </contour>
    </TTGlyph>
    <TTGlyph name="bracketright.ss02" xMin="0" yMin="0" xMax="352" yMax="696">
      <contour>
        <pt x="0" y="696" on="1"/>
        <pt x="102" y="696" on="0"/>
        <pt x="262" y="608" on="0"/>
        <pt x="352" y="449" on="0"/>
        <pt x="352" y="348" on="1"/>
        <pt x="352" y="0" on="1"/>
        <pt x="0" y="0" on="1"/>
      </contour>
    </TTGlyph>
    <TTGlyph name="breve" xMin="6" yMin="606" xMax="255" yMax="743">
      <contour>
        <pt x="255" y="697" on="0"/>
        <pt x="238" y="640" on="0"/>
        <pt x="183" y="606" on="0"/>
        <pt x="129" y="606" on="1"/>
        <pt x="76" y="606" on="0"/>
        <pt x="22" y="639" on="0"/>
        <pt x="6" y="697" on="0"/>
        <pt x="6" y="743" on="1"/>
        <pt x="75" y="743" on="1"/>
        <pt x="75" y="715" on="0"/>
        <pt x="80" y="688" on="0"/>
        <pt x="103" y="672" on="0"/>
        <pt x="129" y="672" on="1"/>
        <pt x="155" y="672" on="0"/>
        <pt x="179" y="688" on="0"/>
        <pt x="185" y="716" on="0"/>
        <pt x="185" y="743" on="1"/>
        <pt x="255" y="743" on="1"/>
      </contour>
    </TTGlyph>
    <TTGlyph name="brokenbar" xMin="66" yMin="-161" xMax="166" yMax="743">
      <contour>
        <pt x="66" y="743" on="1"/>
        <pt x="166" y="743" on="1"/>
        <pt x="166" y="390" on="1"/>
        <pt x="66" y="390" on="1"/>
      </contour>
      <contour>
        <pt x="66" y="192" on="1"/>
        <pt x="166" y="192" on="1"/>
        <pt x="166" y="-161" on="1"/>
        <pt x="66" y="-161" on="1"/>
      </contour>
    </TTGlyph>
    <TTGlyph name="bullet" xMin="48" yMin="245" xMax="243" yMax="441">
      <contour>
        <pt x="243" y="296" on="0"/>
        <pt x="232" y="259" on="0"/>
        <pt x="193" y="245" on="0"/>
        <pt x="144" y="245" on="1"/>
        <pt x="97" y="245" on="0"/>
        <pt x="58" y="259" on="0"/>
        <pt x="48" y="296" on="0"/>
        <pt x="48" y="342" on="1"/>
        <pt x="48" y="390" on="0"/>
        <pt x="58" y="427" on="0"/>
        <pt x="96" y="441" on="0"/>
        <pt x="144" y="441" on="1"/>
        <pt x="193" y="441" on="0"/>
        <pt x="232" y="427" on="0"/>
        <pt x="243" y="390" on="0"/>
        <pt x="243" y="342" on="1"/>
      </contour>
    </TTGlyph>
    <TTGlyph name="bullet.ss02" xMin="40" yMin="-8" xMax="743" yMax="696">
      <contour>
        <pt x="343" y="421" on="0"/>
        <pt x="279" y="480" on="0"/>
        <pt x="279" y="533" on="1"/>
        <pt x="279" y="575" on="0"/>
        <pt x="318" y="650" on="0"/>
        <pt x="373" y="696" on="0"/>
        <pt x="392" y="696" on="1"/>
        <pt x="411" y="696" on="0"/>
        <pt x="465" y="650" on="0"/>
        <pt x="504" y="575" on="0"/>
        <pt x="504" y="533" on="1"/>
        <pt x="504" y="480" on="0"/>
        <pt x="441" y="421" on="0"/>
        <pt x="392" y="421" on="1"/>
      </contour>
      <contour>
        <pt x="415" y="481" on="0"/>
        <pt x="444" y="508" on="0"/>
        <pt x="444" y="533" on="1"/>
        <pt x="444" y="560" on="0"/>
        <pt x="426" y="607" on="0"/>
        <pt x="401" y="636" on="0"/>
        <pt x="392" y="636" on="1"/>
        <pt x="383" y="636" on="0"/>
        <pt x="358" y="607" on="0"/>
        <pt x="339" y="560" on="0"/>
        <pt x="339" y="533" on="1"/>
        <pt x="339" y="508" on="0"/>
        <pt x="369" y="481" on="0"/>
        <pt x="392" y="481" on="1"/>
      </contour>
      <contour>
        <pt x="161" y="231" on="0"/>
        <pt x="86" y="270" on="0"/>
        <pt x="40" y="325" on="0"/>
        <pt x="40" y="344" on="1"/>
        <pt x="40" y="363" on="0"/>
        <pt x="86" y="417" on="0"/>
        <pt x="161" y="456" on="0"/>
        <pt x="203" y="456" on="1"/>
        <pt x="256" y="456" on="0"/>
        <pt x="315" y="393" on="0"/>
        <pt x="315" y="344" on="1"/>
        <pt x="315" y="295" on="0"/>
        <pt x="256" y="231" on="0"/>
        <pt x="203" y="231" on="1"/>
      </contour>
      <contour>
        <pt x="527" y="231" on="0"/>
        <pt x="468" y="295" on="0"/>
        <pt x="468" y="344" on="1"/>
        <pt x="468" y="393" on="0"/>
        <pt x="527" y="456" on="0"/>
        <pt x="581" y="456" on="1"/>
        <pt x="622" y="456" on="0"/>
        <pt x="697" y="417" on="0"/>
        <pt x="743" y="363" on="0"/>
        <pt x="743" y="344" on="1"/>
        <pt x="743" y="325" on="0"/>
        <pt x="697" y="270" on="0"/>
        <pt x="623" y="231" on="0"/>
        <pt x="581" y="231" on="1"/>
      </contour>
      <contour>
        <pt x="228" y="291" on="0"/>
        <pt x="255" y="321" on="0"/>
        <pt x="255" y="344" on="1"/>
        <pt x="255" y="367" on="0"/>
        <pt x="228" y="396" on="0"/>
        <pt x="203" y="396" on="1"/>
        <pt x="176" y="396" on="0"/>
        <pt x="129" y="378" on="0"/>
        <pt x="100" y="353" on="0"/>
        <pt x="100" y="344" on="1"/>
        <pt x="100" y="335" on="0"/>
        <pt x="129" y="310" on="0"/>
        <pt x="176" y="291" on="0"/>
        <pt x="203" y="291" on="1"/>
      </contour>
      <contour>
        <pt x="607" y="291" on="0"/>
        <pt x="654" y="310" on="0"/>
        <pt x="683" y="335" on="0"/>
        <pt x="683" y="344" on="1"/>
        <pt x="683" y="353" on="0"/>
        <pt x="654" y="378" on="0"/>
        <pt x="607" y="396" on="0"/>
        <pt x="581" y="396" on="1"/>
        <pt x="556" y="396" on="0"/>
        <pt x="528" y="367" on="0"/>
        <pt x="528" y="344" on="1"/>
        <pt x="528" y="321" on="0"/>
        <pt x="556" y="291" on="0"/>
        <pt x="581" y="291" on="1"/>
      </contour>
      <contour>
        <pt x="373" y="-8" on="0"/>
        <pt x="318" y="38" on="0"/>
        <pt x="279" y="113" on="0"/>
        <pt x="279" y="155" on="1"/>
        <pt x="279" y="208" on="0"/>
        <pt x="343" y="267" on="0"/>
        <pt x="392" y="267" on="1"/>
        <pt x="441" y="267" on="0"/>
        <pt x="504" y="208" on="0"/>
        <pt x="504" y="155" on="1"/>
        <pt x="504" y="113" on="0"/>
        <pt x="465" y="38" on="0"/>
        <pt x="411" y="-8" on="0"/>
        <pt x="392" y="-8" on="1"/>
      </contour>
      <contour>
        <pt x="401" y="52" on="0"/>
        <pt x="426" y="81" on="0"/>
        <pt x="444" y="128" on="0"/>
        <pt x="444" y="155" on="1"/>
        <pt x="444" y="180" on="0"/>
        <pt x="415" y="207" on="0"/>
        <pt x="392" y="207" on="1"/>
        <pt x="369" y="207" on="0"/>
        <pt x="339" y="180" on="0"/>
        <pt x="339" y="155" on="1"/>
        <pt x="339" y="128" on="0"/>
        <pt x="358" y="81" on="0"/>
        <pt x="383" y="52" on="0"/>
        <pt x="392" y="52" on="1"/>
      </contour>
    </TTGlyph>
    <TTGlyph name="c" xMin="39" yMin="-8" xMax="313" yMax="518">
      <contour>
        <pt x="263" y="-8" on="0"/>
        <pt x="204" y="-8" on="1"/>
        <pt x="131" y="-8" on="0"/>
        <pt x="61" y="46" on="0"/>
        <pt x="39" y="154" on="0"/>
        <pt x="39" y="255" on="1"/>
        <pt x="39" y="356" on="0"/>
        <pt x="64" y="466" on="0"/>
        <pt x="134" y="518" on="0"/>
        <pt x="203" y="518" on="1"/>
        <pt x="233" y="518" on="0"/>
        <pt x="293" y="510" on="0"/>
        <pt x="310" y="503" on="1"/>
        <pt x="310" y="417" on="1"/>
        <pt x="268" y="425" on="0"/>
        <pt x="232" y="425" on="1"/>
        <pt x="193" y="425" on="0"/>
        <pt x="159" y="402" on="0"/>
        <pt x="147" y="334" on="0"/>
        <pt x="147" y="255" on="1"/>
        <pt x="147" y="176" on="0"/>
        <pt x="159" y="107" on="0"/>
        <pt x="193" y="85" on="0"/>
        <pt x="232" y="85" on="1"/>
        <pt x="271" y="85" on="0"/>
        <pt x="313" y="93" on="1"/>
        <pt x="313" y="7" on="1"/>
      </contour>
    </TTGlyph>
    <TTGlyph name="cacute" xMin="39" yMin="-8" xMax="313" yMax="743">
      <component glyphName="c" x="0" y="0" flags="0x0"/>
      <component glyphName="acutecomb" x="290" y="0" flags="0x0"/>
    </TTGlyph>
    <TTGlyph name="cacute.loclPLK" xMin="39" yMin="-8" xMax="313" yMax="743">
      <component glyphName="c" x="0" y="0" flags="0x0"/>
      <component glyphName="acute.loclPLK" x="115" y="0" flags="0x0"/>
    </TTGlyph>
    <TTGlyph name="caron" xMin="5" yMin="609" xMax="269" yMax="743">
      <contour>
        <pt x="5" y="736" on="1"/>
        <pt x="5" y="743" on="1"/>
        <pt x="81" y="743" on="1"/>
        <pt x="137" y="664" on="1"/>
        <pt x="193" y="743" on="1"/>
        <pt x="269" y="743" on="1"/>
        <pt x="269" y="736" on="1"/>
        <pt x="193" y="609" on="1"/>
        <pt x="81" y="609" on="1"/>
      </contour>
    </TTGlyph>
    <TTGlyph name="caron.loclCSY" xMin="30" yMin="433" xMax="151" yMax="688">
      <contour>
        <pt x="47" y="627" on="1"/>
        <pt x="47" y="688" on="1"/>
        <pt x="151" y="688" on="1"/>
        <pt x="151" y="627" on="1"/>
        <pt x="108" y="433" on="1"/>
        <pt x="30" y="433" on="1"/>
      </contour>
    </TTGlyph>
    <TTGlyph name="ccaron" xMin="39" yMin="-8" xMax="313" yMax="743">
      <component glyphName="c" x="0" y="0" flags="0x0"/>
      <component glyphName="uni030C" x="310" y="0" flags="0x0"/>
    </TTGlyph>
    <TTGlyph name="ccedilla" xMin="39" yMin="-190" xMax="313" yMax="518">
      <contour>
        <pt x="313" y="7" on="1"/>
        <pt x="270" y="-6" on="0"/>
        <pt x="209" y="-8" on="1"/>
        <pt x="174" y="-190" on="1"/>
        <pt x="76" y="-190" on="1"/>
        <pt x="76" y="-185" on="1"/>
        <pt x="136" y="0" on="1"/>
        <pt x="94" y="12" on="0"/>
        <pt x="53" y="73" on="0"/>
        <pt x="39" y="172" on="0"/>
        <pt x="39" y="255" on="1"/>
        <pt x="39" y="356" on="0"/>
        <pt x="64" y="466" on="0"/>
        <pt x="134" y="518" on="0"/>
        <pt x="203" y="518" on="1"/>
        <pt x="233" y="518" on="0"/>
        <pt x="293" y="510" on="0"/>
        <pt x="310" y="503" on="1"/>
        <pt x="310" y="417" on="1"/>
        <pt x="268" y="425" on="0"/>
        <pt x="232" y="425" on="1"/>
        <pt x="193" y="425" on="0"/>
        <pt x="159" y="402" on="0"/>
        <pt x="147" y="334" on="0"/>
        <pt x="147" y="255" on="1"/>
        <pt x="147" y="176" on="0"/>
        <pt x="159" y="107" on="0"/>
        <pt x="193" y="85" on="0"/>
        <pt x="232" y="85" on="1"/>
        <pt x="271" y="85" on="0"/>
        <pt x="313" y="93" on="1"/>
      </contour>
    </TTGlyph>
    <TTGlyph name="ccircumflex" xMin="39" yMin="-8" xMax="313" yMax="743">
      <component glyphName="c" x="0" y="0" flags="0x0"/>
      <component glyphName="uni0302" x="309" y="0" flags="0x0"/>
    </TTGlyph>
    <TTGlyph name="cdotaccent" xMin="39" yMin="-8" xMax="313" yMax="730">
      <component glyphName="c" x="0" y="0" flags="0x0"/>
      <component glyphName="uni0307" x="229" y="0" flags="0x0"/>
    </TTGlyph>
    <TTGlyph name="cedilla" xMin="10" yMin="-190" xMax="145" yMax="8">
      <contour>
        <pt x="10" y="-185" on="1"/>
        <pt x="73" y="8" on="1"/>
        <pt x="145" y="8" on="1"/>
        <pt x="145" y="3" on="1"/>
        <pt x="108" y="-190" on="1"/>
        <pt x="10" y="-190" on="1"/>
      </contour>
    </TTGlyph>
    <TTGlyph name="cent" xMin="42" yMin="-8" xMax="322" yMax="696">
      <contour>
        <pt x="168" y="71" on="1"/>
        <pt x="114" y="80" on="0"/>
        <pt x="59" y="143" on="0"/>
        <pt x="42" y="251" on="0"/>
        <pt x="42" y="342" on="1"/>
        <pt x="42" y="435" on="0"/>
        <pt x="62" y="545" on="0"/>
        <pt x="116" y="607" on="0"/>
        <pt x="168" y="615" on="1"/>
        <pt x="168" y="696" on="1"/>
        <pt x="250" y="696" on="1"/>
        <pt x="250" y="617" on="1"/>
        <pt x="285" y="614" on="0"/>
        <pt x="320" y="603" on="1"/>
        <pt x="320" y="514" on="1"/>
        <pt x="267" y="521" on="0"/>
        <pt x="240" y="521" on="1"/>
        <pt x="200" y="521" on="0"/>
        <pt x="165" y="497" on="0"/>
        <pt x="153" y="425" on="0"/>
        <pt x="153" y="343" on="1"/>
        <pt x="153" y="261" on="0"/>
        <pt x="166" y="189" on="0"/>
        <pt x="201" y="165" on="0"/>
        <pt x="241" y="165" on="1"/>
        <pt x="276" y="165" on="0"/>
        <pt x="322" y="173" on="1"/>
        <pt x="322" y="84" on="1"/>
        <pt x="289" y="74" on="0"/>
        <pt x="250" y="70" on="1"/>
        <pt x="250" y="-8" on="1"/>
        <pt x="168" y="-8" on="1"/>
      </contour>
    </TTGlyph>
    <TTGlyph name="cent.bold" xMin="42" yMin="-8" xMax="322" yMax="696">
      <contour>
        <pt x="322" y="84" on="1"/>
        <pt x="287" y="75" on="0"/>
        <pt x="250" y="70" on="1"/>
        <pt x="250" y="-8" on="1"/>
        <pt x="168" y="-8" on="1"/>
        <pt x="168" y="71" on="1"/>
        <pt x="119" y="78" on="0"/>
        <pt x="65" y="131" on="0"/>
        <pt x="42" y="243" on="0"/>
        <pt x="42" y="342" on="1"/>
        <pt x="42" y="439" on="0"/>
        <pt x="67" y="553" on="0"/>
        <pt x="122" y="608" on="0"/>
        <pt x="168" y="615" on="1"/>
        <pt x="168" y="696" on="1"/>
        <pt x="250" y="696" on="1"/>
        <pt x="250" y="616" on="1"/>
        <pt x="287" y="612" on="0"/>
        <pt x="320" y="603" on="1"/>
        <pt x="320" y="514" on="1"/>
        <pt x="271" y="520" on="0"/>
        <pt x="250" y="521" on="1"/>
        <pt x="250" y="165" on="1"/>
        <pt x="281" y="166" on="0"/>
        <pt x="322" y="173" on="1"/>
      </contour>
      <contour>
        <pt x="153" y="282" on="0"/>
        <pt x="159" y="215" on="0"/>
        <pt x="168" y="197" on="1"/>
        <pt x="168" y="490" on="1"/>
        <pt x="159" y="472" on="0"/>
        <pt x="153" y="405" on="0"/>
        <pt x="153" y="343" on="1"/>
      </contour>
    </TTGlyph>
    <TTGlyph name="circumflex" xMin="6" yMin="610" xMax="269" yMax="743">
      <contour>
        <pt x="6" y="617" on="1"/>
        <pt x="81" y="743" on="1"/>
        <pt x="194" y="743" on="1"/>
        <pt x="269" y="617" on="1"/>
        <pt x="269" y="610" on="1"/>
        <pt x="194" y="610" on="1"/>
        <pt x="137" y="689" on="1"/>
        <pt x="81" y="610" on="1"/>
        <pt x="6" y="610" on="1"/>
      </contour>
    </TTGlyph>
    <TTGlyph name="colon" xMin="52" yMin="0" xMax="173" yMax="510">
      <contour>
        <pt x="52" y="510" on="1"/>
        <pt x="173" y="510" on="1"/>
        <pt x="173" y="392" on="1"/>
        <pt x="52" y="392" on="1"/>
      </contour>
      <contour>
        <pt x="52" y="118" on="1"/>
        <pt x="173" y="118" on="1"/>
        <pt x="173" y="0" on="1"/>
        <pt x="52" y="0" on="1"/>
      </contour>
    </TTGlyph>
    <TTGlyph name="comma" xMin="43" yMin="-141" xMax="173" yMax="118">
      <contour>
        <pt x="66" y="-88" on="0"/>
        <pt x="88" y="-76" on="0"/>
        <pt x="96" y="-46" on="0"/>
        <pt x="96" y="-16" on="1"/>
        <pt x="96" y="0" on="1"/>
        <pt x="52" y="0" on="1"/>
        <pt x="52" y="118" on="1"/>
        <pt x="173" y="118" on="1"/>
        <pt x="173" y="30" on="1"/>
        <pt x="173" y="-43" on="0"/>
        <pt x="156" y="-112" on="0"/>
        <pt x="102" y="-141" on="0"/>
        <pt x="43" y="-141" on="1"/>
        <pt x="43" y="-88" on="1"/>
      </contour>
    </TTGlyph>
    <TTGlyph name="copyright" xMin="60" yMin="-8" xMax="516" yMax="696">
      <contour>
        <pt x="174" y="-8" on="0"/>
        <pt x="83" y="40" on="0"/>
        <pt x="60" y="172" on="0"/>
        <pt x="60" y="344" on="1"/>
        <pt x="60" y="515" on="0"/>
        <pt x="83" y="648" on="0"/>
        <pt x="174" y="696" on="0"/>
        <pt x="288" y="696" on="1"/>
        <pt x="402" y="696" on="0"/>
        <pt x="492" y="648" on="0"/>
        <pt x="516" y="515" on="0"/>
        <pt x="516" y="344" on="1"/>
        <pt x="516" y="173" on="0"/>
        <pt x="492" y="40" on="0"/>
        <pt x="402" y="-8" on="0"/>
        <pt x="288" y="-8" on="1"/>
      </contour>
      <contour>
        <pt x="384" y="37" on="0"/>
        <pt x="451" y="69" on="0"/>
        <pt x="469" y="181" on="0"/>
        <pt x="469" y="344" on="1"/>
        <pt x="469" y="506" on="0"/>
        <pt x="451" y="619" on="0"/>
        <pt x="384" y="650" on="0"/>
        <pt x="288" y="650" on="1"/>
        <pt x="192" y="650" on="0"/>
        <pt x="124" y="619" on="0"/>
        <pt x="106" y="506" on="0"/>
        <pt x="106" y="344" on="1"/>
        <pt x="106" y="182" on="0"/>
        <pt x="124" y="69" on="0"/>
        <pt x="192" y="37" on="0"/>
        <pt x="288" y="37" on="1"/>
      </contour>
      <contour>
        <pt x="256" y="154" on="0"/>
        <pt x="210" y="187" on="0"/>
        <pt x="195" y="264" on="0"/>
        <pt x="195" y="343" on="1"/>
        <pt x="195" y="422" on="0"/>
        <pt x="210" y="499" on="0"/>
        <pt x="256" y="532" on="0"/>
        <pt x="305" y="532" on="1"/>
        <pt x="344" y="532" on="0"/>
        <pt x="367" y="523" on="1"/>
        <pt x="367" y="469" on="1"/>
        <pt x="341" y="473" on="0"/>
        <pt x="318" y="473" on="1"/>
        <pt x="289" y="473" on="0"/>
        <pt x="267" y="458" on="0"/>
        <pt x="261" y="408" on="0"/>
        <pt x="261" y="343" on="1"/>
        <pt x="261" y="278" on="0"/>
        <pt x="267" y="229" on="0"/>
        <pt x="289" y="213" on="0"/>
        <pt x="318" y="213" on="1"/>
        <pt x="346" y="213" on="0"/>
        <pt x="368" y="218" on="1"/>
        <pt x="368" y="163" on="1"/>
        <pt x="343" y="154" on="0"/>
        <pt x="305" y="154" on="1"/>
      </contour>
    </TTGlyph>
    <TTGlyph name="currency" xMin="39" yMin="4" xMax="487" yMax="684">
      <contour>
        <pt x="39" y="69" on="1"/>
        <pt x="105" y="136" on="1"/>
        <pt x="91" y="165" on="0"/>
        <pt x="82" y="260" on="0"/>
        <pt x="82" y="344" on="1"/>
        <pt x="82" y="428" on="0"/>
        <pt x="91" y="522" on="0"/>
        <pt x="105" y="551" on="1"/>
        <pt x="39" y="617" on="1"/>
        <pt x="106" y="684" on="1"/>
        <pt x="182" y="608" on="1"/>
        <pt x="211" y="615" on="0"/>
        <pt x="260" y="615" on="1"/>
        <pt x="313" y="615" on="0"/>
        <pt x="344" y="607" on="1"/>
        <pt x="421" y="684" on="1"/>
        <pt x="487" y="617" on="1"/>
        <pt x="417" y="548" on="1"/>
        <pt x="430" y="520" on="0"/>
        <pt x="438" y="428" on="0"/>
        <pt x="438" y="344" on="1"/>
        <pt x="438" y="260" on="0"/>
        <pt x="430" y="169" on="0"/>
        <pt x="417" y="140" on="1"/>
        <pt x="487" y="69" on="1"/>
        <pt x="421" y="4" on="1"/>
        <pt x="343" y="81" on="1"/>
        <pt x="314" y="73" on="0"/>
        <pt x="260" y="73" on="1"/>
        <pt x="211" y="73" on="0"/>
        <pt x="182" y="80" on="1"/>
        <pt x="106" y="4" on="1"/>
      </contour>
      <contour>
        <pt x="296" y="167" on="0"/>
        <pt x="323" y="189" on="0"/>
        <pt x="330" y="255" on="0"/>
        <pt x="330" y="344" on="1"/>
        <pt x="330" y="434" on="0"/>
        <pt x="323" y="500" on="0"/>
        <pt x="296" y="521" on="0"/>
        <pt x="260" y="521" on="1"/>
        <pt x="224" y="521" on="0"/>
        <pt x="197" y="500" on="0"/>
        <pt x="190" y="434" on="0"/>
        <pt x="190" y="344" on="1"/>
        <pt x="190" y="255" on="0"/>
        <pt x="197" y="189" on="0"/>
        <pt x="224" y="167" on="0"/>
        <pt x="260" y="167" on="1"/>
      </contour>
    </TTGlyph>
    <TTGlyph name="d" xMin="39" yMin="-8" xMax="392" yMax="743">
      <contour>
        <pt x="120" y="-8" on="0"/>
        <pt x="63" y="37" on="0"/>
        <pt x="39" y="149" on="0"/>
        <pt x="39" y="253" on="1"/>
        <pt x="39" y="356" on="0"/>
        <pt x="62" y="469" on="0"/>
        <pt x="118" y="518" on="0"/>
        <pt x="170" y="518" on="1"/>
        <pt x="253" y="518" on="0"/>
        <pt x="278" y="455" on="1"/>
        <pt x="284" y="455" on="1"/>
        <pt x="284" y="743" on="1"/>
        <pt x="392" y="743" on="1"/>
        <pt x="392" y="0" on="1"/>
        <pt x="292" y="0" on="1"/>
        <pt x="288" y="63" on="1"/>
        <pt x="281" y="63" on="1"/>
        <pt x="260" y="-8" on="0"/>
        <pt x="172" y="-8" on="1"/>
      </contour>
      <contour>
        <pt x="242" y="92" on="0"/>
        <pt x="268" y="109" on="0"/>
        <pt x="275" y="130" on="1"/>
        <pt x="284" y="162" on="0"/>
        <pt x="284" y="255" on="1"/>
        <pt x="284" y="332" on="0"/>
        <pt x="279" y="362" on="1"/>
        <pt x="274" y="394" on="0"/>
        <pt x="246" y="418" on="0"/>
        <pt x="217" y="418" on="1"/>
        <pt x="183" y="418" on="0"/>
        <pt x="156" y="399" on="0"/>
        <pt x="147" y="335" on="0"/>
        <pt x="147" y="255" on="1"/>
        <pt x="147" y="175" on="0"/>
        <pt x="156" y="111" on="0"/>
        <pt x="183" y="92" on="0"/>
        <pt x="217" y="92" on="1"/>
      </contour>
    </TTGlyph>
    <TTGlyph name="dagger" xMin="42" yMin="0" xMax="329" yMax="688">
      <contour>
        <pt x="138" y="431" on="1"/>
        <pt x="42" y="440" on="1"/>
        <pt x="42" y="516" on="1"/>
        <pt x="138" y="525" on="1"/>
        <pt x="146" y="688" on="1"/>
        <pt x="222" y="688" on="1"/>
        <pt x="231" y="525" on="1"/>
        <pt x="329" y="516" on="1"/>
        <pt x="329" y="440" on="1"/>
        <pt x="231" y="431" on="1"/>
        <pt x="222" y="0" on="1"/>
        <pt x="146" y="0" on="1"/>
      </contour>
    </TTGlyph>
    <TTGlyph name="daggerdbl" xMin="42" yMin="0" xMax="329" yMax="688">
      <contour>
        <pt x="138" y="163" on="1"/>
        <pt x="42" y="172" on="1"/>
        <pt x="42" y="247" on="1"/>
        <pt x="138" y="257" on="1"/>
        <pt x="138" y="431" on="1"/>
        <pt x="42" y="440" on="1"/>
        <pt x="42" y="516" on="1"/>
        <pt x="138" y="525" on="1"/>
        <pt x="146" y="688" on="1"/>
        <pt x="222" y="688" on="1"/>
        <pt x="231" y="525" on="1"/>
        <pt x="329" y="516" on="1"/>
        <pt x="329" y="440" on="1"/>
        <pt x="231" y="431" on="1"/>
        <pt x="231" y="257" on="1"/>
        <pt x="329" y="247" on="1"/>
        <pt x="329" y="172" on="1"/>
        <pt x="231" y="163" on="1"/>
        <pt x="222" y="0" on="1"/>
        <pt x="146" y="0" on="1"/>
      </contour>
    </TTGlyph>
    <TTGlyph name="dcaron" xMin="39" yMin="-8" xMax="543" yMax="743">
      <component glyphName="d" x="0" y="0" flags="0x0"/>
      <component glyphName="caron.loclCSY" x="392" y="0" flags="0x0"/>
    </TTGlyph>
    <TTGlyph name="dcroat" xMin="39" yMin="-8" xMax="437" yMax="743">
      <contour>
        <pt x="437" y="595" on="1"/>
        <pt x="392" y="595" on="1"/>
        <pt x="392" y="0" on="1"/>
        <pt x="292" y="0" on="1"/>
        <pt x="288" y="63" on="1"/>
        <pt x="281" y="63" on="1"/>
        <pt x="260" y="-8" on="0"/>
        <pt x="172" y="-8" on="1"/>
        <pt x="120" y="-8" on="0"/>
        <pt x="63" y="37" on="0"/>
        <pt x="39" y="149" on="0"/>
        <pt x="39" y="253" on="1"/>
        <pt x="39" y="356" on="0"/>
        <pt x="62" y="469" on="0"/>
        <pt x="118" y="518" on="0"/>
        <pt x="170" y="518" on="1"/>
        <pt x="253" y="518" on="0"/>
        <pt x="278" y="455" on="1"/>
        <pt x="284" y="455" on="1"/>
        <pt x="284" y="595" on="1"/>
        <pt x="188" y="595" on="1"/>
        <pt x="188" y="688" on="1"/>
        <pt x="284" y="688" on="1"/>
        <pt x="284" y="743" on="1"/>
        <pt x="392" y="743" on="1"/>
        <pt x="392" y="688" on="1"/>
        <pt x="437" y="688" on="1"/>
      </contour>
      <contour>
        <pt x="284" y="162" on="0"/>
        <pt x="284" y="255" on="1"/>
        <pt x="284" y="332" on="0"/>
        <pt x="279" y="362" on="1"/>
        <pt x="274" y="394" on="0"/>
        <pt x="246" y="418" on="0"/>
        <pt x="217" y="418" on="1"/>
        <pt x="183" y="418" on="0"/>
        <pt x="156" y="399" on="0"/>
        <pt x="147" y="335" on="0"/>
        <pt x="147" y="255" on="1"/>
        <pt x="147" y="175" on="0"/>
        <pt x="156" y="111" on="0"/>
        <pt x="183" y="92" on="0"/>
        <pt x="217" y="92" on="1"/>
        <pt x="242" y="92" on="0"/>
        <pt x="268" y="109" on="0"/>
        <pt x="275" y="130" on="1"/>
      </contour>
    </TTGlyph>
    <TTGlyph name="degree" xMin="41" yMin="397" xMax="277" yMax="696">
      <contour>
        <pt x="102" y="397" on="0"/>
        <pt x="53" y="425" on="0"/>
        <pt x="41" y="482" on="0"/>
        <pt x="41" y="546" on="1"/>
        <pt x="41" y="610" on="0"/>
        <pt x="53" y="667" on="0"/>
        <pt x="102" y="696" on="0"/>
        <pt x="158" y="696" on="1"/>
        <pt x="214" y="696" on="0"/>
        <pt x="264" y="667" on="0"/>
        <pt x="277" y="609" on="0"/>
        <pt x="277" y="546" on="1"/>
        <pt x="277" y="483" on="0"/>
        <pt x="264" y="425" on="0"/>
        <pt x="215" y="397" on="0"/>
        <pt x="158" y="397" on="1"/>
      </contour>
      <contour>
        <pt x="181" y="456" on="0"/>
        <pt x="199" y="469" on="0"/>
        <pt x="204" y="503" on="0"/>
        <pt x="204" y="546" on="1"/>
        <pt x="204" y="589" on="0"/>
        <pt x="199" y="623" on="0"/>
        <pt x="181" y="636" on="0"/>
        <pt x="158" y="636" on="1"/>
        <pt x="136" y="636" on="0"/>
        <pt x="118" y="623" on="0"/>
        <pt x="114" y="589" on="0"/>
        <pt x="114" y="546" on="1"/>
        <pt x="114" y="503" on="0"/>
        <pt x="118" y="469" on="0"/>
        <pt x="136" y="456" on="0"/>
        <pt x="158" y="456" on="1"/>
      </contour>
    </TTGlyph>
    <TTGlyph name="dialog" xMin="59" yMin="-212" xMax="746" yMax="688">
      <contour>
        <pt x="306" y="-127" on="1"/>
        <pt x="494" y="60" on="1"/>
        <pt x="686" y="60" on="1"/>
        <pt x="686" y="628" on="1"/>
        <pt x="119" y="628" on="1"/>
        <pt x="119" y="60" on="1"/>
        <pt x="306" y="60" on="1"/>
        <pt x="306" y="0" on="1"/>
        <pt x="59" y="0" on="1"/>
        <pt x="59" y="688" on="1"/>
        <pt x="746" y="688" on="1"/>
        <pt x="746" y="0" on="1"/>
        <pt x="519" y="0" on="1"/>
        <pt x="306" y="-212" on="1"/>
      </contour>
    </TTGlyph>
    <TTGlyph name="dieresis" xMin="11" yMin="635" xMax="282" yMax="730">
      <contour>
        <pt x="11" y="730" on="1"/>
        <pt x="108" y="730" on="1"/>
        <pt x="108" y="635" on="1"/>
        <pt x="11" y="635" on="1"/>
      </contour>
      <contour>
        <pt x="186" y="730" on="1"/>
        <pt x="282" y="730" on="1"/>
        <pt x="282" y="635" on="1"/>
        <pt x="186" y="635" on="1"/>
      </contour>
    </TTGlyph>
    <TTGlyph name="divide" xMin="58" yMin="44" xMax="417" yMax="461">
      <contour>
        <pt x="190" y="461" on="1"/>
        <pt x="285" y="461" on="1"/>
        <pt x="285" y="376" on="1"/>
        <pt x="190" y="376" on="1"/>
      </contour>
      <contour>
        <pt x="58" y="299" on="1"/>
        <pt x="417" y="299" on="1"/>
        <pt x="417" y="206" on="1"/>
        <pt x="58" y="206" on="1"/>
      </contour>
      <contour>
        <pt x="190" y="130" on="1"/>
        <pt x="285" y="130" on="1"/>
        <pt x="285" y="44" on="1"/>
        <pt x="190" y="44" on="1"/>
      </contour>
    </TTGlyph>
    <TTGlyph name="dollar" xMin="43" yMin="-8" xMax="366" yMax="696">
      <contour>
        <pt x="167" y="70" on="1"/>
        <pt x="100" y="73" on="0"/>
        <pt x="54" y="85" on="1"/>
        <pt x="54" y="176" on="1"/>
        <pt x="93" y="171" on="0"/>
        <pt x="149" y="167" on="0"/>
        <pt x="181" y="167" on="1"/>
        <pt x="213" y="167" on="0"/>
        <pt x="244" y="178" on="0"/>
        <pt x="255" y="204" on="0"/>
        <pt x="255" y="229" on="1"/>
        <pt x="255" y="258" on="0"/>
        <pt x="249" y="283" on="0"/>
        <pt x="234" y="291" on="0"/>
        <pt x="216" y="294" on="1"/>
        <pt x="158" y="303" on="1"/>
        <pt x="110" y="311" on="0"/>
        <pt x="61" y="343" on="0"/>
        <pt x="43" y="405" on="0"/>
        <pt x="43" y="460" on="1"/>
        <pt x="43" y="536" on="0"/>
        <pt x="105" y="609" on="0"/>
        <pt x="167" y="617" on="1"/>
        <pt x="167" y="696" on="1"/>
        <pt x="249" y="696" on="1"/>
        <pt x="249" y="619" on="1"/>
        <pt x="273" y="618" on="0"/>
        <pt x="325" y="608" on="0"/>
        <pt x="341" y="603" on="1"/>
        <pt x="341" y="513" on="1"/>
        <pt x="285" y="522" on="0"/>
        <pt x="225" y="522" on="1"/>
        <pt x="184" y="522" on="0"/>
        <pt x="154" y="498" on="0"/>
        <pt x="154" y="462" on="1"/>
        <pt x="154" y="436" on="0"/>
        <pt x="160" y="412" on="0"/>
        <pt x="175" y="403" on="0"/>
        <pt x="192" y="401" on="1"/>
        <pt x="256" y="393" on="1"/>
        <pt x="294" y="388" on="0"/>
        <pt x="340" y="362" on="0"/>
        <pt x="366" y="297" on="0"/>
        <pt x="366" y="237" on="1"/>
        <pt x="366" y="155" on="0"/>
        <pt x="308" y="80" on="0"/>
        <pt x="249" y="72" on="1"/>
        <pt x="249" y="-8" on="1"/>
        <pt x="167" y="-8" on="1"/>
      </contour>
    </TTGlyph>
    <TTGlyph name="dollar.bold" xMin="43" yMin="-8" xMax="366" yMax="696">
      <contour>
        <pt x="366" y="159" on="0"/>
        <pt x="311" y="81" on="0"/>
        <pt x="249" y="72" on="1"/>
        <pt x="249" y="-8" on="1"/>
        <pt x="167" y="-8" on="1"/>
        <pt x="167" y="70" on="1"/>
        <pt x="101" y="73" on="0"/>
        <pt x="54" y="85" on="1"/>
        <pt x="54" y="176" on="1"/>
        <pt x="119" y="169" on="0"/>
        <pt x="167" y="167" on="1"/>
        <pt x="167" y="302" on="1"/>
        <pt x="158" y="303" on="1"/>
        <pt x="110" y="311" on="0"/>
        <pt x="61" y="343" on="0"/>
        <pt x="43" y="405" on="0"/>
        <pt x="43" y="460" on="1"/>
        <pt x="43" y="534" on="0"/>
        <pt x="102" y="608" on="0"/>
        <pt x="167" y="617" on="1"/>
        <pt x="167" y="696" on="1"/>
        <pt x="249" y="696" on="1"/>
        <pt x="249" y="619" on="1"/>
        <pt x="308" y="616" on="0"/>
        <pt x="341" y="603" on="1"/>
        <pt x="341" y="513" on="1"/>
        <pt x="315" y="517" on="0"/>
        <pt x="249" y="522" on="1"/>
        <pt x="249" y="394" on="1"/>
        <pt x="256" y="393" on="1"/>
        <pt x="294" y="388" on="0"/>
        <pt x="340" y="362" on="0"/>
        <pt x="366" y="297" on="0"/>
        <pt x="366" y="237" on="1"/>
      </contour>
      <contour>
        <pt x="154" y="437" on="0"/>
        <pt x="160" y="413" on="0"/>
        <pt x="167" y="408" on="1"/>
        <pt x="167" y="509" on="1"/>
        <pt x="154" y="496" on="0"/>
        <pt x="154" y="462" on="1"/>
      </contour>
      <contour>
        <pt x="255" y="201" on="0"/>
        <pt x="255" y="229" on="1"/>
        <pt x="255" y="268" on="0"/>
        <pt x="249" y="278" on="1"/>
        <pt x="249" y="190" on="1"/>
      </contour>
    </TTGlyph>
    <TTGlyph name="dotaccent" xMin="10" yMin="635" xMax="106" yMax="730">
      <contour>
        <pt x="10" y="730" on="1"/>
        <pt x="106" y="730" on="1"/>
        <pt x="106" y="635" on="1"/>
        <pt x="10" y="635" on="1"/>
      </contour>
    </TTGlyph>
    <TTGlyph name="dotbelowcomb" xMin="-172" yMin="-181" xMax="-51" yMax="-62">
      <contour>
        <pt x="-172" y="-62" on="1"/>
        <pt x="-51" y="-62" on="1"/>
        <pt x="-51" y="-181" on="1"/>
        <pt x="-172" y="-181" on="1"/>
      </contour>
    </TTGlyph>
    <TTGlyph name="dotlessi" xMin="53" yMin="0" xMax="161" yMax="510">
      <contour>
        <pt x="53" y="510" on="1"/>
        <pt x="161" y="510" on="1"/>
        <pt x="161" y="0" on="1"/>
        <pt x="53" y="0" on="1"/>
      </contour>
    </TTGlyph>
    <TTGlyph name="e" xMin="39" yMin="-8" xMax="384" yMax="518">
      <contour>
        <pt x="384" y="218" on="1"/>
        <pt x="147" y="218" on="1"/>
        <pt x="147" y="153" on="0"/>
        <pt x="159" y="102" on="0"/>
        <pt x="199" y="85" on="0"/>
        <pt x="249" y="85" on="1"/>
        <pt x="297" y="85" on="0"/>
        <pt x="372" y="93" on="1"/>
        <pt x="372" y="8" on="1"/>
        <pt x="347" y="1" on="0"/>
        <pt x="264" y="-8" on="0"/>
        <pt x="225" y="-8" on="1"/>
        <pt x="141" y="-8" on="0"/>
        <pt x="62" y="43" on="0"/>
        <pt x="39" y="148" on="0"/>
        <pt x="39" y="254" on="1"/>
        <pt x="39" y="359" on="0"/>
        <pt x="61" y="465" on="0"/>
        <pt x="137" y="518" on="0"/>
        <pt x="218" y="518" on="1"/>
        <pt x="298" y="518" on="0"/>
        <pt x="367" y="467" on="0"/>
        <pt x="384" y="366" on="0"/>
        <pt x="384" y="255" on="1"/>
      </contour>
      <contour>
        <pt x="185" y="425" on="0"/>
        <pt x="157" y="407" on="0"/>
        <pt x="148" y="357" on="0"/>
        <pt x="147" y="298" on="1"/>
        <pt x="281" y="298" on="1"/>
        <pt x="281" y="299" on="1"/>
        <pt x="281" y="357" on="0"/>
        <pt x="271" y="409" on="0"/>
        <pt x="245" y="425" on="0"/>
        <pt x="216" y="425" on="1"/>
      </contour>
    </TTGlyph>
    <TTGlyph name="eacute" xMin="39" yMin="-8" xMax="384" yMax="743">
      <component glyphName="e" x="0" y="0" flags="0x0"/>
      <component glyphName="acute" x="163" y="0" flags="0x0"/>
    </TTGlyph>
    <TTGlyph name="ebreve" xMin="39" yMin="-8" xMax="384" yMax="743">
      <component glyphName="e" x="0" y="0" flags="0x0"/>
      <component glyphName="uni0306" x="342" y="0" flags="0x0"/>
    </TTGlyph>
    <TTGlyph name="ecaron" xMin="39" yMin="-8" xMax="384" yMax="743">
      <component glyphName="e" x="0" y="0" flags="0x0"/>
      <component glyphName="uni030C" x="350" y="0" flags="0x0"/>
    </TTGlyph>
    <TTGlyph name="ecircumflex" xMin="39" yMin="-8" xMax="384" yMax="743">
      <component glyphName="e" x="0" y="0" flags="0x0"/>
      <component glyphName="circumflex" x="80" y="0" flags="0x0"/>
    </TTGlyph>
    <TTGlyph name="edieresis" xMin="39" yMin="-8" xMax="384" yMax="722">
      <component glyphName="e" x="0" y="0" flags="0x0"/>
      <component glyphName="dieresis" x="71" y="-8" flags="0x4"/>
    </TTGlyph>
    <TTGlyph name="edotaccent" xMin="39" yMin="-8" xMax="384" yMax="730">
      <component glyphName="e" x="0" y="0" flags="0x0"/>
      <component glyphName="uni0307" x="269" y="0" flags="0x0"/>
    </TTGlyph>
    <TTGlyph name="egrave" xMin="39" yMin="-8" xMax="384" yMax="743">
      <component glyphName="e" x="0" y="0" flags="0x0"/>
      <component glyphName="grave" x="99" y="0" flags="0x0"/>
    </TTGlyph>
    <TTGlyph name="eight" xMin="43" yMin="-8" xMax="446" yMax="696">
      <contour>
        <pt x="166" y="-8" on="0"/>
        <pt x="79" y="31" on="0"/>
        <pt x="43" y="113" on="0"/>
        <pt x="43" y="182" on="1"/>
        <pt x="43" y="239" on="0"/>
        <pt x="63" y="306" on="0"/>
        <pt x="103" y="339" on="0"/>
        <pt x="136" y="349" on="1"/>
        <pt x="136" y="353" on="1"/>
        <pt x="90" y="365" on="0"/>
        <pt x="47" y="442" on="0"/>
        <pt x="47" y="517" on="1"/>
        <pt x="47" y="584" on="0"/>
        <pt x="86" y="661" on="0"/>
        <pt x="171" y="696" on="0"/>
        <pt x="244" y="696" on="1"/>
        <pt x="316" y="696" on="0"/>
        <pt x="402" y="661" on="0"/>
        <pt x="441" y="583" on="0"/>
        <pt x="441" y="517" on="1"/>
        <pt x="441" y="442" on="0"/>
        <pt x="397" y="365" on="0"/>
        <pt x="351" y="353" on="1"/>
        <pt x="351" y="349" on="1"/>
        <pt x="385" y="339" on="0"/>
        <pt x="425" y="306" on="0"/>
        <pt x="446" y="239" on="0"/>
        <pt x="446" y="182" on="1"/>
        <pt x="446" y="113" on="0"/>
        <pt x="410" y="31" on="0"/>
        <pt x="322" y="-8" on="0"/>
        <pt x="244" y="-8" on="1"/>
      </contour>
      <contour>
        <pt x="279" y="397" on="0"/>
        <pt x="313" y="411" on="0"/>
        <pt x="327" y="453" on="0"/>
        <pt x="327" y="496" on="1"/>
        <pt x="327" y="540" on="0"/>
        <pt x="314" y="581" on="0"/>
        <pt x="280" y="595" on="0"/>
        <pt x="244" y="595" on="1"/>
        <pt x="208" y="595" on="0"/>
        <pt x="174" y="581" on="0"/>
        <pt x="161" y="540" on="0"/>
        <pt x="161" y="496" on="1"/>
        <pt x="161" y="452" on="0"/>
        <pt x="174" y="411" on="0"/>
        <pt x="208" y="397" on="0"/>
        <pt x="244" y="397" on="1"/>
      </contour>
      <contour>
        <pt x="280" y="93" on="0"/>
        <pt x="316" y="107" on="0"/>
        <pt x="332" y="150" on="0"/>
        <pt x="332" y="195" on="1"/>
        <pt x="332" y="241" on="0"/>
        <pt x="317" y="284" on="0"/>
        <pt x="281" y="298" on="0"/>
        <pt x="244" y="298" on="1"/>
        <pt x="206" y="298" on="0"/>
        <pt x="171" y="284" on="0"/>
        <pt x="157" y="242" on="0"/>
        <pt x="157" y="195" on="1"/>
        <pt x="157" y="149" on="0"/>
        <pt x="172" y="107" on="0"/>
        <pt x="208" y="93" on="0"/>
        <pt x="244" y="93" on="1"/>
      </contour>
    </TTGlyph>
    <TTGlyph name="eight.dnom" xMin="30" yMin="-4" xMax="271" yMax="384">
      <contour>
        <pt x="83" y="-4" on="0"/>
        <pt x="30" y="42" on="0"/>
        <pt x="30" y="100" on="1"/>
        <pt x="30" y="146" on="0"/>
        <pt x="57" y="185" on="0"/>
        <pt x="87" y="193" on="1"/>
        <pt x="87" y="195" on="1"/>
        <pt x="59" y="202" on="0"/>
        <pt x="32" y="245" on="0"/>
        <pt x="32" y="286" on="1"/>
        <pt x="32" y="341" on="0"/>
        <pt x="87" y="384" on="0"/>
        <pt x="151" y="384" on="1"/>
        <pt x="213" y="384" on="0"/>
        <pt x="268" y="341" on="0"/>
        <pt x="268" y="286" on="1"/>
        <pt x="268" y="245" on="0"/>
        <pt x="241" y="202" on="0"/>
        <pt x="213" y="195" on="1"/>
        <pt x="213" y="193" on="1"/>
        <pt x="244" y="185" on="0"/>
        <pt x="271" y="146" on="0"/>
        <pt x="271" y="100" on="1"/>
        <pt x="271" y="43" on="0"/>
        <pt x="218" y="-4" on="0"/>
        <pt x="151" y="-4" on="1"/>
      </contour>
      <contour>
        <pt x="179" y="225" on="0"/>
        <pt x="197" y="242" on="0"/>
        <pt x="197" y="272" on="1"/>
        <pt x="197" y="293" on="0"/>
        <pt x="190" y="312" on="0"/>
        <pt x="171" y="317" on="0"/>
        <pt x="151" y="317" on="1"/>
        <pt x="130" y="317" on="0"/>
        <pt x="111" y="312" on="0"/>
        <pt x="103" y="293" on="0"/>
        <pt x="103" y="272" on="1"/>
        <pt x="103" y="241" on="0"/>
        <pt x="121" y="225" on="0"/>
        <pt x="151" y="225" on="1"/>
      </contour>
      <contour>
        <pt x="171" y="63" on="0"/>
        <pt x="190" y="69" on="0"/>
        <pt x="199" y="88" on="0"/>
        <pt x="199" y="110" on="1"/>
        <pt x="199" y="141" on="0"/>
        <pt x="180" y="158" on="0"/>
        <pt x="151" y="158" on="1"/>
        <pt x="120" y="158" on="0"/>
        <pt x="101" y="141" on="0"/>
        <pt x="101" y="110" on="1"/>
        <pt x="101" y="88" on="0"/>
        <pt x="110" y="69" on="0"/>
        <pt x="130" y="63" on="0"/>
        <pt x="151" y="63" on="1"/>
      </contour>
    </TTGlyph>
    <TTGlyph name="eight.numr" xMin="30" yMin="304" xMax="271" yMax="692">
      <component glyphName="eight.dnom" x="0" y="308" flags="0x4"/>
    </TTGlyph>
    <TTGlyph name="eight.tnum" xMin="37" yMin="-8" xMax="441" yMax="696">
      <contour>
        <pt x="161" y="-8" on="0"/>
        <pt x="73" y="31" on="0"/>
        <pt x="37" y="113" on="0"/>
        <pt x="37" y="182" on="1"/>
        <pt x="37" y="239" on="0"/>
        <pt x="58" y="306" on="0"/>
        <pt x="98" y="339" on="0"/>
        <pt x="131" y="349" on="1"/>
        <pt x="131" y="353" on="1"/>
        <pt x="85" y="365" on="0"/>
        <pt x="42" y="442" on="0"/>
        <pt x="42" y="517" on="1"/>
        <pt x="42" y="584" on="0"/>
        <pt x="81" y="661" on="0"/>
        <pt x="166" y="696" on="0"/>
        <pt x="239" y="696" on="1"/>
        <pt x="311" y="696" on="0"/>
        <pt x="396" y="661" on="0"/>
        <pt x="435" y="584" on="0"/>
        <pt x="435" y="517" on="1"/>
        <pt x="435" y="442" on="0"/>
        <pt x="392" y="365" on="0"/>
        <pt x="346" y="353" on="1"/>
        <pt x="346" y="349" on="1"/>
        <pt x="380" y="339" on="0"/>
        <pt x="420" y="306" on="0"/>
        <pt x="441" y="239" on="0"/>
        <pt x="441" y="182" on="1"/>
        <pt x="441" y="113" on="0"/>
        <pt x="405" y="31" on="0"/>
        <pt x="317" y="-8" on="0"/>
        <pt x="239" y="-8" on="1"/>
      </contour>
      <contour>
        <pt x="274" y="397" on="0"/>
        <pt x="308" y="411" on="0"/>
        <pt x="322" y="453" on="0"/>
        <pt x="322" y="496" on="1"/>
        <pt x="322" y="540" on="0"/>
        <pt x="309" y="581" on="0"/>
        <pt x="275" y="595" on="0"/>
        <pt x="239" y="595" on="1"/>
        <pt x="203" y="595" on="0"/>
        <pt x="168" y="581" on="0"/>
        <pt x="155" y="540" on="0"/>
        <pt x="155" y="496" on="1"/>
        <pt x="155" y="453" on="0"/>
        <pt x="169" y="411" on="0"/>
        <pt x="203" y="397" on="0"/>
        <pt x="239" y="397" on="1"/>
      </contour>
      <contour>
        <pt x="275" y="93" on="0"/>
        <pt x="311" y="107" on="0"/>
        <pt x="326" y="149" on="0"/>
        <pt x="326" y="195" on="1"/>
        <pt x="326" y="241" on="0"/>
        <pt x="311" y="284" on="0"/>
        <pt x="276" y="298" on="0"/>
        <pt x="239" y="298" on="1"/>
        <pt x="201" y="298" on="0"/>
        <pt x="166" y="284" on="0"/>
        <pt x="152" y="242" on="0"/>
        <pt x="152" y="195" on="1"/>
        <pt x="152" y="149" on="0"/>
        <pt x="167" y="107" on="0"/>
        <pt x="203" y="93" on="0"/>
        <pt x="239" y="93" on="1"/>
      </contour>
    </TTGlyph>
    <TTGlyph name="ellipsis" xMin="52" yMin="0" xMax="621" yMax="118">
      <contour>
        <pt x="52" y="118" on="1"/>
        <pt x="173" y="118" on="1"/>
        <pt x="173" y="0" on="1"/>
        <pt x="52" y="0" on="1"/>
      </contour>
      <contour>
        <pt x="276" y="118" on="1"/>
        <pt x="397" y="118" on="1"/>
        <pt x="397" y="0" on="1"/>
        <pt x="276" y="0" on="1"/>
      </contour>
      <contour>
        <pt x="501" y="118" on="1"/>
        <pt x="621" y="118" on="1"/>
        <pt x="621" y="0" on="1"/>
        <pt x="501" y="0" on="1"/>
      </contour>
    </TTGlyph>
    <TTGlyph name="emacron" xMin="39" yMin="-8" xMax="384" yMax="743">
      <component glyphName="e" x="0" y="0" flags="0x0"/>
      <component glyphName="uni0304" x="363" y="0" flags="0x0"/>
    </TTGlyph>
    <TTGlyph name="emdash" xMin="47" yMin="257" xMax="771" yMax="351">
      <contour>
        <pt x="47" y="351" on="1"/>
        <pt x="771" y="351" on="1"/>
        <pt x="771" y="257" on="1"/>
        <pt x="47" y="257" on="1"/>
      </contour>
    </TTGlyph>
    <TTGlyph name="endash" xMin="47" yMin="257" xMax="394" yMax="351">
      <contour>
        <pt x="47" y="351" on="1"/>
        <pt x="394" y="351" on="1"/>
        <pt x="394" y="257" on="1"/>
        <pt x="47" y="257" on="1"/>
      </contour>
    </TTGlyph>
    <TTGlyph name="eng" xMin="53" yMin="-193" xMax="398" yMax="518">
      <contour>
        <pt x="329" y="518" on="0"/>
        <pt x="380" y="479" on="0"/>
        <pt x="398" y="400" on="0"/>
        <pt x="398" y="331" on="1"/>
        <pt x="398" y="-13" on="1"/>
        <pt x="398" y="-96" on="0"/>
        <pt x="369" y="-171" on="0"/>
        <pt x="301" y="-193" on="0"/>
        <pt x="227" y="-193" on="1"/>
        <pt x="227" y="-107" on="1"/>
        <pt x="256" y="-107" on="0"/>
        <pt x="283" y="-97" on="0"/>
        <pt x="290" y="-76" on="0"/>
        <pt x="290" y="-55" on="1"/>
        <pt x="290" y="281" on="1"/>
        <pt x="290" y="348" on="0"/>
        <pt x="282" y="402" on="0"/>
        <pt x="258" y="417" on="0"/>
        <pt x="228" y="417" on="1"/>
        <pt x="196" y="417" on="0"/>
        <pt x="168" y="390" on="0"/>
        <pt x="161" y="332" on="0"/>
        <pt x="161" y="266" on="1"/>
        <pt x="161" y="0" on="1"/>
        <pt x="53" y="0" on="1"/>
        <pt x="53" y="510" on="1"/>
        <pt x="152" y="510" on="1"/>
        <pt x="156" y="446" on="1"/>
        <pt x="162" y="446" on="1"/>
        <pt x="175" y="484" on="0"/>
        <pt x="233" y="518" on="0"/>
        <pt x="279" y="518" on="1"/>
      </contour>
    </TTGlyph>
    <TTGlyph name="eogonek" xMin="39" yMin="-196" xMax="384" yMax="518">
      <contour>
        <pt x="384" y="218" on="1"/>
        <pt x="147" y="218" on="1"/>
        <pt x="147" y="153" on="0"/>
        <pt x="159" y="102" on="0"/>
        <pt x="199" y="85" on="0"/>
        <pt x="249" y="85" on="1"/>
        <pt x="297" y="85" on="0"/>
        <pt x="372" y="93" on="1"/>
        <pt x="372" y="8" on="1"/>
        <pt x="343" y="-12" on="0"/>
        <pt x="298" y="-68" on="0"/>
        <pt x="298" y="-94" on="1"/>
        <pt x="298" y="-110" on="0"/>
        <pt x="317" y="-131" on="0"/>
        <pt x="338" y="-131" on="1"/>
        <pt x="348" y="-131" on="0"/>
        <pt x="353" y="-130" on="1"/>
        <pt x="353" y="-193" on="1"/>
        <pt x="328" y="-196" on="0"/>
        <pt x="308" y="-196" on="1"/>
        <pt x="257" y="-196" on="0"/>
        <pt x="211" y="-151" on="0"/>
        <pt x="211" y="-117" on="1"/>
        <pt x="211" y="-60" on="0"/>
        <pt x="272" y="-6" on="1"/>
        <pt x="240" y="-8" on="0"/>
        <pt x="225" y="-8" on="1"/>
        <pt x="141" y="-8" on="0"/>
        <pt x="62" y="43" on="0"/>
        <pt x="39" y="148" on="0"/>
        <pt x="39" y="254" on="1"/>
        <pt x="39" y="359" on="0"/>
        <pt x="61" y="465" on="0"/>
        <pt x="137" y="518" on="0"/>
        <pt x="218" y="518" on="1"/>
        <pt x="298" y="518" on="0"/>
        <pt x="367" y="467" on="0"/>
        <pt x="384" y="366" on="0"/>
        <pt x="384" y="255" on="1"/>
      </contour>
      <contour>
        <pt x="185" y="425" on="0"/>
        <pt x="157" y="407" on="0"/>
        <pt x="148" y="357" on="0"/>
        <pt x="147" y="298" on="1"/>
        <pt x="281" y="298" on="1"/>
        <pt x="281" y="299" on="1"/>
        <pt x="281" y="357" on="0"/>
        <pt x="271" y="409" on="0"/>
        <pt x="245" y="425" on="0"/>
        <pt x="216" y="425" on="1"/>
      </contour>
    </TTGlyph>
    <TTGlyph name="equal" xMin="58" yMin="116" xMax="417" yMax="390">
      <contour>
        <pt x="58" y="390" on="1"/>
        <pt x="417" y="390" on="1"/>
        <pt x="417" y="296" on="1"/>
        <pt x="58" y="296" on="1"/>
      </contour>
      <contour>
        <pt x="58" y="210" on="1"/>
        <pt x="417" y="210" on="1"/>
        <pt x="417" y="116" on="1"/>
        <pt x="58" y="116" on="1"/>
      </contour>
    </TTGlyph>
    <TTGlyph name="estimated" xMin="45" yMin="-8" xMax="464" yMax="696">
      <contour>
        <pt x="159" y="170" on="0"/>
        <pt x="171" y="56" on="0"/>
        <pt x="207" y="26" on="0"/>
        <pt x="257" y="26" on="1"/>
        <pt x="322" y="26" on="0"/>
        <pt x="380" y="44" on="0"/>
        <pt x="411" y="117" on="0"/>
        <pt x="416" y="200" on="1"/>
        <pt x="452" y="200" on="1"/>
        <pt x="448" y="117" on="0"/>
        <pt x="413" y="29" on="0"/>
        <pt x="332" y="-8" on="0"/>
        <pt x="254" y="-8" on="1"/>
        <pt x="153" y="-8" on="0"/>
        <pt x="67" y="51" on="0"/>
        <pt x="45" y="186" on="0"/>
        <pt x="45" y="344" on="1"/>
        <pt x="45" y="502" on="0"/>
        <pt x="67" y="637" on="0"/>
        <pt x="153" y="696" on="0"/>
        <pt x="254" y="696" on="1"/>
        <pt x="355" y="696" on="0"/>
        <pt x="441" y="637" on="0"/>
        <pt x="464" y="501" on="0"/>
        <pt x="464" y="344" on="1"/>
        <pt x="464" y="323" on="1"/>
        <pt x="159" y="323" on="1"/>
      </contour>
      <contour>
        <pt x="205" y="662" on="0"/>
        <pt x="170" y="631" on="0"/>
        <pt x="159" y="515" on="0"/>
        <pt x="159" y="357" on="1"/>
        <pt x="350" y="357" on="1"/>
        <pt x="350" y="514" on="0"/>
        <pt x="338" y="631" on="0"/>
        <pt x="303" y="662" on="0"/>
        <pt x="254" y="662" on="1"/>
      </contour>
    </TTGlyph>
    <TTGlyph name="eth" xMin="39" yMin="-8" xMax="395" yMax="743">
      <contour>
        <pt x="134" y="-8" on="0"/>
        <pt x="60" y="38" on="0"/>
        <pt x="39" y="141" on="0"/>
        <pt x="39" y="254" on="1"/>
        <pt x="39" y="355" on="0"/>
        <pt x="57" y="462" on="0"/>
        <pt x="117" y="517" on="0"/>
        <pt x="181" y="517" on="1"/>
        <pt x="231" y="517" on="0"/>
        <pt x="262" y="500" on="1"/>
        <pt x="264" y="503" on="1"/>
        <pt x="248" y="565" on="0"/>
        <pt x="227" y="610" on="1"/>
        <pt x="137" y="596" on="1"/>
        <pt x="137" y="663" on="1"/>
        <pt x="195" y="672" on="1"/>
        <pt x="175" y="704" on="0"/>
        <pt x="147" y="739" on="1"/>
        <pt x="147" y="743" on="1"/>
        <pt x="258" y="743" on="1"/>
        <pt x="278" y="719" on="0"/>
        <pt x="298" y="688" on="1"/>
        <pt x="383" y="701" on="1"/>
        <pt x="383" y="634" on="1"/>
        <pt x="332" y="626" on="1"/>
        <pt x="359" y="564" on="0"/>
        <pt x="378" y="466" on="1"/>
        <pt x="395" y="391" on="0"/>
        <pt x="395" y="261" on="1"/>
        <pt x="395" y="144" on="0"/>
        <pt x="375" y="39" on="0"/>
        <pt x="301" y="-8" on="0"/>
        <pt x="217" y="-8" on="1"/>
      </contour>
      <contour>
        <pt x="253" y="85" on="0"/>
        <pt x="281" y="106" on="0"/>
        <pt x="287" y="168" on="0"/>
        <pt x="287" y="254" on="1"/>
        <pt x="287" y="336" on="0"/>
        <pt x="281" y="399" on="0"/>
        <pt x="252" y="425" on="0"/>
        <pt x="217" y="425" on="1"/>
        <pt x="180" y="425" on="0"/>
        <pt x="153" y="405" on="0"/>
        <pt x="147" y="343" on="0"/>
        <pt x="147" y="254" on="1"/>
        <pt x="147" y="168" on="0"/>
        <pt x="153" y="106" on="0"/>
        <pt x="181" y="85" on="0"/>
        <pt x="217" y="85" on="1"/>
      </contour>
    </TTGlyph>
    <TTGlyph name="exclam" xMin="56" yMin="0" xMax="188" yMax="688">
      <contour>
        <pt x="79" y="274" on="0"/>
        <pt x="56" y="584" on="0"/>
        <pt x="56" y="630" on="1"/>
        <pt x="56" y="688" on="1"/>
        <pt x="188" y="688" on="1"/>
        <pt x="188" y="630" on="1"/>
        <pt x="188" y="584" on="0"/>
        <pt x="165" y="274" on="0"/>
        <pt x="159" y="209" on="1"/>
        <pt x="85" y="209" on="1"/>
      </contour>
      <contour>
        <pt x="62" y="118" on="1"/>
        <pt x="182" y="118" on="1"/>
        <pt x="182" y="0" on="1"/>
        <pt x="62" y="0" on="1"/>
      </contour>
    </TTGlyph>
    <TTGlyph name="exclam.case" xMin="56" yMin="0" xMax="188" yMax="688">
      <component glyphName="exclam" x="0" y="0" flags="0x0"/>
    </TTGlyph>
    <TTGlyph name="exclam.ss02" xMin="45" yMin="-8" xMax="749" yMax="696">
      <contour>
        <pt x="302" y="-8" on="0"/>
        <pt x="140" y="87" on="0"/>
        <pt x="45" y="249" on="0"/>
        <pt x="45" y="344" on="1"/>
        <pt x="45" y="439" on="0"/>
        <pt x="140" y="601" on="0"/>
        <pt x="302" y="696" on="0"/>
        <pt x="397" y="696" on="1"/>
        <pt x="492" y="696" on="0"/>
        <pt x="654" y="601" on="0"/>
        <pt x="749" y="439" on="0"/>
        <pt x="749" y="344" on="1"/>
        <pt x="749" y="249" on="0"/>
        <pt x="654" y="87" on="0"/>
        <pt x="492" y="-8" on="0"/>
        <pt x="397" y="-8" on="1"/>
      </contour>
      <contour>
        <pt x="480" y="37" on="0"/>
        <pt x="621" y="120" on="0"/>
        <pt x="704" y="261" on="0"/>
        <pt x="704" y="344" on="1"/>
        <pt x="704" y="427" on="0"/>
        <pt x="621" y="568" on="0"/>
        <pt x="480" y="651" on="0"/>
        <pt x="397" y="651" on="1"/>
        <pt x="314" y="651" on="0"/>
        <pt x="173" y="568" on="0"/>
        <pt x="90" y="427" on="0"/>
        <pt x="90" y="344" on="1"/>
        <pt x="90" y="261" on="0"/>
        <pt x="173" y="120" on="0"/>
        <pt x="314" y="37" on="0"/>
        <pt x="397" y="37" on="1"/>
      </contour>
      <contour>
        <pt x="371" y="310" on="0"/>
        <pt x="363" y="429" on="0"/>
        <pt x="363" y="480" on="1"/>
        <pt x="363" y="579" on="1"/>
        <pt x="431" y="579" on="1"/>
        <pt x="431" y="480" on="1"/>
        <pt x="431" y="429" on="0"/>
        <pt x="423" y="310" on="0"/>
        <pt x="417" y="268" on="1"/>
        <pt x="377" y="268" on="1"/>
      </contour>
      <contour>
        <pt x="363" y="191" on="1"/>
        <pt x="431" y="191" on="1"/>
        <pt x="431" y="109" on="1"/>
        <pt x="363" y="109" on="1"/>
      </contour>
    </TTGlyph>
    <TTGlyph name="exclamdbl" xMin="56" yMin="0" xMax="375" yMax="688">
      <component glyphName="exclam" x="187" y="0" flags="0x0"/>
      <component glyphName="exclam" x="0" y="0" flags="0x0"/>
    </TTGlyph>
    <TTGlyph name="exclamdown" xMin="52" yMin="-178" xMax="183" yMax="510">
      <contour>
        <pt x="57" y="510" on="1"/>
        <pt x="178" y="510" on="1"/>
        <pt x="178" y="392" on="1"/>
        <pt x="57" y="392" on="1"/>
      </contour>
      <contour>
        <pt x="52" y="-120" on="1"/>
        <pt x="52" y="-73" on="0"/>
        <pt x="78" y="277" on="0"/>
        <pt x="81" y="301" on="1"/>
        <pt x="154" y="301" on="1"/>
        <pt x="157" y="277" on="0"/>
        <pt x="183" y="-73" on="0"/>
        <pt x="183" y="-120" on="1"/>
        <pt x="183" y="-178" on="1"/>
        <pt x="52" y="-178" on="1"/>
      </contour>
    </TTGlyph>
    <TTGlyph name="exclamdown.case" xMin="52" yMin="0" xMax="183" yMax="688">
      <component glyphName="exclamdown" x="0" y="178" flags="0x4"/>
    </TTGlyph>
    <TTGlyph name="f" xMin="17" yMin="0" xMax="278" yMax="743">
      <contour>
        <pt x="83" y="417" on="1"/>
        <pt x="17" y="417" on="1"/>
        <pt x="17" y="510" on="1"/>
        <pt x="83" y="510" on="1"/>
        <pt x="83" y="557" on="1"/>
        <pt x="83" y="645" on="0"/>
        <pt x="115" y="721" on="0"/>
        <pt x="192" y="743" on="0"/>
        <pt x="278" y="743" on="1"/>
        <pt x="278" y="659" on="1"/>
        <pt x="238" y="659" on="0"/>
        <pt x="203" y="649" on="0"/>
        <pt x="191" y="617" on="0"/>
        <pt x="191" y="581" on="1"/>
        <pt x="191" y="510" on="1"/>
        <pt x="278" y="510" on="1"/>
        <pt x="278" y="417" on="1"/>
        <pt x="191" y="417" on="1"/>
        <pt x="191" y="0" on="1"/>
        <pt x="83" y="0" on="1"/>
      </contour>
    </TTGlyph>
    <TTGlyph name="f_f" xMin="17" yMin="0" xMax="574" yMax="743">
      <component glyphName="f" x="0" y="0" flags="0x0"/>
      <component glyphName="f" x="296" y="0" flags="0x0"/>
    </TTGlyph>
    <TTGlyph name="fi" xMin="17" yMin="0" xMax="458" yMax="743">
      <component glyphName="f" x="0" y="0" flags="0x0"/>
      <component glyphName="i" x="296" y="0" flags="0x0"/>
    </TTGlyph>
    <TTGlyph name="five" xMin="49" yMin="-8" xMax="411" yMax="688">
      <contour>
        <pt x="130" y="95" on="0"/>
        <pt x="184" y="95" on="1"/>
        <pt x="232" y="95" on="0"/>
        <pt x="279" y="114" on="0"/>
        <pt x="297" y="162" on="0"/>
        <pt x="297" y="210" on="1"/>
        <pt x="297" y="260" on="0"/>
        <pt x="277" y="307" on="0"/>
        <pt x="229" y="323" on="0"/>
        <pt x="180" y="323" on="1"/>
        <pt x="115" y="323" on="0"/>
        <pt x="53" y="313" on="1"/>
        <pt x="53" y="688" on="1"/>
        <pt x="380" y="688" on="1"/>
        <pt x="380" y="585" on="1"/>
        <pt x="160" y="585" on="1"/>
        <pt x="160" y="419" on="1"/>
        <pt x="174" y="422" on="0"/>
        <pt x="223" y="426" on="0"/>
        <pt x="245" y="426" on="1"/>
        <pt x="311" y="426" on="0"/>
        <pt x="384" y="378" on="0"/>
        <pt x="411" y="290" on="0"/>
        <pt x="411" y="222" on="1"/>
        <pt x="411" y="138" on="0"/>
        <pt x="378" y="40" on="0"/>
        <pt x="292" y="-8" on="0"/>
        <pt x="212" y="-8" on="1"/>
        <pt x="177" y="-8" on="0"/>
        <pt x="85" y="2" on="0"/>
        <pt x="49" y="9" on="1"/>
        <pt x="49" y="104" on="1"/>
      </contour>
    </TTGlyph>
    <TTGlyph name="five.dnom" xMin="38" yMin="-4" xMax="255" yMax="380">
      <contour>
        <pt x="88" y="64" on="0"/>
        <pt x="115" y="64" on="1"/>
        <pt x="157" y="64" on="0"/>
        <pt x="184" y="84" on="0"/>
        <pt x="184" y="118" on="1"/>
        <pt x="184" y="153" on="0"/>
        <pt x="155" y="173" on="0"/>
        <pt x="113" y="173" on="1"/>
        <pt x="83" y="173" on="0"/>
        <pt x="40" y="168" on="1"/>
        <pt x="40" y="380" on="1"/>
        <pt x="238" y="380" on="1"/>
        <pt x="238" y="311" on="1"/>
        <pt x="108" y="311" on="1"/>
        <pt x="108" y="238" on="1"/>
        <pt x="118" y="240" on="0"/>
        <pt x="145" y="242" on="0"/>
        <pt x="156" y="242" on="1"/>
        <pt x="213" y="242" on="0"/>
        <pt x="255" y="183" on="0"/>
        <pt x="255" y="126" on="1"/>
        <pt x="255" y="79" on="0"/>
        <pt x="236" y="24" on="0"/>
        <pt x="185" y="-4" on="0"/>
        <pt x="137" y="-4" on="1"/>
        <pt x="88" y="-4" on="0"/>
        <pt x="38" y="5" on="1"/>
        <pt x="38" y="68" on="1"/>
      </contour>
    </TTGlyph>
    <TTGlyph name="five.numr" xMin="38" yMin="304" xMax="255" yMax="688">
      <contour>
        <pt x="88" y="372" on="0"/>
        <pt x="115" y="372" on="1"/>
        <pt x="157" y="372" on="0"/>
        <pt x="184" y="392" on="0"/>
        <pt x="184" y="426" on="1"/>
        <pt x="184" y="461" on="0"/>
        <pt x="155" y="481" on="0"/>
        <pt x="113" y="481" on="1"/>
        <pt x="82" y="481" on="0"/>
        <pt x="40" y="476" on="1"/>
        <pt x="40" y="688" on="1"/>
        <pt x="238" y="688" on="1"/>
        <pt x="238" y="619" on="1"/>
        <pt x="108" y="619" on="1"/>
        <pt x="108" y="546" on="1"/>
        <pt x="118" y="548" on="0"/>
        <pt x="145" y="550" on="0"/>
        <pt x="156" y="550" on="1"/>
        <pt x="213" y="550" on="0"/>
        <pt x="255" y="491" on="0"/>
        <pt x="255" y="434" on="1"/>
        <pt x="255" y="387" on="0"/>
        <pt x="236" y="332" on="0"/>
        <pt x="185" y="304" on="0"/>
        <pt x="137" y="304" on="1"/>
        <pt x="88" y="304" on="0"/>
        <pt x="38" y="313" on="1"/>
        <pt x="38" y="376" on="1"/>
      </contour>
    </TTGlyph>
    <TTGlyph name="five.tnum" xMin="64" yMin="-8" xMax="426" yMax="688">
      <contour>
        <pt x="143" y="95" on="0"/>
        <pt x="199" y="95" on="1"/>
        <pt x="247" y="95" on="0"/>
        <pt x="294" y="114" on="0"/>
        <pt x="312" y="162" on="0"/>
        <pt x="312" y="210" on="1"/>
        <pt x="312" y="260" on="0"/>
        <pt x="292" y="307" on="0"/>
        <pt x="244" y="323" on="0"/>
        <pt x="195" y="323" on="1"/>
        <pt x="130" y="323" on="0"/>
        <pt x="68" y="313" on="1"/>
        <pt x="68" y="688" on="1"/>
        <pt x="394" y="688" on="1"/>
        <pt x="394" y="585" on="1"/>
        <pt x="175" y="585" on="1"/>
        <pt x="175" y="419" on="1"/>
        <pt x="189" y="422" on="0"/>
        <pt x="238" y="426" on="0"/>
        <pt x="260" y="426" on="1"/>
        <pt x="326" y="426" on="0"/>
        <pt x="399" y="378" on="0"/>
        <pt x="426" y="290" on="0"/>
        <pt x="426" y="222" on="1"/>
        <pt x="426" y="138" on="0"/>
        <pt x="393" y="40" on="0"/>
        <pt x="307" y="-8" on="0"/>
        <pt x="227" y="-8" on="1"/>
        <pt x="191" y="-8" on="0"/>
        <pt x="99" y="2" on="0"/>
        <pt x="64" y="9" on="1"/>
        <pt x="64" y="104" on="1"/>
      </contour>
    </TTGlyph>
    <TTGlyph name="fiveeighths" xMin="38" yMin="-4" xMax="653" yMax="688">
      <component glyphName="five.numr" x="0" y="0" flags="0x0"/>
      <component glyphName="fraction" x="280" y="0" flags="0x0"/>
      <component glyphName="eight.dnom" x="382" y="0" flags="0x0"/>
    </TTGlyph>
    <TTGlyph name="fl" xMin="17" yMin="0" xMax="457" yMax="743">
      <component glyphName="f" x="0" y="0" flags="0x0"/>
      <component glyphName="l" x="296" y="0" flags="0x0"/>
    </TTGlyph>
    <TTGlyph name="florin" xMin="-92" yMin="-193" xMax="386" yMax="742">
      <contour>
        <pt x="323" y="658" on="0"/>
        <pt x="287" y="644" on="0"/>
        <pt x="265" y="588" on="0"/>
        <pt x="250" y="511" on="1"/>
        <pt x="250" y="510" on="1"/>
        <pt x="337" y="510" on="1"/>
        <pt x="318" y="416" on="1"/>
        <pt x="230" y="416" on="1"/>
        <pt x="142" y="-1" on="1"/>
        <pt x="123" y="-91" on="0"/>
        <pt x="80" y="-168" on="0"/>
        <pt x="-3" y="-193" on="0"/>
        <pt x="-92" y="-193" on="1"/>
        <pt x="-74" y="-109" on="1"/>
        <pt x="-35" y="-109" on="0"/>
        <pt x="1" y="-99" on="0"/>
        <pt x="19" y="-69" on="0"/>
        <pt x="27" y="-33" on="1"/>
        <pt x="123" y="416" on="1"/>
        <pt x="57" y="416" on="1"/>
        <pt x="77" y="510" on="1"/>
        <pt x="143" y="510" on="1"/>
        <pt x="143" y="511" on="1"/>
        <pt x="164" y="620" on="0"/>
        <pt x="208" y="712" on="0"/>
        <pt x="293" y="742" on="0"/>
        <pt x="386" y="742" on="1"/>
        <pt x="369" y="658" on="1"/>
      </contour>
    </TTGlyph>
    <TTGlyph name="four" xMin="25" yMin="0" xMax="444" yMax="688">
      <contour>
        <pt x="267" y="146" on="1"/>
        <pt x="25" y="146" on="1"/>
        <pt x="25" y="235" on="1"/>
        <pt x="179" y="688" on="1"/>
        <pt x="298" y="688" on="1"/>
        <pt x="142" y="248" on="1"/>
        <pt x="267" y="248" on="1"/>
        <pt x="295" y="448" on="1"/>
        <pt x="381" y="448" on="1"/>
        <pt x="381" y="248" on="1"/>
        <pt x="444" y="248" on="1"/>
        <pt x="444" y="146" on="1"/>
        <pt x="381" y="146" on="1"/>
        <pt x="381" y="0" on="1"/>
        <pt x="267" y="0" on="1"/>
      </contour>
    </TTGlyph>
    <TTGlyph name="four.dnom" xMin="15" yMin="0" xMax="268" yMax="380">
      <contour>
        <pt x="160" y="75" on="1"/>
        <pt x="15" y="75" on="1"/>
        <pt x="15" y="134" on="1"/>
        <pt x="103" y="380" on="1"/>
        <pt x="177" y="380" on="1"/>
        <pt x="90" y="142" on="1"/>
        <pt x="158" y="142" on="1"/>
        <pt x="177" y="235" on="1"/>
        <pt x="232" y="235" on="1"/>
        <pt x="232" y="142" on="1"/>
        <pt x="268" y="142" on="1"/>
        <pt x="268" y="75" on="1"/>
        <pt x="232" y="75" on="1"/>
        <pt x="232" y="0" on="1"/>
        <pt x="160" y="0" on="1"/>
      </contour>
    </TTGlyph>
    <TTGlyph name="four.numr" xMin="15" yMin="308" xMax="268" yMax="688">
      <component glyphName="four.dnom" x="0" y="308" flags="0x4"/>
    </TTGlyph>
    <TTGlyph name="four.ss01" xMin="25" yMin="0" xMax="444" yMax="688">
      <contour>
        <pt x="267" y="145" on="1"/>
        <pt x="25" y="145" on="1"/>
        <pt x="25" y="233" on="1"/>
        <pt x="206" y="688" on="1"/>
        <pt x="381" y="688" on="1"/>
        <pt x="381" y="249" on="1"/>
        <pt x="444" y="249" on="1"/>
        <pt x="444" y="145" on="1"/>
        <pt x="381" y="145" on="1"/>
        <pt x="381" y="0" on="1"/>
        <pt x="267" y="0" on="1"/>
      </contour>
      <contour>
        <pt x="267" y="249" on="1"/>
        <pt x="267" y="575" on="1"/>
        <pt x="262" y="575" on="1"/>
        <pt x="133" y="249" on="1"/>
      </contour>
    </TTGlyph>
    <TTGlyph name="four.tnum" xMin="26" yMin="0" xMax="451" yMax="688">
      <contour>
        <pt x="274" y="146" on="1"/>
        <pt x="26" y="146" on="1"/>
        <pt x="26" y="235" on="1"/>
        <pt x="184" y="688" on="1"/>
        <pt x="304" y="688" on="1"/>
        <pt x="144" y="248" on="1"/>
        <pt x="274" y="248" on="1"/>
        <pt x="302" y="448" on="1"/>
        <pt x="388" y="448" on="1"/>
        <pt x="388" y="248" on="1"/>
        <pt x="451" y="248" on="1"/>
        <pt x="451" y="146" on="1"/>
        <pt x="388" y="146" on="1"/>
        <pt x="388" y="0" on="1"/>
        <pt x="274" y="0" on="1"/>
      </contour>
    </TTGlyph>
    <TTGlyph name="fraction" xMin="-158" yMin="0" xMax="260" yMax="688">
      <contour>
        <pt x="188" y="688" on="1"/>
        <pt x="260" y="688" on="1"/>
        <pt x="-86" y="0" on="1"/>
        <pt x="-158" y="0" on="1"/>
      </contour>
    </TTGlyph>
    <TTGlyph name="g" xMin="39" yMin="-200" xMax="391" yMax="518">
      <contour>
        <pt x="169" y="-200" on="0"/>
        <pt x="92" y="-193" on="0"/>
        <pt x="68" y="-188" on="1"/>
        <pt x="68" y="-103" on="1"/>
        <pt x="180" y="-105" on="1"/>
        <pt x="230" y="-105" on="0"/>
        <pt x="271" y="-86" on="0"/>
        <pt x="283" y="-32" on="0"/>
        <pt x="283" y="35" on="1"/>
        <pt x="283" y="62" on="1"/>
        <pt x="277" y="62" on="1"/>
        <pt x="265" y="28" on="0"/>
        <pt x="212" y="-1" on="0"/>
        <pt x="171" y="-1" on="1"/>
        <pt x="118" y="-1" on="0"/>
        <pt x="62" y="45" on="0"/>
        <pt x="39" y="155" on="0"/>
        <pt x="39" y="257" on="1"/>
        <pt x="39" y="361" on="0"/>
        <pt x="63" y="473" on="0"/>
        <pt x="120" y="518" on="0"/>
        <pt x="172" y="518" on="1"/>
        <pt x="258" y="518" on="0"/>
        <pt x="281" y="447" on="1"/>
        <pt x="287" y="447" on="1"/>
        <pt x="291" y="510" on="1"/>
        <pt x="391" y="510" on="1"/>
        <pt x="391" y="65" on="1"/>
        <pt x="391" y="-40" on="0"/>
        <pt x="369" y="-146" on="0"/>
        <pt x="289" y="-200" on="0"/>
        <pt x="204" y="-200" on="1"/>
      </contour>
      <contour>
        <pt x="243" y="96" on="0"/>
        <pt x="271" y="116" on="0"/>
        <pt x="276" y="141" on="1"/>
        <pt x="283" y="170" on="0"/>
        <pt x="283" y="257" on="1"/>
        <pt x="283" y="333" on="0"/>
        <pt x="278" y="362" on="1"/>
        <pt x="273" y="394" on="0"/>
        <pt x="245" y="417" on="0"/>
        <pt x="216" y="417" on="1"/>
        <pt x="182" y="417" on="0"/>
        <pt x="156" y="399" on="0"/>
        <pt x="147" y="337" on="0"/>
        <pt x="147" y="257" on="1"/>
        <pt x="147" y="179" on="0"/>
        <pt x="156" y="115" on="0"/>
        <pt x="183" y="96" on="0"/>
        <pt x="216" y="96" on="1"/>
      </contour>
    </TTGlyph>
    <TTGlyph name="g_tilde.loclGUA" xMin="39" yMin="-200" xMax="391" yMax="743">
      <component glyphName="g" x="0" y="0" flags="0x0"/>
      <component glyphName="tildecomb" x="378" y="0" flags="0x0"/>
    </TTGlyph>
    <TTGlyph name="gbreve" xMin="39" yMin="-200" xMax="391" yMax="743">
      <component glyphName="g" x="0" y="0" flags="0x0"/>
      <component glyphName="uni0306" x="352" y="0" flags="0x0"/>
    </TTGlyph>
    <TTGlyph name="gcaron" xMin="39" yMin="-200" xMax="391" yMax="743">
      <component glyphName="g" x="0" y="0" flags="0x0"/>
      <component glyphName="uni030C" x="360" y="0" flags="0x0"/>
    </TTGlyph>
    <TTGlyph name="gcircumflex" xMin="39" yMin="-200" xMax="391" yMax="743">
      <component glyphName="g" x="0" y="0" flags="0x0"/>
      <component glyphName="uni0302" x="359" y="0" flags="0x0"/>
    </TTGlyph>
    <TTGlyph name="gcommaaccent" xMin="39" yMin="-200" xMax="391" yMax="825">
      <component glyphName="g" x="0" y="0" flags="0x0"/>
      <component glyphName="uni0312" x="594" y="0" flags="0x0"/>
    </TTGlyph>
    <TTGlyph name="gdotaccent" xMin="39" yMin="-200" xMax="391" yMax="730">
      <component glyphName="g" x="0" y="0" flags="0x0"/>
      <component glyphName="uni0307" x="279" y="0" flags="0x0"/>
    </TTGlyph>
    <TTGlyph name="germandbls" xMin="53" yMin="0" xMax="417" yMax="750">
      <contour>
        <pt x="215" y="0" on="1"/>
        <pt x="215" y="93" on="1"/>
        <pt x="235" y="93" on="1"/>
        <pt x="272" y="93" on="0"/>
        <pt x="300" y="109" on="0"/>
        <pt x="309" y="167" on="0"/>
        <pt x="309" y="244" on="1"/>
        <pt x="309" y="307" on="0"/>
        <pt x="297" y="364" on="0"/>
        <pt x="269" y="382" on="0"/>
        <pt x="238" y="382" on="1"/>
        <pt x="224" y="382" on="1"/>
        <pt x="224" y="477" on="1"/>
        <pt x="238" y="477" on="1"/>
        <pt x="268" y="477" on="0"/>
        <pt x="296" y="494" on="0"/>
        <pt x="304" y="531" on="0"/>
        <pt x="304" y="568" on="1"/>
        <pt x="304" y="605" on="0"/>
        <pt x="288" y="644" on="0"/>
        <pt x="257" y="657" on="0"/>
        <pt x="230" y="657" on="1"/>
        <pt x="203" y="657" on="0"/>
        <pt x="174" y="641" on="0"/>
        <pt x="161" y="593" on="0"/>
        <pt x="161" y="545" on="1"/>
        <pt x="161" y="0" on="1"/>
        <pt x="53" y="0" on="1"/>
        <pt x="53" y="547" on="1"/>
        <pt x="53" y="620" on="0"/>
        <pt x="86" y="708" on="0"/>
        <pt x="164" y="750" on="0"/>
        <pt x="232" y="750" on="1"/>
        <pt x="332" y="750" on="0"/>
        <pt x="412" y="668" on="0"/>
        <pt x="412" y="582" on="1"/>
        <pt x="412" y="515" on="0"/>
        <pt x="368" y="446" on="0"/>
        <pt x="320" y="436" on="1"/>
        <pt x="320" y="432" on="1"/>
        <pt x="372" y="420" on="0"/>
        <pt x="417" y="334" on="0"/>
        <pt x="417" y="239" on="1"/>
        <pt x="417" y="149" on="0"/>
        <pt x="392" y="49" on="0"/>
        <pt x="319" y="0" on="0"/>
        <pt x="246" y="0" on="1"/>
      </contour>
    </TTGlyph>
    <TTGlyph name="grave" xMin="6" yMin="599" xMax="169" yMax="743">
      <contour>
        <pt x="6" y="738" on="1"/>
        <pt x="6" y="743" on="1"/>
        <pt x="116" y="743" on="1"/>
        <pt x="169" y="604" on="1"/>
        <pt x="169" y="599" on="1"/>
        <pt x="82" y="599" on="1"/>
      </contour>
    </TTGlyph>
    <TTGlyph name="gravecomb" xMin="-169" yMin="599" xMax="-6" yMax="743">
      <contour>
        <pt x="-169" y="738" on="1"/>
        <pt x="-169" y="743" on="1"/>
        <pt x="-59" y="743" on="1"/>
        <pt x="-6" y="604" on="1"/>
        <pt x="-6" y="599" on="1"/>
        <pt x="-93" y="599" on="1"/>
      </contour>
    </TTGlyph>
    <TTGlyph name="gravecomb.case" xMin="-169" yMin="744" xMax="-6" yMax="888">
      <contour>
        <pt x="-169" y="883" on="1"/>
        <pt x="-169" y="888" on="1"/>
        <pt x="-59" y="888" on="1"/>
        <pt x="-6" y="749" on="1"/>
        <pt x="-6" y="744" on="1"/>
        <pt x="-93" y="744" on="1"/>
      </contour>
    </TTGlyph>
    <TTGlyph name="greater" xMin="58" yMin="65" xMax="417" yMax="439">
      <contour>
        <pt x="58" y="161" on="1"/>
        <pt x="307" y="253" on="1"/>
        <pt x="58" y="344" on="1"/>
        <pt x="58" y="439" on="1"/>
        <pt x="417" y="301" on="1"/>
        <pt x="417" y="203" on="1"/>
        <pt x="58" y="65" on="1"/>
      </contour>
    </TTGlyph>
    <TTGlyph name="greaterequal" xMin="59" yMin="30" xMax="418" yMax="560">
      <contour>
        <pt x="59" y="282" on="1"/>
        <pt x="308" y="374" on="1"/>
        <pt x="59" y="465" on="1"/>
        <pt x="59" y="560" on="1"/>
        <pt x="418" y="422" on="1"/>
        <pt x="418" y="324" on="1"/>
        <pt x="59" y="186" on="1"/>
      </contour>
      <contour>
        <pt x="59" y="124" on="1"/>
        <pt x="418" y="124" on="1"/>
        <pt x="418" y="30" on="1"/>
        <pt x="59" y="30" on="1"/>
      </contour>
    </TTGlyph>
    <TTGlyph name="guillemotleft" xMin="33" yMin="116" xMax="353" yMax="510">
      <contour>
        <pt x="33" y="312" on="1"/>
        <pt x="122" y="510" on="1"/>
        <pt x="201" y="510" on="1"/>
        <pt x="129" y="312" on="1"/>
        <pt x="201" y="116" on="1"/>
        <pt x="122" y="116" on="1"/>
      </contour>
      <contour>
        <pt x="185" y="312" on="1"/>
        <pt x="274" y="510" on="1"/>
        <pt x="353" y="510" on="1"/>
        <pt x="280" y="312" on="1"/>
        <pt x="353" y="116" on="1"/>
        <pt x="274" y="116" on="1"/>
      </contour>
    </TTGlyph>
    <TTGlyph name="guillemotright" xMin="45" yMin="116" xMax="364" yMax="510">
      <contour>
        <pt x="117" y="312" on="1"/>
        <pt x="45" y="510" on="1"/>
        <pt x="123" y="510" on="1"/>
        <pt x="213" y="312" on="1"/>
        <pt x="123" y="116" on="1"/>
        <pt x="45" y="116" on="1"/>
      </contour>
      <contour>
        <pt x="269" y="312" on="1"/>
        <pt x="197" y="510" on="1"/>
        <pt x="275" y="510" on="1"/>
        <pt x="364" y="312" on="1"/>
        <pt x="275" y="116" on="1"/>
        <pt x="197" y="116" on="1"/>
      </contour>
    </TTGlyph>
    <TTGlyph name="guilsinglleft" xMin="33" yMin="116" xMax="200" yMax="510">
      <contour>
        <pt x="33" y="312" on="1"/>
        <pt x="122" y="510" on="1"/>
        <pt x="200" y="510" on="1"/>
        <pt x="129" y="312" on="1"/>
        <pt x="200" y="116" on="1"/>
        <pt x="122" y="116" on="1"/>
      </contour>
    </TTGlyph>
    <TTGlyph name="guilsinglright" xMin="45" yMin="116" xMax="213" yMax="510">
      <contour>
        <pt x="117" y="312" on="1"/>
        <pt x="45" y="510" on="1"/>
        <pt x="123" y="510" on="1"/>
        <pt x="213" y="312" on="1"/>
        <pt x="123" y="116" on="1"/>
        <pt x="45" y="116" on="1"/>
      </contour>
    </TTGlyph>
    <TTGlyph name="h" xMin="53" yMin="0" xMax="398" yMax="743">
      <contour>
        <pt x="290" y="281" on="1"/>
        <pt x="290" y="348" on="0"/>
        <pt x="282" y="402" on="0"/>
        <pt x="258" y="417" on="0"/>
        <pt x="228" y="417" on="1"/>
        <pt x="196" y="417" on="0"/>
        <pt x="168" y="390" on="0"/>
        <pt x="161" y="332" on="0"/>
        <pt x="161" y="266" on="1"/>
        <pt x="161" y="0" on="1"/>
        <pt x="53" y="0" on="1"/>
        <pt x="53" y="743" on="1"/>
        <pt x="161" y="743" on="1"/>
        <pt x="161" y="450" on="1"/>
        <pt x="166" y="450" on="1"/>
        <pt x="179" y="485" on="0"/>
        <pt x="235" y="518" on="0"/>
        <pt x="279" y="518" on="1"/>
        <pt x="328" y="518" on="0"/>
        <pt x="380" y="479" on="0"/>
        <pt x="398" y="402" on="0"/>
        <pt x="398" y="335" on="1"/>
        <pt x="398" y="0" on="1"/>
        <pt x="290" y="0" on="1"/>
      </contour>
    </TTGlyph>
    <TTGlyph name="hbar" xMin="8" yMin="0" xMax="398" yMax="743">
      <contour>
        <pt x="328" y="518" on="0"/>
        <pt x="380" y="479" on="0"/>
        <pt x="398" y="402" on="0"/>
        <pt x="398" y="335" on="1"/>
        <pt x="398" y="0" on="1"/>
        <pt x="290" y="0" on="1"/>
        <pt x="290" y="281" on="1"/>
        <pt x="290" y="348" on="0"/>
        <pt x="282" y="402" on="0"/>
        <pt x="258" y="417" on="0"/>
        <pt x="228" y="417" on="1"/>
        <pt x="196" y="417" on="0"/>
        <pt x="168" y="390" on="0"/>
        <pt x="161" y="332" on="0"/>
        <pt x="161" y="266" on="1"/>
        <pt x="161" y="0" on="1"/>
        <pt x="53" y="0" on="1"/>
        <pt x="53" y="595" on="1"/>
        <pt x="8" y="595" on="1"/>
        <pt x="8" y="688" on="1"/>
        <pt x="53" y="688" on="1"/>
        <pt x="53" y="743" on="1"/>
        <pt x="161" y="743" on="1"/>
        <pt x="161" y="688" on="1"/>
        <pt x="257" y="688" on="1"/>
        <pt x="257" y="595" on="1"/>
        <pt x="161" y="595" on="1"/>
        <pt x="161" y="450" on="1"/>
        <pt x="166" y="450" on="1"/>
        <pt x="179" y="485" on="0"/>
        <pt x="235" y="518" on="0"/>
        <pt x="279" y="518" on="1"/>
      </contour>
    </TTGlyph>
    <TTGlyph name="hcircumflex" xMin="-25" yMin="0" xMax="398" yMax="921">
      <component glyphName="h" x="0" y="0" flags="0x0"/>
      <component glyphName="uni0302" x="244" y="178" flags="0x4"/>
    </TTGlyph>
    <TTGlyph name="hookabovecomb" xMin="-239" yMin="610" xMax="-24" yMax="820">
      <contour>
        <pt x="-192" y="628" on="1"/>
        <pt x="-192" y="656" on="0"/>
        <pt x="-174" y="677" on="0"/>
        <pt x="-150" y="688" on="1"/>
        <pt x="-136" y="694" on="1"/>
        <pt x="-118" y="703" on="0"/>
        <pt x="-104" y="716" on="0"/>
        <pt x="-104" y="725" on="1"/>
        <pt x="-104" y="735" on="0"/>
        <pt x="-119" y="743" on="0"/>
        <pt x="-142" y="743" on="1"/>
        <pt x="-190" y="743" on="0"/>
        <pt x="-239" y="737" on="1"/>
        <pt x="-239" y="809" on="1"/>
        <pt x="-180" y="820" on="0"/>
        <pt x="-142" y="820" on="1"/>
        <pt x="-83" y="820" on="0"/>
        <pt x="-24" y="779" on="0"/>
        <pt x="-24" y="733" on="1"/>
        <pt x="-24" y="703" on="0"/>
        <pt x="-42" y="667" on="0"/>
        <pt x="-69" y="654" on="1"/>
        <pt x="-88" y="645" on="1"/>
        <pt x="-111" y="634" on="0"/>
        <pt x="-120" y="623" on="0"/>
        <pt x="-120" y="610" on="1"/>
        <pt x="-192" y="610" on="1"/>
      </contour>
    </TTGlyph>
    <TTGlyph name="hookabovecomb.case" xMin="-239" yMin="721" xMax="-24" yMax="932">
      <contour>
        <pt x="-192" y="740" on="1"/>
        <pt x="-192" y="767" on="0"/>
        <pt x="-175" y="788" on="0"/>
        <pt x="-150" y="800" on="1"/>
        <pt x="-136" y="806" on="1"/>
        <pt x="-118" y="815" on="0"/>
        <pt x="-104" y="828" on="0"/>
        <pt x="-104" y="837" on="1"/>
        <pt x="-104" y="847" on="0"/>
        <pt x="-119" y="854" on="0"/>
        <pt x="-142" y="854" on="1"/>
        <pt x="-198" y="854" on="0"/>
        <pt x="-239" y="849" on="1"/>
        <pt x="-239" y="921" on="1"/>
        <pt x="-180" y="932" on="0"/>
        <pt x="-142" y="932" on="1"/>
        <pt x="-83" y="932" on="0"/>
        <pt x="-24" y="891" on="0"/>
        <pt x="-24" y="844" on="1"/>
        <pt x="-24" y="814" on="0"/>
        <pt x="-42" y="779" on="0"/>
        <pt x="-69" y="766" on="1"/>
        <pt x="-88" y="756" on="1"/>
        <pt x="-111" y="745" on="0"/>
        <pt x="-120" y="735" on="0"/>
        <pt x="-120" y="721" on="1"/>
        <pt x="-192" y="721" on="1"/>
      </contour>
    </TTGlyph>
    <TTGlyph name="house" xMin="29" yMin="0" xMax="503" yMax="699">
      <contour>
        <pt x="29" y="373" on="1"/>
        <pt x="217" y="699" on="1"/>
        <pt x="315" y="699" on="1"/>
        <pt x="503" y="373" on="1"/>
        <pt x="503" y="0" on="1"/>
        <pt x="29" y="0" on="1"/>
      </contour>
      <contour>
        <pt x="401" y="85" on="1"/>
        <pt x="402" y="361" on="1"/>
        <pt x="266" y="595" on="1"/>
        <pt x="130" y="361" on="1"/>
        <pt x="130" y="85" on="1"/>
      </contour>
    </TTGlyph>
    <TTGlyph name="hungarumlaut" xMin="10" yMin="609" xMax="291" yMax="733">
      <contour>
        <pt x="10" y="613" on="1"/>
        <pt x="57" y="733" on="1"/>
        <pt x="148" y="733" on="1"/>
        <pt x="148" y="729" on="1"/>
        <pt x="82" y="609" on="1"/>
        <pt x="10" y="609" on="1"/>
      </contour>
      <contour>
        <pt x="153" y="613" on="1"/>
        <pt x="199" y="733" on="1"/>
        <pt x="291" y="733" on="1"/>
        <pt x="291" y="729" on="1"/>
        <pt x="225" y="609" on="1"/>
        <pt x="153" y="609" on="1"/>
      </contour>
    </TTGlyph>
    <TTGlyph name="hyphen" xMin="50" yMin="235" xMax="249" yMax="335">
      <contour>
        <pt x="50" y="335" on="1"/>
        <pt x="249" y="335" on="1"/>
        <pt x="249" y="235" on="1"/>
        <pt x="50" y="235" on="1"/>
      </contour>
    </TTGlyph>
    <TTGlyph name="i" xMin="52" yMin="0" xMax="162" yMax="743">
      <contour>
        <pt x="52" y="743" on="1"/>
        <pt x="162" y="743" on="1"/>
        <pt x="162" y="633" on="1"/>
        <pt x="52" y="633" on="1"/>
      </contour>
      <contour>
        <pt x="53" y="510" on="1"/>
        <pt x="161" y="510" on="1"/>
        <pt x="161" y="0" on="1"/>
        <pt x="53" y="0" on="1"/>
      </contour>
    </TTGlyph>
    <TTGlyph name="i.loclTRK" xMin="53" yMin="0" xMax="161" yMax="730">
      <component glyphName="dotlessi" x="0" y="0" flags="0x0"/>
      <component glyphName="uni0307" x="164" y="0" flags="0x0"/>
    </TTGlyph>
    <TTGlyph name="iacute" xMin="53" yMin="0" xMax="217" yMax="743">
      <component glyphName="dotlessi" x="0" y="0" flags="0x0"/>
      <component glyphName="acute" x="48" y="0" flags="0x0"/>
    </TTGlyph>
    <TTGlyph name="iacute_j.loclNLD" xMin="53" yMin="-193" xMax="433" yMax="743">
      <component glyphName="dotlessi" x="0" y="0" flags="0x0"/>
      <component glyphName="acutecomb" x="225" y="0" flags="0x0"/>
      <component glyphName="uni0237" x="214" y="0" flags="0x0"/>
      <component glyphName="acutecomb" x="439" y="0" flags="0x0"/>
    </TTGlyph>
    <TTGlyph name="ibreve" xMin="-18" yMin="0" xMax="231" yMax="743">
      <component glyphName="dotlessi" x="0" y="0" flags="0x0"/>
      <component glyphName="uni0306" x="237" y="0" flags="0x0"/>
    </TTGlyph>
    <TTGlyph name="icircumflex" xMin="-24" yMin="0" xMax="239" yMax="743">
      <component glyphName="dotlessi" x="0" y="0" flags="0x0"/>
      <component glyphName="circumflex" x="-30" y="0" flags="0x0"/>
    </TTGlyph>
    <TTGlyph name="idieresis" xMin="-28" yMin="0" xMax="243" yMax="722">
      <component glyphName="dotlessi" x="0" y="0" flags="0x0"/>
      <component glyphName="dieresis" x="-39" y="-8" flags="0x4"/>
    </TTGlyph>
    <TTGlyph name="igrave" xMin="-3" yMin="0" xMax="161" yMax="743">
      <component glyphName="dotlessi" x="0" y="0" flags="0x0"/>
      <component glyphName="grave" x="-9" y="0" flags="0x0"/>
    </TTGlyph>
    <TTGlyph name="ij" xMin="52" yMin="-193" xMax="376" yMax="743">
      <component glyphName="i" x="0" y="0" flags="0x0"/>
      <component glyphName="j" x="214" y="0" flags="0x0"/>
    </TTGlyph>
    <TTGlyph name="imacron" xMin="7" yMin="0" xMax="206" yMax="743">
      <component glyphName="dotlessi" x="0" y="0" flags="0x0"/>
      <component glyphName="uni0304" x="258" y="0" flags="0x0"/>
    </TTGlyph>
    <TTGlyph name="infinity" xMin="50" yMin="41" xMax="732" yMax="471">
      <contour>
        <pt x="124" y="41" on="0"/>
        <pt x="50" y="147" on="0"/>
        <pt x="50" y="256" on="1"/>
        <pt x="50" y="365" on="0"/>
        <pt x="124" y="471" on="0"/>
        <pt x="220" y="471" on="1"/>
        <pt x="288" y="471" on="0"/>
        <pt x="366" y="410" on="0"/>
        <pt x="391" y="355" on="1"/>
        <pt x="415" y="410" on="0"/>
        <pt x="494" y="471" on="0"/>
        <pt x="562" y="471" on="1"/>
        <pt x="658" y="471" on="0"/>
        <pt x="732" y="365" on="0"/>
        <pt x="732" y="256" on="1"/>
        <pt x="732" y="147" on="0"/>
        <pt x="658" y="41" on="0"/>
        <pt x="562" y="41" on="1"/>
        <pt x="494" y="41" on="0"/>
        <pt x="414" y="102" on="0"/>
        <pt x="391" y="157" on="1"/>
        <pt x="367" y="101" on="0"/>
        <pt x="288" y="41" on="0"/>
        <pt x="220" y="41" on="1"/>
      </contour>
      <contour>
        <pt x="278" y="125" on="0"/>
        <pt x="331" y="195" on="0"/>
        <pt x="344" y="256" on="1"/>
        <pt x="332" y="318" on="0"/>
        <pt x="278" y="387" on="0"/>
        <pt x="229" y="387" on="1"/>
        <pt x="178" y="387" on="0"/>
        <pt x="143" y="324" on="0"/>
        <pt x="143" y="256" on="1"/>
        <pt x="143" y="188" on="0"/>
        <pt x="178" y="125" on="0"/>
        <pt x="229" y="125" on="1"/>
      </contour>
      <contour>
        <pt x="605" y="125" on="0"/>
        <pt x="639" y="188" on="0"/>
        <pt x="639" y="256" on="1"/>
        <pt x="639" y="324" on="0"/>
        <pt x="605" y="387" on="0"/>
        <pt x="554" y="387" on="1"/>
        <pt x="505" y="387" on="0"/>
        <pt x="450" y="318" on="0"/>
        <pt x="437" y="256" on="1"/>
        <pt x="450" y="195" on="0"/>
        <pt x="505" y="125" on="0"/>
        <pt x="554" y="125" on="1"/>
      </contour>
    </TTGlyph>
    <TTGlyph name="integral" xMin="31" yMin="-190" xMax="278" yMax="696">
      <contour>
        <pt x="31" y="-105" on="1"/>
        <pt x="67" y="-105" on="0"/>
        <pt x="101" y="-99" on="0"/>
        <pt x="115" y="-78" on="0"/>
        <pt x="115" y="-56" on="1"/>
        <pt x="110" y="46" on="1"/>
        <pt x="86" y="501" on="1"/>
        <pt x="83" y="553" on="1"/>
        <pt x="83" y="620" on="0"/>
        <pt x="120" y="680" on="0"/>
        <pt x="197" y="696" on="0"/>
        <pt x="278" y="696" on="1"/>
        <pt x="278" y="612" on="1"/>
        <pt x="240" y="612" on="0"/>
        <pt x="207" y="604" on="0"/>
        <pt x="195" y="581" on="0"/>
        <pt x="195" y="554" on="1"/>
        <pt x="195" y="539" on="0"/>
        <pt x="196" y="530" on="1"/>
        <pt x="197" y="501" on="1"/>
        <pt x="222" y="43" on="1"/>
        <pt x="226" y="-46" on="1"/>
        <pt x="226" y="-113" on="0"/>
        <pt x="187" y="-174" on="0"/>
        <pt x="111" y="-190" on="0"/>
        <pt x="31" y="-190" on="1"/>
      </contour>
    </TTGlyph>
    <TTGlyph name="iogonek" xMin="20" yMin="-196" xMax="162" yMax="730">
      <contour>
        <pt x="155" y="635" on="1"/>
        <pt x="58" y="635" on="1"/>
        <pt x="58" y="730" on="1"/>
        <pt x="155" y="730" on="1"/>
      </contour>
      <contour>
        <pt x="157" y="-131" on="0"/>
        <pt x="162" y="-130" on="1"/>
        <pt x="162" y="-193" on="1"/>
        <pt x="135" y="-196" on="0"/>
        <pt x="117" y="-196" on="1"/>
        <pt x="65" y="-196" on="0"/>
        <pt x="20" y="-151" on="0"/>
        <pt x="20" y="-116" on="1"/>
        <pt x="20" y="-85" on="0"/>
        <pt x="51" y="-25" on="0"/>
        <pt x="77" y="0" on="1"/>
        <pt x="53" y="0" on="1"/>
        <pt x="53" y="510" on="1"/>
        <pt x="161" y="510" on="1"/>
        <pt x="161" y="0" on="1"/>
        <pt x="141" y="-16" on="0"/>
        <pt x="107" y="-69" on="0"/>
        <pt x="107" y="-94" on="1"/>
        <pt x="107" y="-110" on="0"/>
        <pt x="126" y="-131" on="0"/>
        <pt x="146" y="-131" on="1"/>
      </contour>
    </TTGlyph>
    <TTGlyph name="itilde" xMin="-44" yMin="0" xMax="257" yMax="743">
      <component glyphName="dotlessi" x="0" y="0" flags="0x0"/>
      <component glyphName="tildecomb" x="263" y="0" flags="0x0"/>
    </TTGlyph>
</ttFont>
